<svg xmlns="http://www.w3.org/2000/svg" width="1085" height="1115.793" viewBox="0 0 1085 1115.793">
    <defs>
        <style>
            .cls-1{fill:#173e3e;opacity:.04}.cls-2{fill:#72d3d3}.cls-13,.cls-16,.cls-3,.cls-4,.cls-6,.cls-7,.cls-9{fill:none}.cls-3,.cls-4,.cls-9{stroke:#5cb7b5}.cls-3,.cls-4,.cls-6,.cls-7,.cls-9{stroke-linecap:round}.cls-13,.cls-3,.cls-4,.cls-6,.cls-7,.cls-9{stroke-miterlimit:10}.cls-3{stroke-width:3px}.cls-4{stroke-width:1.4px}.cls-5{fill:#82ceb7}.cls-6,.cls-7{stroke:#57a38b}.cls-6{stroke-width:4px}.cls-7{stroke-width:2px}.cls-8{fill:#5cb7b5}.cls-13,.cls-9{stroke-width:5px}.cls-10{fill:#2a8c72}.cls-11{fill:#29bd53}.cls-12{fill:#d5ebea}.cls-13,.cls-16{stroke:#fff}.cls-14{fill:#ffcbbf}.cls-15{fill:#c5fffd}.cls-16{stroke-width:6px}
        </style>
    </defs>
    <g id="Group_367" data-name="Group 367" transform="translate(-259.863 -482.726)">
        <ellipse id="Ellipse_10" cx="435.402" cy="31.522" class="cls-1" data-name="Ellipse 10" rx="435.402" ry="31.522" transform="translate(394.101 1535.475)"/>
        <g id="Group_349" data-name="Group 349" transform="translate(391.337 1001.717)">
            <path id="Path_332" d="M499.752 1315.222s-9.093-19.391-3.667-39.841 12.549-30.3 12.549-30.3 26.392 15.353 17.4 40.724-23.54 33.414-23.54 33.414z" class="cls-2" data-name="Path 332" transform="translate(-430.878 -1229.572)"/>
            <path id="Path_333" d="M516.378 1308.592s-21.882-2.476-29.862-25.129a80.405 80.405 0 0 1-2.557-43.1s25.713 11.109 33.355 31.641-.936 36.588-.936 36.588z" class="cls-2" data-name="Path 333" transform="translate(-458.727 -1240.359)"/>
            <path id="Path_334" d="M541.625 1275.266s-22.013-16.87-45.346-13.127-21.209 3.4-21.209 3.4 10.019 35.38 39.375 28.5 33.259-9.681 33.259-9.681z" class="cls-2" data-name="Path 334" transform="translate(-475.02 -1191.881)"/>
            <path id="Path_335" d="M497.059 1310.289s11.276-31.074 8.082-60.981" class="cls-3" data-name="Path 335" transform="translate(-424.712 -1219.934)"/>
            <path id="Path_336" d="M507.328 1325.275s-9.093-19.391-3.667-39.842 12.549-30.3 12.549-30.3 26.392 15.353 17.4 40.724-23.54 33.414-23.54 33.414z" class="cls-2" data-name="Path 336" transform="translate(-413.585 -1206.624)"/>
            <path id="Path_337" d="M504.635 1320.342s11.276-31.074 8.082-60.981" class="cls-3" data-name="Path 337" transform="translate(-407.419 -1196.987)"/>
            <path id="Path_338" d="M515.883 1333.185s-9.09-19.394-3.663-39.844 12.549-30.3 12.549-30.3 26.392 15.353 17.4 40.724-23.54 33.417-23.54 33.417z" class="cls-2" data-name="Path 338" transform="translate(-394.051 -1188.576)"/>
            <path id="Path_339" d="M513.192 1328.249s11.279-31.073 8.082-60.982" class="cls-4" data-name="Path 339" transform="translate(-387.887 -1178.939)"/>
            <path id="Path_340" d="M538.854 1274.543s-39.014 3.155-60.423-9.884" class="cls-3" data-name="Path 340" transform="translate(-467.233 -1184.891)"/>
            <path id="Path_341" d="M549.2 1285.319s-22.013-16.869-45.346-13.127-21.209 3.4-21.209 3.4 10.022 35.38 39.375 28.5 33.26-9.68 33.26-9.68z" class="cls-2" data-name="Path 341" transform="translate(-457.727 -1168.934)"/>
            <path id="Path_342" d="M546.43 1284.6s-39.014 3.155-60.423-9.884" class="cls-3" data-name="Path 342" transform="translate(-449.94 -1161.944)"/>
            <path id="Path_343" d="M557.671 1289.548s-24.557-12.881-46.915-5.232l-20.326 6.953s15.888 33.164 43.646 21.4 31.133-15.192 31.133-15.192z" class="cls-2" data-name="Path 343" transform="translate(-439.955 -1145.559)"/>
            <path id="Path_344" d="M555.283 1285.845s-37.911 9.737-61.224.525" class="cls-3" data-name="Path 344" transform="translate(-431.56 -1136.532)"/>
            <path id="Path_345" d="M644.487 1400.792S562.94 1418.075 485 1246.036" class="cls-3" data-name="Path 345" transform="translate(-452.229 -1227.401)"/>
        </g>
        <g id="Group_350" data-name="Group 350" transform="translate(437.152 844.386)">
            <path id="Path_346" d="M522.854 1312.675s-9.027-31.457 4.1-61S553.218 1209 553.218 1209s36.109 29.544 16.413 65.652-43.6 44.726-43.6 44.726z" class="cls-5" data-name="Path 346" transform="translate(-418.553 -1169.609)"/>
            <path id="Path_347" d="M544.259 1307.788s-32.416-9.027-38.981-45.136 6.566-65.652 6.566-65.652 36.109 22.978 42.674 55.8-10.259 54.988-10.259 54.988z" class="cls-5" data-name="Path 347" transform="translate(-455.961 -1197)"/>
            <path id="Path_348" d="M587.122 1259.775S557.989 1229 521.88 1229h-32.826s6.565 55.8 52.522 52.522 52.522-6.565 52.522-6.565z" class="cls-5" data-name="Path 348" transform="translate(-488.976 -1123.956)"/>
            <path id="Path_349" d="M521 1292.218s26.261-32.826 29.544-72.218" class="cls-6" data-name="Path 349" transform="translate(-415.879 -1144.5)"/>
            <path id="Path_350" d="M530.854 1328.675s-9.027-31.457 4.1-61S561.218 1225 561.218 1225s36.109 29.544 16.413 65.653-43.6 44.726-43.6 44.726z" class="cls-5" data-name="Path 350" transform="translate(-400.292 -1133.087)"/>
            <path id="Path_351" d="M530 1321.619s24.531-44.155 26.94-90.052" class="cls-6" data-name="Path 351" transform="translate(-395.335 -1118.097)"/>
            <path id="Path_352" d="M541.854 1342.675s-9.027-31.457 4.1-61S572.218 1239 572.218 1239s36.109 29.543 16.413 65.652-43.6 44.726-43.6 44.726z" class="cls-5" data-name="Path 352" transform="translate(-375.183 -1101.13)"/>
            <path id="Path_353" d="M541 1335.619s24.531-44.155 26.94-90.052" class="cls-7" data-name="Path 353" transform="translate(-370.226 -1086.14)"/>
            <path id="Path_354" d="M575.041 1256.926s-47.178-3.7-78.12-22" class="cls-6" data-name="Path 354" transform="translate(-470.842 -1110.439)"/>
            <path id="Path_355" d="M596.122 1276.775S566.989 1246 530.88 1246h-32.826s6.565 55.8 52.522 52.522 52.522-6.565 52.522-6.565z" class="cls-5" data-name="Path 355" transform="translate(-468.433 -1085.152)"/>
            <path id="Path_356" d="M584.917 1274.455s-48.478-3.8-79.38-22.765" class="cls-6" data-name="Path 356" transform="translate(-451.175 -1072.164)"/>
            <path id="Path_357" d="M608.793 1284.042s-33.939-25.378-69.523-19.242l-32.347 5.577s15.95 53.877 60.682 42.835 50.641-15.4 50.641-15.4z" class="cls-5" data-name="Path 357" transform="translate(-448.185 -1044.424)"/>
            <path id="Path_359" d="M710.456 1475.093s-125.862 6.293-201.989-267.619" class="cls-6" data-name="Path 359" transform="translate(-444.486 -1173.092)"/>
        </g>
        <g id="Group_359" data-name="Group 359" transform="translate(1120.015 1322.248)">
            <g id="Group_351" data-name="Group 351" transform="translate(49.239 93.739)">
                <path id="Path_360" d="M758.916 1367.5c-37.442-7.611-46.916 33.33-46.916 33.33l3.066 12.257c24.2-14.774 40.416-39.939 43.85-45.587z" class="cls-2" data-name="Path 360" transform="translate(-712 -1366.56)"/>
                <path id="Path_361" d="M756.783 1366.848c-3.434 5.643-19.65 30.808-43.849 45.583l.217.873c49.239 9.848 45.956-45.957 45.956-45.957-.791-.197-1.552-.342-2.324-.499z" class="cls-8" data-name="Path 361" transform="translate(-709.868 -1365.904)"/>
            </g>
            <g id="Group_352" data-name="Group 352" transform="translate(0 93.739)">
                <path id="Path_362" d="M697.721 1367.5c37.442-7.616 46.919 33.325 46.919 33.325l-3.066 12.257c-24.2-14.769-40.416-39.934-43.853-45.582z" class="cls-2" data-name="Path 362" transform="translate(-695.355 -1366.56)"/>
                <path id="Path_363" d="M699.367 1366.848c3.437 5.643 19.653 30.808 43.853 45.583l-.217.873c-49.239 9.848-45.957-45.957-45.957-45.957.791-.197 1.554-.342 2.321-.499z" class="cls-8" data-name="Path 363" transform="translate(-697 -1365.904)"/>
            </g>
            <g id="Group_353" data-name="Group 353" transform="translate(49.242 52.509)">
                <path id="Path_364" d="M749.791 1354.761C719.633 1348.626 712 1381.6 712 1381.6l2.469 9.874c19.493-11.903 32.554-32.174 35.322-36.713z" class="cls-2" data-name="Path 364" transform="translate(-712.001 -1354)"/>
                <path id="Path_365" d="M748.074 1354.232c-2.767 4.543-15.829 24.81-35.321 36.713l.177.7c39.657 7.931 37.015-37.015 37.015-37.015-.64-.159-1.254-.274-1.871-.398z" class="cls-8" data-name="Path 365" transform="translate(-710.285 -1353.471)"/>
            </g>
            <g id="Group_354" data-name="Group 354" transform="translate(9.585 52.509)">
                <path id="Path_366" d="M700.5 1354.761c30.157-6.135 37.786 26.839 37.786 26.839l-2.465 9.874c-19.491-11.903-32.553-32.174-35.321-36.713z" class="cls-2" data-name="Path 366" transform="translate(-698.594 -1354)"/>
                <path id="Path_367" d="M701.827 1354.232c2.767 4.543 15.829 24.81 35.321 36.713l-.177.7c-39.657 7.931-37.015-37.015-37.015-37.015.644-.159 1.254-.274 1.871-.398z" class="cls-8" data-name="Path 367" transform="translate(-699.92 -1353.471)"/>
            </g>
            <g id="Group_355" data-name="Group 355" transform="translate(49.249 21.405)">
                <path id="Path_368" d="M740.119 1345.091c-22.437-4.563-28.116 19.971-28.116 19.971l1.835 7.346c14.503-8.856 24.223-23.936 26.281-27.317z" class="cls-2" data-name="Path 368" transform="translate(-712.003 -1344.525)"/>
                <path id="Path_369" d="M738.843 1344.7c-2.058 3.381-11.778 18.461-26.281 27.317l.131.522c29.507 5.9 27.541-27.541 27.541-27.541-.475-.12-.934-.206-1.391-.298z" class="cls-8" data-name="Path 369" transform="translate(-710.727 -1344.132)"/>
            </g>
            <g id="Group_356" data-name="Group 356" transform="translate(19.74 21.405)">
                <path id="Path_370" d="M703.446 1345.091c22.437-4.563 28.115 19.971 28.115 19.971l-1.835 7.346c-14.502-8.856-24.226-23.936-26.28-27.317z" class="cls-2" data-name="Path 370" transform="translate(-702.027 -1344.525)"/>
                <path id="Path_371" d="M704.433 1344.7c2.058 3.381 11.778 18.461 26.281 27.317l-.131.522c-29.508 5.9-27.541-27.541-27.541-27.541.475-.12.931-.206 1.391-.298z" class="cls-8" data-name="Path 371" transform="translate(-703.014 -1344.132)"/>
            </g>
            <g id="Group_357" data-name="Group 357" transform="translate(49.252)">
                <path id="Path_372" d="M730.741 1338.382c-14.952-3.043-18.737 13.307-18.737 13.307l1.224 4.894c9.665-5.901 16.141-15.949 17.513-18.201z" class="cls-2" data-name="Path 372" transform="translate(-712.004 -1338.004)"/>
                <path id="Path_373" d="M729.89 1338.119c-1.372 2.252-7.849 12.3-17.513 18.2l.089.348c19.663 3.932 18.35-18.354 18.35-18.354-.316-.076-.616-.132-.926-.194z" class="cls-8" data-name="Path 373" transform="translate(-711.153 -1337.742)"/>
            </g>
            <g id="Group_358" data-name="Group 358" transform="translate(29.587)">
                <path id="Path_374" d="M706.3 1338.382c14.952-3.043 18.737 13.307 18.737 13.307l-1.224 4.894c-9.662-5.901-16.139-15.949-17.513-18.201z" class="cls-2" data-name="Path 374" transform="translate(-705.355 -1338.004)"/>
                <path id="Path_375" d="M706.961 1338.119c1.372 2.252 7.849 12.3 17.513 18.2l-.089.348c-19.663 3.932-18.353-18.354-18.353-18.354.318-.076.62-.132.929-.194z" class="cls-8" data-name="Path 375" transform="translate(-706.014 -1337.742)"/>
            </g>
            <path id="Line_10" d="M0 147.718V0" class="cls-9" data-name="Line 10" transform="translate(49.239 13.117)"/>
            <path id="Path_376" d="M784.812 1388h-85.9l16.687 72.218h52.522z" class="cls-10" data-name="Path 376" transform="translate(-692.626 -1223.882)"/>
            <path id="Rectangle_57" d="M0 0h91.913v6.565H0z" class="cls-11" data-name="Rectangle 57" transform="translate(3.282 157.553)"/>
        </g>
        <path id="Path_377" d="M781.284 1458.109v-65.652h-43.373a110.9 110.9 0 0 0-8.2-21.14l31.237-31.238-46.423-46.423-30.512 30.513a110.758 110.758 0 0 0-20.9-8.864V1271h-65.656v44.305a110.762 110.762 0 0 0-20.027 8.381l-32.35-32.351-46.423 46.423 32.659 32.659a111.129 111.129 0 0 0-7.727 18.757H476v65.652h47.588a110.756 110.756 0 0 0 7.268 17.858l-34.52 34.52 46.423 46.423 33.795-33.795a110.778 110.778 0 0 0 17.621 7.77v48.681h65.652v-46.656a110.911 110.911 0 0 0 18.97-7.087l33.407 33.407 46.423-46.423-31.71-31.709a110.81 110.81 0 0 0 8.968-19.706zm-209.789-30.078a59.1 59.1 0 1 1 52.758 52.758 59.113 59.113 0 0 1-52.758-52.758z" class="cls-11" data-name="Path 377" transform="translate(-81.445 -168.701)"/>
        <path id="Path_378" d="M825.979 1231.633v-37.415h-24.718a63.1 63.1 0 0 0-4.674-12.047l17.8-17.8-26.458-26.458-17.384 17.387a63.094 63.094 0 0 0-11.913-5.049V1125h-37.415v25.25a63.078 63.078 0 0 0-11.414 4.776l-18.435-18.438-26.458 26.458 18.612 18.612a63.11 63.11 0 0 0-4.4 10.688H652v37.415h27.121a63.33 63.33 0 0 0 4.139 10.176l-19.673 19.673 26.458 26.458 19.259-19.259a63.129 63.129 0 0 0 10.042 4.428v27.742h37.415v-26.589a63.3 63.3 0 0 0 10.81-4.038l19.039 19.039 26.458-26.458-18.068-18.07a63.511 63.511 0 0 0 5.111-11.23zm-119.556-17.142a33.678 33.678 0 1 1 30.066 30.065 33.686 33.686 0 0 1-30.066-30.065z" class="cls-11" data-name="Path 378" transform="translate(327.296 -501.963)"/>
        <g id="Group_360" data-name="Group 360" transform="translate(588.23 678.841)">
            <path id="Rectangle_58" d="M0 0h482.545v646.676H0z" class="cls-12" data-name="Rectangle 58" transform="translate(0 90.272)"/>
            <path id="Path_379" d="M960.647 1142H591.9a56.9 56.9 0 0 0-56.9 56.9v33.375h482.545V1198.9a56.9 56.9 0 0 0-56.898-56.9zM809.1 1206.011h-65.654a16.413 16.413 0 0 1 0-32.826H809.1a16.413 16.413 0 0 1 0 32.826z" class="cls-10" data-name="Path 379" transform="translate(-535 -1142)"/>
            <path id="Path_380" d="M535 1366.5v82.613a56.9 56.9 0 0 0 56.9 56.9h368.75a56.9 56.9 0 0 0 56.9-56.9V1366.5zm241.273 111.609a39.391 39.391 0 1 1 39.391-39.391 39.393 39.393 0 0 1-39.391 39.391z" class="cls-10" data-name="Path 380" transform="translate(-535 -629.552)"/>
        </g>
        <g id="Group_361" data-name="Group 361" transform="translate(644.034 997.256)">
            <path id="Path_381" d="M885.186 1239H589.75a37.751 37.751 0 0 0-37.75 37.75v111.609a37.751 37.751 0 0 0 37.75 37.75h218.875l56.865 50.881v-50.88h19.7a37.751 37.751 0 0 0 37.75-37.75v-111.61a37.751 37.751 0 0 0-37.754-37.75z" class="cls-11" data-name="Path 381" transform="translate(-552 -1239)"/>
            <path id="Line_11" d="M0 0h302.001" class="cls-13" data-name="Line 11" transform="translate(34.468 54.163)"/>
            <path id="Line_12" d="M0 0h302.001" class="cls-13" data-name="Line 12" transform="translate(36.109 95.196)"/>
            <path id="Line_13" d="M0 0h302.001" class="cls-13" data-name="Line 13" transform="translate(37.75 136.229)"/>
        </g>
        <g id="Group_363" data-name="Group 363" transform="translate(530.784 1107.223)">
            <path id="Path_382" d="M538.065 1292.5s3.283 19.7-6.565 32.826h29.544s-9.848-16.413-3.283-32.826z" class="cls-14" data-name="Path 382" transform="translate(-485.543 -1226.848)"/>
            <path id="Path_383" d="M553.5 1351.283s13.13-13.13 19.7-36.109c0 0-3.283-22.979 3.283-26.261 0 0 0-16.413 3.283-16.413s3.283 16.413 3.283 16.413 6.565 0 6.565 9.848-6.565 19.7-6.565 19.7 3.283 36.109-16.413 55.8z" class="cls-14" data-name="Path 383" transform="translate(-435.326 -1272.5)"/>
            <path id="Path_384" d="M575.457 1308.044c0 16.318-10.288 26.261-22.978 26.261s-22.978-9.943-22.978-26.261 10.288-29.544 22.978-29.544 22.978 13.226 22.978 29.544z" data-name="Path 384" transform="translate(-490.109 -1258.804)"/>
            <path id="Path_385" d="M527.065 1339.5l-6.565 242.914h16.413s19.7-105.044 36.109-203.523l16.413 203.523h13.13l9.848-242.914z" data-name="Path 385" transform="translate(-510.652 -1119.565)"/>
            <g id="Group_362" data-name="Group 362" transform="translate(0 78.783)">
                <path id="Path_386" d="M648.8 1319.479l-13.13-22.979-26.261 13.131h-65.648c-9.848 0-26.261 42.674-26.261 72.218s16.413 55.8 16.413 55.8c62.37 29.544 88.631 0 88.631 0-6.565-16.413-6.565-95.2-6.565-95.2zm-111.609 95.2c-6.565-45.957 6.565-65.652 6.565-65.652z" class="cls-2" data-name="Path 386" transform="translate(-517.5 -1296.5)"/>
            </g>
            <path id="Path_387" d="M522.783 1411.745l-2.531 5.062a7.1 7.1 0 0 0-.752 3.187v8.165h29.544a11.287 11.287 0 0 0 .158-1.448 14.768 14.768 0 0 0-15.336-15.31z" class="cls-10" data-name="Path 387" transform="translate(-512.935 -955.461)"/>
            <path id="Path_388" d="M541.455 1420.842l-.955 8.594h30.876a3.175 3.175 0 0 0 2.718-4.835c-2.823-4.547-8.151-11.052-16.633-13.767l-9.29 2.325a8.94 8.94 0 0 0-6.716 7.683z" class="cls-10" data-name="Path 388" transform="translate(-465 -956.738)"/>
        </g>
        <g id="Group_366" data-name="Group 366" transform="translate(1202.814 898.03)">
            <ellipse id="Ellipse_11" cx="42.5" cy="43" class="cls-15" data-name="Ellipse 11" rx="42.5" ry="43" transform="translate(.049 -.303)"/>
            <g id="Group_365" data-name="Group 365" transform="translate(19.045 25.764)">
                <path id="Path_389" d="M793.3 1116.779l19.889-17.337a3.694 3.694 0 0 0-2.345-.855h-38.816a3.688 3.688 0 0 0-2.347.856l19.89 17.336a2.961 2.961 0 0 0 3.729 0z" class="cls-2" data-name="Path 389" transform="translate(-768.297 -1098.587)"/>
                <path id="Path_390" d="M794.841 1117.718a4.54 4.54 0 0 1-5.8.008l-19.846-17.29a3.662 3.662 0 0 0-.4 1.634v25.43a3.732 3.732 0 0 0 3.731 3.731h38.811a3.732 3.732 0 0 0 3.731-3.731v-25.43a3.682 3.682 0 0 0-.4-1.639z" class="cls-2" data-name="Path 390" transform="translate(-768.802 -1097.528)"/>
            </g>
        </g>
        <ellipse id="Ellipse_12" cx="14.5" cy="14" class="cls-2" data-name="Ellipse 12" rx="14.5" ry="14" transform="translate(1168.863 859.726)"/>
        <circle id="Ellipse_18" cx="14" cy="14" r="14" class="cls-2" data-name="Ellipse 18" transform="translate(731.863 482.726)"/>
        <circle id="Ellipse_13" cx="9.5" cy="9.5" r="9.5" class="cls-2" data-name="Ellipse 13" transform="translate(1278.863 793.726)"/>
        <circle id="Ellipse_17" cx="14" cy="14" r="14" class="cls-15" data-name="Ellipse 17" transform="translate(1316.863 963.726)"/>
        <circle id="Ellipse_14" cx="14" cy="14" r="14" class="cls-2" data-name="Ellipse 14" transform="translate(546.863 802.726)"/>
        <circle id="Ellipse_15" cx="14" cy="14" r="14" class="cls-2" data-name="Ellipse 15" transform="translate(313.863 983.726)"/>
        <circle id="Ellipse_16" cx="7.5" cy="7.5" r="7.5" class="cls-2" data-name="Ellipse 16" transform="translate(368.863 1131.726)"/>
        <g id="Component_32_1" data-name="Component 32 – 1" transform="translate(259.863 1082.726)">
            <circle id="Ellipse_11-2" cx="32.5" cy="32.5" r="32.5" class="cls-11" data-name="Ellipse 11"/>
            <path id="Path_391" d="M7.325 0l7.31 30.321L0 33.6" class="cls-16" data-name="Path 391" transform="rotate(60 7.288 46.617)"/>
        </g>
    </g>
</svg>
