<svg xmlns="http://www.w3.org/2000/svg" width="65" height="65" viewBox="0 0 65 65">
    <defs>
        <style>
            .cls-1{fill:none;stroke:#b1c1bd;stroke-miterlimit:10;stroke-width:3px}
        </style>
    </defs>
    <path id="Path_1716" d="M30.808 2034.111h-5.8a2.227 2.227 0 0 1-1.575-3.8l4.1-4.1a3.194 3.194 0 0 0 0-4.515l-5.228-5.228a3.269 3.269 0 0 0-4.516 0l-4.1 4.1a2.153 2.153 0 0 1-1.552.659 2.321 2.321 0 0 1-1.566-.618 2.152 2.152 0 0 1-.683-1.614v-5.8A3.2 3.2 0 0 0 6.7 2010H-.7a3.2 3.2 0 0 0-3.192 3.192v5.8a2.22 2.22 0 0 1-2.251 2.232 2.157 2.157 0 0 1-1.551-.659l-4.1-4.1a3.269 3.269 0 0 0-4.516 0l-5.228 5.228a3.175 3.175 0 0 0-.935 2.259 3.175 3.175 0 0 0 .935 2.257l4.1 4.1a2.166 2.166 0 0 1 .482 2.427 2.162 2.162 0 0 1-2.056 1.374h-5.8A3.2 3.2 0 0 0-28 2037.3v7.392a3.2 3.2 0 0 0 3.192 3.195h5.8a2.164 2.164 0 0 1 2.057 1.374 2.167 2.167 0 0 1-.482 2.427l-4.1 4.1a3.173 3.173 0 0 0-.935 2.257 3.176 3.176 0 0 0 .935 2.259l5.228 5.228a3.267 3.267 0 0 0 4.516 0l4.1-4.1a2.152 2.152 0 0 1 1.552-.659 2.221 2.221 0 0 1 2.25 2.232v5.8A3.2 3.2 0 0 0-.7 2072h7.4a3.2 3.2 0 0 0 3.192-3.193v-5.8a2.22 2.22 0 0 1 2.25-2.232 2.159 2.159 0 0 1 1.552.659l4.1 4.1a3.269 3.269 0 0 0 4.516 0l5.228-5.228a3.195 3.195 0 0 0 0-4.516l-4.1-4.1a2.227 2.227 0 0 1 1.575-3.8h5.8A3.2 3.2 0 0 0 34 2044.7v-7.4a3.2 3.2 0 0 0-3.192-3.189zM11.037 2041A8.037 8.037 0 1 1 3 2032.963a8.047 8.047 0 0 1 8.037 8.037z" class="cls-1" data-name="Path 1716" transform="translate(29.5 -2008.5)"/>
</svg>
