<svg xmlns="http://www.w3.org/2000/svg" width="65" height="65" viewBox="0 0 65 65">
    <defs>
        <style>
            .cls-1{fill:none;stroke:#b1c1bd;stroke-miterlimit:10;stroke-width:3px}.cls-2{fill:#b1c1bd}
        </style>
    </defs>
    <g id="Component_75_1" data-name="Component 75 – 1" transform="translate(1.5 1.5)">
        <circle id="Ellipse_39" cx="31" cy="31" r="31" class="cls-1" data-name="Ellipse 39"/>
        <g id="Group_413" data-name="Group 413" transform="translate(19.574 12.516)">
            <path id="Path_1597" d="M1136.118 2074.915a3.453 3.453 0 0 0-2.771 1.439 4.572 4.572 0 0 0-1.091 2.872c0 1.569 1.026 2.468 2.814 2.468a4.13 4.13 0 0 0 2.891-1.381 3.931 3.931 0 0 0 1.4-2.688 2.489 2.489 0 0 0-.886-2.056 3.659 3.659 0 0 0-2.357-.654z" class="cls-2" data-name="Path 1597" transform="translate(-1128.388 -2044.725)"/>
            <path id="Path_1598" d="M1148.249 2034.933a8.52 8.52 0 0 0-2.89-2.816 16.5 16.5 0 0 0-8.422-2.117 12.106 12.106 0 0 0-7.575 2.561 7.852 7.852 0 0 0-2.571 3.361 3.49 3.49 0 0 0-.29 1.452c0 1.032.44 2.781 3.381 2.905l1.5.07.161-.482q.1-.286.3-1.012c.126-.448.228-.786.309-1.016l.356-1a3.86 3.86 0 0 1 .405-.859c.165-.242.37-.528.61-.859a2.371 2.371 0 0 1 .642-.621c.288-.179.706-.4 1.243-.67a7.4 7.4 0 0 1 7.4 1.749 3.357 3.357 0 0 1 .85 2.278 6.534 6.534 0 0 1-2.2 4.32c-.69.7-1.838 1.754-3.413 3.117a44.258 44.258 0 0 0-3.885 3.723 8.909 8.909 0 0 0-2.565 5.9c0 .6.315 1.616 2.422 1.616a1.918 1.918 0 0 0 1.344-.616 3.4 3.4 0 0 0 .848-1.584l.018-.092c.143-1.147 1.016-2.283 2.592-3.375a54.781 54.781 0 0 1 2.525-1.626 46.74 46.74 0 0 0 2.781-1.835 20.528 20.528 0 0 0 2.546-2.131 9.317 9.317 0 0 0 1.938-2.839 8.957 8.957 0 0 0 .749-3.683 7.1 7.1 0 0 0-1.109-3.819z" class="cls-2" data-name="Path 1598" transform="translate(-1126.501 -2030)"/>
        </g>
    </g>
</svg>
