<svg xmlns="http://www.w3.org/2000/svg" id="Component_67_1" width="69" height="69" data-name="Component 67 – 1" viewBox="0 0 69 69">
    <defs>
        <style>
            .cls-1{fill:#fff}.cls-2{fill:#2a8c72}
        </style>
    </defs>
    <circle id="Ellipse_40" cx="34.5" cy="34.5" r="34.5" class="cls-1" data-name="Ellipse 40"/>
    <g id="Group_442" data-name="Group 442" transform="translate(-1314.47 -2001.079)">
        <path id="Path_1613" d="M1359.509 2041.658a7.711 7.711 0 0 0-6.1 3.007l-11.837-6.612a7.732 7.732 0 0 0 .429-2.542 7.561 7.561 0 0 0-.438-2.55l11.828-6.6a7.7 7.7 0 1 0-1.592-4.679 7.519 7.519 0 0 0 .438 2.55l-11.82 6.6a7.7 7.7 0 1 0 .018 9.351l11.828 6.612a7.7 7.7 0 1 0 7.248-5.136zm0-25.259a5.288 5.288 0 1 1-5.288 5.288 5.293 5.293 0 0 1 5.288-5.287zm-25.2 24.4a5.288 5.288 0 1 1 5.288-5.289 5.293 5.293 0 0 1-5.284 5.29zm25.2 13.842a5.288 5.288 0 1 1 5.289-5.288 5.292 5.292 0 0 1-5.289 5.288z" class="cls-2" data-name="Path 1613"/>
    </g>
</svg>
