<svg xmlns="http://www.w3.org/2000/svg" width="65" height="65" viewBox="0 0 65 65">
    <defs>
        <style>
            .cls-1{fill:none;stroke:#b1c1bd;stroke-miterlimit:10;stroke-width:3px}.cls-2,.cls-4{fill:#b1c1bd}.cls-3,.cls-4{stroke:none}
        </style>
    </defs>
    <g id="Component_107_2" data-name="Component 107 – 2" transform="translate(1.5 1.5)">
        <circle id="Ellipse_57" cx="31" cy="31" r="31" class="cls-1" data-name="Ellipse 57"/>
        <g id="Group_528" data-name="Group 528" transform="translate(-1196.922 -1995.922)">
            <g id="Group_527" data-name="Group 527" transform="translate(1210 2007)">
                <g id="Path_1714" class="cls-2" data-name="Path 1714">
                    <path d="M1241.653 2043.22h-29.137c-1.594 0-2.891-1.33-2.891-2.965v-23.95c0-1.53 1.157-2.823 2.642-2.96l.017-.004 26.072-6.704.045-.012h.202c1.51 0 2.738 1.33 2.738 2.964v3.752h.312c1.595 0 2.892 1.33 2.892 2.964v5.8h.54a1.14 1.14 0 0 1 1.135 1.142v9.912c0 .67-.467 1.136-1.136 1.136h-.466v5.96a2.933 2.933 0 0 1-2.965 2.965zm-29.137-27.68c-.382 0-.692.343-.692.765v23.95c0 .422.31.766.692.766h29.137c.382 0 .693-.344.693-.766v-5.96h-7.255a6.068 6.068 0 0 1-4.298-1.767 6.048 6.048 0 0 1-1.797-4.328c0-3.418 2.677-6.096 6.095-6.096h7.175v-5.8c0-.421-.311-.765-.693-.765h-29.057zm22.575 8.923c-2.068 0-3.816 1.748-3.816 3.817s1.748 3.817 3.816 3.817h8.85v-7.634h-8.85zm-13.687-11.13h17.731v-3.744c0-.392-.214-.67-.393-.751l-17.338 4.495z" class="cls-3" transform="translate(-1210 -2007)"/>
                    <path d="M1238.449 2007l-26.086 6.708c-.008 0-.022.008-.03.008-1.287.102-2.333 1.206-2.333 2.589v23.95c0 1.448 1.141 2.59 2.516 2.59h29.137a2.567 2.567 0 0 0 2.59-2.59v-6.335h.841c.46 0 .76-.307.76-.76v-9.913c0-.46-.38-.768-.76-.768h-.914v-6.174c0-1.449-1.142-2.59-2.517-2.59h-.687v-4.126c0-1.448-1.069-2.589-2.363-2.589h-.154m1.061 6.708h-21.046l20.285-5.26c.38.074.761.535.761 1.141v4.119m3.13 8.771h-7.549c-3.204 0-5.72 2.517-5.72 5.72a5.71 5.71 0 0 0 5.72 5.721h7.63v6.335c0 .607-.46 1.141-1.068 1.141h-29.137c-.606 0-1.067-.534-1.067-1.141v-23.95c0-.607.46-1.14 1.067-1.14h29.057c.607 0 1.068.533 1.068 1.14v6.174m1.675 9.993h-9.225c-2.29 0-4.191-1.91-4.191-4.192s1.91-4.192 4.191-4.192h9.225v8.384m-5.962-26.222h.249c1.716 0 3.113 1.498 3.113 3.34v3.376c1.772.034 3.204 1.519 3.204 3.339v5.424h.164c.833 0 1.51.681 1.51 1.518v9.912c0 .876-.635 1.511-1.51 1.511h-.091v5.585c0 .9-.345 1.742-.972 2.368a3.323 3.323 0 0 1-2.368.972h-29.137c-1.8 0-3.266-1.499-3.266-3.34v-23.95c0-1.713 1.293-3.162 2.955-3.33l26.057-6.701.092-.024zm.406 6.708v-3.369a.575.575 0 0 0-.104-.342l-14.311 3.711h14.415zm3.13 8.771v-5.424c0-.189-.127-.39-.317-.39h-29.057c-.19 0-.317.201-.317.39v23.95c0 .189.127.391.317.391h29.137c.19 0 .318-.202.318-.391v-5.585h-6.88a6.44 6.44 0 0 1-4.562-1.876 6.42 6.42 0 0 1-1.908-4.594c0-1.75.667-3.381 1.878-4.592 1.212-1.212 2.842-1.879 4.592-1.879h6.8zm1.676 3.11h-8.475c-1.865 0-3.441 1.575-3.441 3.44 0 1.867 1.576 3.443 3.441 3.443h8.475v-6.884z" class="cls-4" transform="translate(-1210 -2007)"/>
                </g>
                <g id="Path_1715" class="cls-2" data-name="Path 1715">
                    <path d="M1279.101 2066.346h-.687c-.546 0-1.136-.435-1.136-1.137 0-.657.48-1.135 1.143-1.135h.68c.547 0 1.136.434 1.136 1.135 0 .627-.51 1.137-1.136 1.137z" class="cls-3" transform="translate(-1253.403 -2043.857)"/>
                    <path d="M1278.421 2064.449c-.46 0-.768.307-.768.76 0 .462.38.762.761.762h.687c.38 0 .761-.307.761-.762a.76.76 0 0 0-.76-.76h-.68m0-.75h.68c.832 0 1.51.677 1.51 1.51 0 .834-.678 1.512-1.51 1.512h-.688a1.513 1.513 0 0 1-1.51-1.512c0-.875.638-1.51 1.517-1.51z" class="cls-4" transform="translate(-1253.403 -2043.857)"/>
                </g>
            </g>
        </g>
    </g>
</svg>
