<svg xmlns="http://www.w3.org/2000/svg" id="notifications" width="32.189" height="37.87" viewBox="0 0 32.189 37.87">
    <defs>
        <style>
            .cls-1{fill:#fff}
        </style>
    </defs>
    <path id="Path_1580" d="M518.095 2047.811a3.8 3.8 0 0 0 3.787-3.787h-7.574a3.8 3.8 0 0 0 3.787 3.787zm12.308-13.04v-8.735a12.151 12.151 0 0 0-8.426-11.631 1.5 1.5 0 0 1-1.042-1.419 3.062 3.062 0 0 0-1.558-2.713 2.843 2.843 0 0 0-4.122 2.509v.2a1.5 1.5 0 0 1-1.042 1.419 12.152 12.152 0 0 0-8.425 11.631v8.735l-.774.45a6.047 6.047 0 0 0-3.013 5.231h32.189a6.047 6.047 0 0 0-3.013-5.231z" class="cls-1" data-name="Path 1580" transform="translate(-502 -2009.942)"/>
</svg>
