<svg xmlns="http://www.w3.org/2000/svg" id="Component_52_1" width="99" height="99" data-name="Component 52 – 1" viewBox="0 0 99 99">
    <defs>
        <style>
            .cls-1,.cls-4{fill:#72d3d3}.cls-2{fill:#fff}.cls-3,.cls-4{stroke:none}
        </style>
    </defs>
    <circle id="Ellipse_37" cx="49.5" cy="49.5" r="49.5" class="cls-1" data-name="Ellipse 37"/>
    <g id="Path_1584" class="cls-2" data-name="Path 1584">
        <path d="M36.855-.25h-6.83l-8.834-14.8a63.822 63.822 0 0 0-2.451-3.805c-.777-1.106-1.62-2.042-2.505-2.782a9.414 9.414 0 0 0-2.97-1.685c-1.076-.372-2.345-.56-3.773-.56H5.367v-4.852h7.758c1.35 0 2.654-.222 3.873-.66a11.282 11.282 0 0 0 3.296-1.837 11.104 11.104 0 0 0 2.478-2.837 11.788 11.788 0 0 0 1.457-3.652l.066-.303H5.367v-4.97h18.998l-.057-.296a10.696 10.696 0 0 0-1.06-3.06 7.127 7.127 0 0 0-2.104-2.388c-.893-.653-2.012-1.166-3.324-1.524-1.305-.355-2.871-.536-4.656-.536H5.367v-4.969h34.774v4.97H27.065l.316.403c.737.94 1.35 2.017 1.82 3.2.471 1.184.788 2.522.941 3.977l.024.224h9.975v4.969H29.985l-.036.206c-.536 3.063-1.81 5.708-3.786 7.863-1.976 2.155-4.518 3.661-7.556 4.478l-.185.05v.507l.143.067c.866.408 1.667.885 2.379 1.42a16.524 16.524 0 0 1 2.077 1.865c.666.705 1.336 1.53 1.99 2.454a72.17 72.17 0 0 1 2.121 3.192L36.855-.25z" class="cls-3" transform="translate(26.883 81.016)"/>
        <path d="M5.617-55.516v4.47h7.547c1.807 0 3.396.182 4.721.544 1.343.366 2.488.892 3.406 1.563a7.375 7.375 0 0 1 2.177 2.472c.504.94.869 1.993 1.086 3.131l.113.594H5.617v4.469h18.989l-.133.607a12.037 12.037 0 0 1-1.488 3.729 11.353 11.353 0 0 1-2.534 2.9c-.99.8-2.123 1.432-3.368 1.879a11.687 11.687 0 0 1-3.958.674H5.617v4.351h3.875c1.456 0 2.753.193 3.855.574a9.663 9.663 0 0 1 3.048 1.73c.902.754 1.76 1.706 2.55 2.83a64.073 64.073 0 0 1 2.46 3.82L30.168-.5h6.24L26.92-15.788a71.926 71.926 0 0 0-2.114-3.18 22.34 22.34 0 0 0-1.967-2.427 16.27 16.27 0 0 0-2.046-1.838 13.413 13.413 0 0 0-2.335-1.393l-.287-.135v-.857l.37-.1c2.991-.804 5.494-2.286 7.437-4.405 1.943-2.119 3.196-4.722 3.724-7.737l.072-.413h10.116v-4.47h-9.95l-.048-.447c-.15-1.432-.461-2.748-.924-3.91a12.664 12.664 0 0 0-1.784-3.138l-.634-.809h13.34v-4.469H5.617m-.5-.5h35.274v5.47H27.578c.755.963 1.374 2.05 1.856 3.26.481 1.212.8 2.56.957 4.044h10v5.469H30.195c-.547 3.125-1.83 5.787-3.847 7.988-2.019 2.2-4.577 3.717-7.676 4.55v.157c.885.417 1.693.898 2.422 1.445.729.547 1.432 1.179 2.11 1.895a22.731 22.731 0 0 1 2.01 2.48 72.081 72.081 0 0 1 2.13 3.203L37.304 0h-7.421l-8.906-14.922a63.27 63.27 0 0 0-2.442-3.789c-.768-1.094-1.588-2.005-2.46-2.734a9.123 9.123 0 0 0-2.891-1.64c-1.055-.366-2.286-.548-3.692-.548H5.117v-5.351h8.008a11.137 11.137 0 0 0 7.012-2.442 10.804 10.804 0 0 0 2.422-2.773 11.485 11.485 0 0 0 1.425-3.574H5.117v-5.47h18.945a10.399 10.399 0 0 0-1.035-2.987 6.848 6.848 0 0 0-2.03-2.305c-.873-.638-1.954-1.133-3.243-1.485-1.29-.351-2.82-.527-4.59-.527H5.117v-5.469z" class="cls-4" transform="translate(26.883 81.016)"/>
    </g>
</svg>
