<svg xmlns="http://www.w3.org/2000/svg" width="82.379" height="82.379" viewBox="0 0 82.379 82.379">
    <defs>
        <style>
            .cls-1{fill:#2a8c72}
        </style>
    </defs>
    <g id="Group_390" data-name="Group 390" transform="translate(-1008 -818)">
        <g id="gps-fixed" transform="translate(1008 818)">
            <path id="Path_1560" d="M1049.189 844.211a14.978 14.978 0 1 0 14.978 14.978 15.022 15.022 0 0 0-14.978-14.978zm33.327 11.234c-1.872-15.727-14.229-28.084-29.583-29.583V818h-7.488v7.863a32.767 32.767 0 0 0-29.583 29.583H1008v7.488h7.863c1.873 15.727 14.229 28.084 29.583 29.583v7.863h7.488v-7.863c15.727-1.873 28.084-14.229 29.583-29.583h7.863v-7.488zm-33.327 29.955a26.211 26.211 0 1 1 26.211-26.211 26.05 26.05 0 0 1-26.211 26.211z" class="cls-1" data-name="Path 1560" transform="translate(-1008 -818)"/>
        </g>
    </g>
</svg>
