<svg xmlns="http://www.w3.org/2000/svg" id="Component_103_1" width="44.969" height="44.969" data-name="Component 103 – 1" viewBox="0 0 44.969 44.969">
    <defs>
        <style>
            .cls-1{fill:#1774eb}
        </style>
    </defs>
    <path id="Path_70" d="M38.911 0H6.062A6.06 6.06 0 0 0 0 6.06v32.85a6.06 6.06 0 0 0 6.06 6.06h16.2l.028-16.07h-4.172a.985.985 0 0 1-.985-.981l-.02-5.18a.985.985 0 0 1 .985-.989h4.167v-5.005c0-5.808 3.547-8.971 8.729-8.971h4.252a.985.985 0 0 1 .985.985v4.368a.985.985 0 0 1-.985.985h-2.609c-2.818 0-3.363 1.339-3.363 3.3v4.338h6.192a.985.985 0 0 1 .978 1.1l-.614 5.18a.985.985 0 0 1-.978.869H29.3l-.028 16.07h9.64a6.06 6.06 0 0 0 6.06-6.06V6.06A6.06 6.06 0 0 0 38.911 0z" class="cls-1" data-name="Path 70" transform="translate(-.002)"/>
</svg>
