<svg xmlns="http://www.w3.org/2000/svg" id="Component_2_1" width="68.969" height="68.969" data-name="Component 2 – 1" viewBox="0 0 68.969 68.969">
    <defs>
        <style>
            .cls-1{fill:#fff}
        </style>
    </defs>
    <path id="Path_70" d="M59.677 0H9.3A9.294 9.294 0 0 0 0 9.294v50.381a9.294 9.294 0 0 0 9.3 9.294h24.843l.042-24.646h-6.4a1.511 1.511 0 0 1-1.511-1.5l-.031-7.944a1.511 1.511 0 0 1 1.511-1.517h6.391v-7.681c0-8.908 5.441-13.759 13.387-13.759h6.521a1.511 1.511 0 0 1 1.511 1.511v6.7a1.511 1.511 0 0 1-1.51 1.511h-4c-4.322 0-5.159 2.054-5.159 5.067v6.646h9.5a1.511 1.511 0 0 1 1.5 1.689l-.942 7.944a1.511 1.511 0 0 1-1.5 1.333h-8.518l-.042 24.646h14.784a9.294 9.294 0 0 0 9.294-9.294V9.294A9.294 9.294 0 0 0 59.677 0z" class="cls-1" data-name="Path 70" transform="translate(-.002)"/>
</svg>
