<svg id="icon-captain" xmlns="http://www.w3.org/2000/svg" width="44" height="44" viewBox="0 0 44 44">
  <g id="Ellipse_30" data-name="Ellipse 30" fill="none">
    <path d="M22,0A22,22,0,1,1,0,22,22,22,0,0,1,22,0Z" stroke="none"/>
    <path d="M 22 3 C 16.9249095916748 3 12.15358924865723 4.976341247558594 8.564968109130859 8.564968109130859 C 4.976341247558594 12.15358924865723 3 16.9249095916748 3 22 C 3 27.07508087158203 4.976341247558594 31.84640121459961 8.564968109130859 35.43502807617188 C 12.15360069274902 39.02365112304688 16.9249095916748 41 22 41 C 27.07508087158203 41 31.84640121459961 39.02365112304688 35.43502807617188 35.43502807617188 C 39.02365112304688 31.84640121459961 41 27.07508087158203 41 22 C 41 16.9249095916748 39.02365112304688 12.15360069274902 35.43502807617188 8.564968109130859 C 31.84640121459961 4.976341247558594 27.07508087158203 3 22 3 M 22 0 C 34.15026092529297 0 44 9.8497314453125 44 22 C 44 34.15026092529297 34.15026092529297 44 22 44 C 9.8497314453125 44 0 34.15026092529297 0 22 C 0 9.8497314453125 9.8497314453125 0 22 0 Z" stroke="none" fill="#fff"/>
  </g>
  <text id="C" transform="translate(12 32)" fill="#fff" font-size="29" font-family="ArialMT, Arial"><tspan x="0" y="0">C</tspan></text>
</svg>
