<svg xmlns="http://www.w3.org/2000/svg" width="1005.04" height="1115.793" viewBox="0 0 1005.04 1115.793">
    <defs>
        <style>
            .cls-1{fill:#c5fffd}.cls-2{fill:#173e3e;opacity:.04}.cls-3{fill:#72d3d3}.cls-10,.cls-13,.cls-16,.cls-17,.cls-4,.cls-5,.cls-7,.cls-9{fill:none}.cls-16,.cls-4,.cls-5{stroke:#5cb7b5}.cls-10,.cls-16,.cls-4,.cls-5,.cls-7,.cls-9{stroke-linecap:round;stroke-miterlimit:10}.cls-4{stroke-width:3px}.cls-5{stroke-width:1.4px}.cls-6{fill:#29bd53}.cls-7{stroke:#2a8c72}.cls-7,.cls-9{stroke-width:4px}.cls-8{fill:#82ceb7}.cls-10,.cls-9{stroke:#57a38b}.cls-10{stroke-width:2px}.cls-11{fill:#d5ebea}.cls-12{fill:#5cb7b5}.cls-13{stroke:#bcdbd3;stroke-width:10px}.cls-14{fill:#db5858}.cls-15{fill:#2a8c72}.cls-16{stroke-width:5px}.cls-17{stroke:#fff;stroke-width:6px}
        </style>
    </defs>
    <g id="Group_369" data-name="Group 369" transform="translate(-89 -225)">
        <g id="Group_365" data-name="Group 365" transform="translate(166 300.494)">
            <path id="Path_389" d="M927.511 1220.174l132.93-115.874a24.688 24.688 0 0 0-15.676-5.711h-259.4a24.652 24.652 0 0 0-15.686 5.721l132.941 115.864c6.754 5.871 18.137 5.871 24.891 0z" class="cls-1" data-name="Path 389" transform="translate(-760.433 -1098.587)"/>
            <path id="Path_390" d="M942.835 1215.967a30.341 30.341 0 0 1-38.748.053l-132.645-115.558a24.475 24.475 0 0 0-2.641 10.921v169.993a24.941 24.941 0 0 0 24.934 24.935h259.4a24.947 24.947 0 0 0 24.934-24.935v-169.993a24.609 24.609 0 0 0-2.651-10.952z" class="cls-1" data-name="Path 390" transform="translate(-768.801 -1081.031)"/>
        </g>
        <ellipse id="Ellipse_10" cx="435.402" cy="31.522" class="cls-2" data-name="Ellipse 10" rx="435.402" ry="31.522" transform="translate(223.236 1277.749)"/>
        <g id="Group_349" data-name="Group 349" transform="rotate(-23 2834.966 82.883)">
            <path id="Path_332" d="M500.31 1322.482s-10.034-21.4-4.046-43.966 13.849-33.432 13.849-33.432 29.124 16.943 19.206 44.94-25.976 36.873-25.976 36.873z" class="cls-3" data-name="Path 332" transform="translate(-424.306 -1227.966)"/>
            <path id="Path_333" d="M519.92 1315.656s-24.147-2.732-32.953-27.73a88.729 88.729 0 0 1-2.822-47.566s28.375 12.259 36.808 34.917-1.033 40.379-1.033 40.379z" class="cls-3" data-name="Path 333" transform="translate(-456.302 -1240.359)"/>
            <path id="Path_334" d="M548.52 1276.681s-24.292-18.616-50.04-14.486-23.4 3.749-23.4 3.749 11.056 39.043 43.451 31.45 36.7-10.683 36.7-10.683z" class="cls-3" data-name="Path 334" transform="translate(-475.02 -1184.664)"/>
            <path id="Path_335" d="M497.059 1316.6s12.443-34.291 8.918-67.294" class="cls-4" data-name="Path 335" transform="translate(-417.223 -1216.894)"/>
            <path id="Path_336" d="M507.886 1332.536s-10.034-21.4-4.046-43.966 13.849-33.432 13.849-33.432 29.125 16.942 19.206 44.94-25.977 36.873-25.977 36.873z" class="cls-3" data-name="Path 336" transform="translate(-404.439 -1201.602)"/>
            <path id="Path_337" d="M504.635 1326.655s12.443-34.291 8.918-67.294" class="cls-4" data-name="Path 337" transform="translate(-397.355 -1190.531)"/>
            <path id="Path_338" d="M516.441 1340.446s-10.031-21.4-4.043-43.969 13.848-33.431 13.848-33.431 29.124 16.942 19.206 44.94-25.977 36.876-25.977 36.876z" class="cls-3" data-name="Path 338" transform="translate(-381.996 -1180.867)"/>
            <path id="Path_339" d="M513.192 1334.562s12.447-34.29 8.918-67.295" class="cls-5" data-name="Path 339" transform="translate(-374.915 -1169.795)"/>
            <path id="Path_340" d="M545.109 1275.566s-43.053 3.481-66.678-10.907" class="cls-4" data-name="Path 340" transform="translate(-466.074 -1176.634)"/>
            <path id="Path_341" d="M556.1 1286.734s-24.292-18.615-50.04-14.486-23.4 3.75-23.4 3.75 11.059 39.043 43.451 31.45 36.7-10.682 36.7-10.682z" class="cls-3" data-name="Path 341" transform="translate(-455.152 -1158.3)"/>
            <path id="Path_342" d="M552.685 1285.619s-43.053 3.481-66.678-10.907" class="cls-4" data-name="Path 342" transform="translate(-446.206 -1150.27)"/>
            <path id="Path_343" d="M564.636 1290.341s-27.1-14.214-51.772-5.774l-22.43 7.672s17.533 36.6 48.164 23.611 34.355-16.765 34.355-16.765z" class="cls-3" data-name="Path 343" transform="translate(-434.735 -1131.447)"/>
            <path id="Path_344" d="M561.621 1285.845s-41.836 10.745-67.562.58" class="cls-4" data-name="Path 344" transform="translate(-425.09 -1121.075)"/>
            <path id="Path_345" d="M661 1416.813s-89.992 19.071-176-170.777" class="cls-4" data-name="Path 345" transform="translate(-448.836 -1225.472)"/>
        </g>
        <g id="Group_350" data-name="Group 350" transform="translate(238.755 872.925)">
            <path id="Path_346" d="M523.167 1323.408s-9.962-34.714 4.528-67.316 28.98-47.092 28.98-47.092 39.847 32.6 18.112 72.449-48.109 49.356-48.109 49.356z" class="cls-6" data-name="Path 346" transform="translate(-408.069 -1165.531)"/>
            <path id="Path_347" d="M548.485 1319.257s-35.772-9.962-43.017-49.808 7.246-72.449 7.246-72.449 39.847 25.357 47.092 61.582-11.321 60.675-11.321 60.675z" class="cls-6" data-name="Path 347" transform="translate(-451.046 -1197)"/>
            <path id="Path_348" d="M597.282 1262.961s-32.149-33.961-72-33.961h-36.22s7.245 61.582 57.959 57.959 57.959-7.245 57.959-7.245z" class="cls-6" data-name="Path 348" transform="translate(-488.976 -1113.082)"/>
            <path id="Path_349" d="M521 1299.694s28.979-36.225 32.6-79.694" class="cls-7" data-name="Path 349" transform="translate(-404.996 -1136.684)"/>
            <path id="Path_350" d="M531.167 1339.408s-9.962-34.714 4.528-67.316 28.98-47.092 28.98-47.092 39.847 32.6 18.112 72.449-48.11 49.356-48.11 49.356z" class="cls-8" data-name="Path 350" transform="translate(-387.09 -1123.572)"/>
            <path id="Path_351" d="M530 1330.942s27.071-48.726 29.729-99.375" class="cls-9" data-name="Path 351" transform="translate(-381.394 -1106.35)"/>
            <path id="Path_352" d="M542.167 1353.408s-9.962-34.714 4.528-67.316 28.98-47.092 28.98-47.092 39.847 32.6 18.112 72.449-48.11 49.356-48.11 49.356z" class="cls-8" data-name="Path 352" transform="translate(-358.243 -1086.858)"/>
            <path id="Path_353" d="M541 1344.941s27.071-48.725 29.729-99.374" class="cls-10" data-name="Path 353" transform="translate(-352.548 -1069.636)"/>
            <path id="Path_354" d="M583.128 1259.2s-52.062-4.082-86.207-24.281" class="cls-7" data-name="Path 354" transform="translate(-468.142 -1097.552)"/>
            <path id="Path_355" d="M606.283 1279.96s-32.149-33.96-72-33.96h-36.221s7.245 61.582 57.959 57.959 57.959-7.245 57.959-7.245z" class="cls-6" data-name="Path 355" transform="translate(-465.375 -1068.501)"/>
            <path id="Path_356" d="M593.135 1276.812s-53.5-4.195-87.6-25.122" class="cls-7" data-name="Path 356" transform="translate(-445.547 -1053.579)"/>
            <path id="Path_357" d="M619.346 1286.133s-37.452-28-76.72-21.234l-35.7 6.155s17.6 59.455 66.964 47.269 55.883-16.99 55.883-16.99z" class="cls-6" data-name="Path 357" transform="translate(-442.112 -1021.71)"/>
            <path id="Path_395" d="M87.6 25.122S34.1 20.927 0 0" class="cls-7" data-name="Path 395" transform="rotate(-14 1118.935 -253.928)"/>
            <path id="Path_359" d="M731.367 1502.8s-138.892 6.944-222.9-295.323" class="cls-7" data-name="Path 359" transform="translate(-437.863 -1169.533)"/>
        </g>
        <g id="Group_360" data-name="Group 360" transform="translate(380 424)">
            <path id="Rectangle_58" d="M0 0h482.545v646.676H0z" class="cls-11" data-name="Rectangle 58" transform="translate(0 90.272)"/>
            <path id="Path_379" d="M960.647 1142H591.9a56.9 56.9 0 0 0-56.9 56.9v33.375h482.545V1198.9a56.9 56.9 0 0 0-56.898-56.9zM809.1 1206.011h-65.654a16.413 16.413 0 0 1 0-32.826H809.1a16.413 16.413 0 0 1 0 32.826z" class="cls-12" data-name="Path 379" transform="translate(-535 -1142)"/>
            <path id="Path_380" d="M535 1366.5v82.613a56.9 56.9 0 0 0 56.9 56.9h368.75a56.9 56.9 0 0 0 56.9-56.9V1366.5zm241.273 111.609a39.391 39.391 0 1 1 39.391-39.391 39.393 39.393 0 0 1-39.391 39.391z" class="cls-12" data-name="Path 380" transform="translate(-535 -629.552)"/>
            <path id="Line_14" d="M0 0h353" class="cls-13" data-name="Line 14" transform="translate(64.5 151.385)"/>
            <path id="Line_15" d="M0 0h353" class="cls-13" data-name="Line 15" transform="translate(64.5 206.385)"/>
            <path id="Line_16" d="M0 0h353" class="cls-13" data-name="Line 16" transform="translate(64.5 316.385)"/>
            <path id="Path_394" d="M140.682 0H353" class="cls-13" data-name="Path 394" transform="translate(64.5 261.385)"/>
            <circle id="Ellipse_19" cx="14" cy="14" r="14" class="cls-14" data-name="Ellipse 19" transform="translate(64 247.885)"/>
            <circle id="Ellipse_20" cx="14" cy="14" r="14" class="cls-6" data-name="Ellipse 20" transform="translate(97 247.885)"/>
            <circle id="Ellipse_21" cx="14" cy="14" r="14" class="cls-14" data-name="Ellipse 21" transform="translate(97 247.885)"/>
            <circle id="Ellipse_22" cx="14" cy="14" r="14" class="cls-14" data-name="Ellipse 22" transform="translate(130 247.885)"/>
            <circle id="Ellipse_23" cx="14" cy="14" r="14" class="cls-14" data-name="Ellipse 23" transform="translate(163 247.885)"/>
        </g>
        <g id="Group_359" data-name="Group 359" transform="translate(949.151 1064)">
            <g id="Group_351" data-name="Group 351" transform="translate(49.239 93.739)">
                <path id="Path_360" d="M758.916 1367.5c-37.442-7.611-46.916 33.33-46.916 33.33l3.066 12.257c24.2-14.774 40.416-39.939 43.85-45.587z" class="cls-6" data-name="Path 360" transform="translate(-712 -1366.56)"/>
                <path id="Path_361" d="M756.783 1366.848c-3.434 5.643-19.65 30.808-43.849 45.583l.217.873c49.239 9.848 45.956-45.957 45.956-45.957-.791-.197-1.552-.342-2.324-.499z" class="cls-15" data-name="Path 361" transform="translate(-709.868 -1365.904)"/>
            </g>
            <g id="Group_352" data-name="Group 352" transform="translate(0 93.739)">
                <path id="Path_362" d="M697.721 1367.5c37.442-7.616 46.919 33.325 46.919 33.325l-3.066 12.257c-24.2-14.769-40.416-39.934-43.853-45.582z" class="cls-6" data-name="Path 362" transform="translate(-695.355 -1366.56)"/>
                <path id="Path_363" d="M699.367 1366.848c3.437 5.643 19.653 30.808 43.853 45.583l-.217.873c-49.239 9.848-45.957-45.957-45.957-45.957.791-.197 1.554-.342 2.321-.499z" class="cls-15" data-name="Path 363" transform="translate(-697 -1365.904)"/>
            </g>
            <g id="Group_353" data-name="Group 353" transform="translate(49.242 52.509)">
                <path id="Path_364" d="M749.791 1354.761C719.633 1348.626 712 1381.6 712 1381.6l2.469 9.874c19.493-11.903 32.554-32.174 35.322-36.713z" class="cls-6" data-name="Path 364" transform="translate(-712.001 -1354)"/>
                <path id="Path_365" d="M748.074 1354.232c-2.767 4.543-15.829 24.81-35.321 36.713l.177.7c39.657 7.931 37.015-37.015 37.015-37.015-.64-.159-1.254-.274-1.871-.398z" class="cls-15" data-name="Path 365" transform="translate(-710.285 -1353.471)"/>
            </g>
            <g id="Group_354" data-name="Group 354" transform="translate(9.585 52.509)">
                <path id="Path_366" d="M700.5 1354.761c30.157-6.135 37.786 26.839 37.786 26.839l-2.465 9.874c-19.491-11.903-32.553-32.174-35.321-36.713z" class="cls-6" data-name="Path 366" transform="translate(-698.594 -1354)"/>
                <path id="Path_367" d="M701.827 1354.232c2.767 4.543 15.829 24.81 35.321 36.713l-.177.7c-39.657 7.931-37.015-37.015-37.015-37.015.644-.159 1.254-.274 1.871-.398z" class="cls-15" data-name="Path 367" transform="translate(-699.92 -1353.471)"/>
            </g>
            <g id="Group_355" data-name="Group 355" transform="translate(49.249 21.405)">
                <path id="Path_368" d="M740.119 1345.091c-22.437-4.563-28.116 19.971-28.116 19.971l1.835 7.346c14.503-8.856 24.223-23.936 26.281-27.317z" class="cls-6" data-name="Path 368" transform="translate(-712.003 -1344.525)"/>
                <path id="Path_369" d="M738.843 1344.7c-2.058 3.381-11.778 18.461-26.281 27.317l.131.522c29.507 5.9 27.541-27.541 27.541-27.541-.475-.12-.934-.206-1.391-.298z" class="cls-15" data-name="Path 369" transform="translate(-710.727 -1344.132)"/>
            </g>
            <g id="Group_356" data-name="Group 356" transform="translate(19.74 21.405)">
                <path id="Path_370" d="M703.446 1345.091c22.437-4.563 28.115 19.971 28.115 19.971l-1.835 7.346c-14.502-8.856-24.226-23.936-26.28-27.317z" class="cls-6" data-name="Path 370" transform="translate(-702.027 -1344.525)"/>
                <path id="Path_371" d="M704.433 1344.7c2.058 3.381 11.778 18.461 26.281 27.317l-.131.522c-29.508 5.9-27.541-27.541-27.541-27.541.475-.12.931-.206 1.391-.298z" class="cls-15" data-name="Path 371" transform="translate(-703.014 -1344.132)"/>
            </g>
            <g id="Group_357" data-name="Group 357" transform="translate(49.252)">
                <path id="Path_372" d="M730.741 1338.382c-14.952-3.043-18.737 13.307-18.737 13.307l1.224 4.894c9.665-5.901 16.141-15.949 17.513-18.201z" class="cls-6" data-name="Path 372" transform="translate(-712.004 -1338.004)"/>
                <path id="Path_373" d="M729.89 1338.119c-1.372 2.252-7.849 12.3-17.513 18.2l.089.348c19.663 3.932 18.35-18.354 18.35-18.354-.316-.076-.616-.132-.926-.194z" class="cls-15" data-name="Path 373" transform="translate(-711.153 -1337.742)"/>
            </g>
            <g id="Group_358" data-name="Group 358" transform="translate(29.587)">
                <path id="Path_374" d="M706.3 1338.382c14.952-3.043 18.737 13.307 18.737 13.307l-1.224 4.894c-9.662-5.901-16.139-15.949-17.513-18.201z" class="cls-6" data-name="Path 374" transform="translate(-705.355 -1338.004)"/>
                <path id="Path_375" d="M706.961 1338.119c1.372 2.252 7.849 12.3 17.513 18.2l-.089.348c-19.663 3.932-18.353-18.354-18.353-18.354.318-.076.62-.132.929-.194z" class="cls-15" data-name="Path 375" transform="translate(-706.014 -1337.742)"/>
            </g>
            <path id="Line_10" d="M0 147.718V0" class="cls-16" data-name="Line 10" transform="translate(49.239 13.117)"/>
            <path id="Path_376" d="M784.812 1388h-85.9l16.687 72.218h52.522z" class="cls-15" data-name="Path 376" transform="translate(-692.626 -1223.882)"/>
            <path id="Rectangle_57" d="M0 0h91.913v6.565H0z" class="cls-6" data-name="Rectangle 57" transform="translate(3.282 157.553)"/>
        </g>
        <g id="Component_32_3" data-name="Component 32 – 3" transform="translate(89 906)">
            <circle id="Ellipse_11" cx="32.5" cy="32.5" r="32.5" class="cls-6" data-name="Ellipse 11"/>
            <path id="Path_391" d="M7.325 0l7.31 30.321L0 33.6" class="cls-17" data-name="Path 391" transform="rotate(60 7.288 46.617)"/>
        </g>
        <ellipse id="Ellipse_12" cx="14.5" cy="14" class="cls-3" data-name="Ellipse 12" rx="14.5" ry="14" transform="translate(1058 1062)"/>
        <circle id="Ellipse_18" cx="14" cy="14" r="14" class="cls-3" data-name="Ellipse 18" transform="translate(126 611)"/>
        <circle id="Ellipse_13" cx="9.5" cy="9.5" r="9.5" class="cls-3" data-name="Ellipse 13" transform="translate(929 423)"/>
        <circle id="Ellipse_17" cx="14" cy="14" r="14" class="cls-1" data-name="Ellipse 17" transform="translate(943 902)"/>
        <circle id="Ellipse_15" cx="14" cy="14" r="14" class="cls-3" data-name="Ellipse 15" transform="translate(220 819)"/>
        <circle id="Ellipse_16" cx="7.5" cy="7.5" r="7.5" class="cls-3" data-name="Ellipse 16" transform="translate(198 955)"/>
        <circle id="Ellipse_18-2" cx="14" cy="14" r="14" class="cls-1" data-name="Ellipse 18" transform="translate(543 225)"/>
    </g>
</svg>
