<svg xmlns="http://www.w3.org/2000/svg" id="Component_21_1" width="142.282" height="161.714" data-name="Component 21 – 1" viewBox="0 0 142.282 161.714">
    <defs>
        <style>
            .cls-1{fill:#f8c79c}.cls-2{fill:#29bd53}.cls-3{fill:#d4a77f}.cls-4{fill:#269846}.cls-5{fill:#2a2a2a}
        </style>
    </defs>
    <path id="Path_307" d="M344.44 153.369h-3.234v19.4h3.234a9.7 9.7 0 0 0 0-19.4z" class="cls-1" data-name="Path 307" transform="translate(-237.728 -95.163)"/>
    <path id="Path_308" d="M136.715 163.071a9.7 9.7 0 0 0 9.7 9.7h3.234v-19.4h-3.234a9.7 9.7 0 0 0-9.7 9.7z" class="cls-1" data-name="Path 308" transform="translate(-110.846 -95.164)"/>
    <path id="Path_309" d="M222.467 63.495l3.816-19.628a13.68 13.68 0 0 0-11.227-15.754 13.941 13.941 0 0 0-2.289-.187 14.2 14.2 0 0 0-13.452-9.7h-38.288l-6.467-9.7-3.234 3.234a22.863 22.863 0 0 0-.006 32.33s0 .006.006.006h58.206z" data-name="Path 309" transform="translate(-115.756 -5.289)"/>
    <path id="Path_310" d="M190.445 344.648L167 341.415l-22.021 12.708-22.021-12.579-23.444 3.234a25.87 25.87 0 0 0-22.442 25.514v3.264h135.815v-3.264a25.873 25.873 0 0 0-22.442-25.644z" class="cls-2" data-name="Path 310" transform="translate(-73.838 -211.841)"/>
    <path id="Path_311" d="M242.02 304.167l-2.619-.356v-22.635H200.6v22.635l-2.619.356L220 316.746z" class="cls-1" data-name="Path 311" transform="translate(-148.857 -174.465)"/>
    <path id="Path_312" d="M243.683 299.091v-17.915h-38.8v17.915c14.547 6.309 24.249 6.309 38.8 0z" class="cls-3" data-name="Path 312" transform="translate(-153.14 -174.465)"/>
    <path id="Path_313" d="M77.072 380.918v3.264h12.935v-25.641a25.863 25.863 0 0 0-12.935 22.377z" class="cls-4" data-name="Path 313" transform="translate(-73.838 -222.468)"/>
    <path id="Path_314" d="M233.417 121.648v18.432a53.7 53.7 0 0 1-6.759 26.064 32.955 32.955 0 0 1-28.812 16.945 32.954 32.954 0 0 1-28.812-16.945 53.7 53.7 0 0 1-6.759-26.064v-37.834h58.206z" class="cls-1" data-name="Path 314" transform="translate(-126.706 -63.442)"/>
    <path id="Path_315" d="M175.211 102.247h-12.935v37.834a53.7 53.7 0 0 0 6.759 26.064 32.71 32.71 0 0 0 14.1 13.388c-11.158-32.014-7.924-77.286-7.924-77.286z" class="cls-3" data-name="Path 315" transform="translate(-126.706 -63.443)"/>
    <path id="Path_316" d="M145.336 45.331a22.792 22.792 0 0 0 6.015 21.6h51.739c-36.735.001-51.74-12.931-57.754-21.6z" class="cls-5" data-name="Path 316" transform="translate(-115.78 -28.128)"/>
    <path id="Path_317" d="M344.44 170.718h-3.234v-6.468h3.234a6.467 6.467 0 0 0 0-12.935h-3.234v-6.467h3.234a12.935 12.935 0 1 1 0 25.87z" data-name="Path 317" transform="translate(-237.728 -89.876)"/>
    <path id="Path_318" d="M144.363 170.718h-3.233a12.935 12.935 0 1 1 0-25.87h3.234v6.467h-3.234a6.467 6.467 0 1 0 0 12.935h3.234z" data-name="Path 318" transform="translate(-105.559 -89.876)"/>
    <path id="Path_319" d="M192.562 181.037h-.019a36.2 36.2 0 0 1-31.629-18.61 57.05 57.05 0 0 1-7.166-27.628V96.962a3.235 3.235 0 0 1 3.234-3.234h58.206a3.238 3.238 0 0 1 2.69 1.439l12.935 19.4a3.242 3.242 0 0 1 .543 1.795V134.8a57.112 57.112 0 0 1-7.166 27.632 36.2 36.2 0 0 1-31.628 18.605zm-.01-6.467h.006a29.736 29.736 0 0 0 25.979-15.282 50.609 50.609 0 0 0 6.351-24.5V117.34l-11.431-17.14h-53.239v34.6a50.593 50.593 0 0 0 6.351 24.492 29.728 29.728 0 0 0 25.976 15.282z" data-name="Path 319" transform="translate(-121.414 -58.157)"/>
    <path id="Path_321" d="M220.385 61.976l-6.38-1.064 3.816-22.862a10.446 10.446 0 0 0-8.573-12.032 8.712 8.712 0 0 0-1.75-.142h-.006a3.228 3.228 0 0 1-3.065-2.208 10.96 10.96 0 0 0-10.39-7.5h-38.28a3.238 3.238 0 0 1-2.69-1.439l-4.281-6.419-.446.443a19.631 19.631 0 0 0 0 27.758l-4.569 4.579a26.127 26.127 0 0 1 0-36.909L147 .951a3.234 3.234 0 0 1 4.976.491l5.51 8.262h36.557a17.42 17.42 0 0 1 15.683 9.843c.2.026.394.055.6.087A16.909 16.909 0 0 1 224.2 39.115z" data-name="Path 321" transform="translate(-110.485 -.002)"/>
    <path id="Path_322" d="M75.019 346.751h-6.467v-3.264A29.2 29.2 0 0 1 93.8 314.64l23.257-3.088v-13.336h6.467v16.168a3.233 3.233 0 0 1-2.807 3.2l-26.063 3.46a22.708 22.708 0 0 0-19.635 22.435z" data-name="Path 322" transform="translate(-68.552 -185.037)"/>
    <path id="Path_323" d="M353.576 346.756h-6.467v-3.264a22.7 22.7 0 0 0-19.638-22.435l-26.06-3.46a3.233 3.233 0 0 1-2.807-3.2v-16.173h6.467v13.336l23.253 3.088a29.2 29.2 0 0 1 25.252 28.852v3.261z" data-name="Path 323" transform="translate(-211.294 -185.042)"/>
    <path id="Rectangle_47" d="M0 0h6.467v9.716H0z" data-name="Rectangle 47" transform="translate(25.882 151.998)"/>
    <path id="Rectangle_48" d="M0 0h6.467v9.716H0z" data-name="Rectangle 48" transform="translate(109.959 151.998)"/>
    <path id="Path_324" d="M216.372 352.4a3.229 3.229 0 0 1-1.6-.427l-22.636-12.935 3.208-5.613 21.032 12.019 21.024-12.022 3.208 5.613-22.632 12.935a3.225 3.225 0 0 1-1.604.43z" data-name="Path 324" transform="translate(-145.231 -206.882)"/>
</svg>
