<svg xmlns="http://www.w3.org/2000/svg" width="780" height="930.504" viewBox="0 0 780 930.504">
    <defs>
        <style>
            .cls-1{fill:#72d3d3}.cls-17,.cls-2,.cls-3,.cls-5,.cls-7,.cls-8{fill:none}.cls-2,.cls-3{stroke:#5cb7b5}.cls-2,.cls-3,.cls-5,.cls-7,.cls-8{stroke-linecap:round;stroke-miterlimit:10}.cls-2{stroke-width:3px}.cls-3{stroke-width:1.4px}.cls-4{fill:#29bd53}.cls-5{stroke:#2a8c72}.cls-5,.cls-7{stroke-width:4px}.cls-6{fill:#82ceb7}.cls-7,.cls-8{stroke:#57a38b}.cls-8{stroke-width:2px}.cls-9{fill:#2a8c72}.cls-10{fill:#d5ebea}.cls-11{fill:#d8efee}.cls-12{fill:#fff}.cls-13{fill:#f6f6f6}.cls-14{fill:#f5f7f7}.cls-15{fill:#575756}.cls-16{fill:#db5858}.cls-17{stroke:#fff;stroke-width:6px}
        </style>
    </defs>
    <g id="Group_374" data-name="Group 374" transform="translate(-562.373 -630.885)">
        <g id="Group_349" data-name="Group 349" transform="rotate(-172 701.146 722.216)">
            <path id="Path_332" d="M5.952 4.416s-10.034 21.4-4.046 43.966 13.849 33.431 13.849 33.431 29.124-16.943 19.206-44.94S8.984 0 8.984 0z" class="cls-1" data-name="Path 332" transform="translate(70.051 92.942)"/>
            <path id="Path_333" d="M37.763 0S13.616 2.732 4.81 27.73A88.729 88.729 0 0 0 1.988 75.3S30.362 63.038 38.8 40.38 37.763 0 37.763 0z" class="cls-1" data-name="Path 333" transform="translate(25.856 116.578)"/>
            <path id="Path_334" d="M73.5 21.693S49.208 40.309 23.46 36.179.056 32.43.056 32.43 11.111-6.613 43.507.98s36.7 10.683 36.7 10.683z" class="cls-1" data-name="Path 334" transform="translate(0 78.165)"/>
            <path id="Path_335" d="M0 0s12.443 34.291 8.918 67.294" class="cls-2" data-name="Path 335" transform="translate(79.836 92.167)"/>
            <path id="Path_336" d="M5.952 4.416s-10.034 21.4-4.046 43.966 13.848 33.431 13.848 33.431 29.125-16.942 19.206-44.94S8.984 0 8.984 0z" class="cls-1" data-name="Path 336" transform="translate(97.495 56.526)"/>
            <path id="Path_337" d="M0 0s12.443 34.291 8.918 67.294" class="cls-2" data-name="Path 337" transform="translate(107.28 55.751)"/>
            <path id="Path_338" d="M5.949 4.415s-10.031 21.4-4.043 43.969 13.849 33.432 13.849 33.432 29.124-16.942 19.206-44.94S8.985 0 8.985 0z" class="cls-1" data-name="Path 338" transform="translate(128.495 27.88)"/>
            <path id="Path_339" d="M0 0s12.447 34.29 8.918 67.295" class="cls-3" data-name="Path 339" transform="translate(138.277 27.108)"/>
            <path id="Path_340" d="M66.678.37S23.626-3.111 0 11.277" class="cls-2" data-name="Path 340" transform="translate(12.357 92.572)"/>
            <path id="Path_341" d="M73.5 21.693S49.208 40.308 23.46 36.179.055 32.43.055 32.43 11.115-6.613 43.506.98s36.7 10.682 36.7 10.682z" class="cls-1" data-name="Path 341" transform="translate(27.444 41.749)"/>
            <path id="Path_342" d="M66.678.37S23.626-3.111 0 11.278" class="cls-2" data-name="Path 342" transform="translate(39.801 56.156)"/>
            <path id="Path_343" d="M74.255 28.3s-27.1 14.214-51.772 5.774L.053 26.4S17.586-10.2 48.217 2.788s34.355 16.765 34.355 16.765z" class="cls-1" data-name="Path 343" transform="translate(55.647 4.683)"/>
            <path id="Path_344" d="M67.562 4.952S25.727-5.792 0 4.372" class="cls-2" data-name="Path 344" transform="translate(68.969 22.153)"/>
            <path id="Path_345" d="M175.992.534S86-18.538 0 171.31" class="cls-2" data-name="Path 345" transform="translate(36.168)"/>
        </g>
        <g id="Group_350" data-name="Group 350" transform="rotate(-14.98 5014.47 -2937.989)">
            <path id="Path_346" d="M577.935 1323.408s9.962-34.714-4.528-67.316S544.428 1209 544.428 1209s-39.847 32.6-18.112 72.449 48.109 49.356 48.109 49.356z" class="cls-4" data-name="Path 346" transform="translate(-399.53 -1165.531)"/>
            <path id="Path_347" d="M516.438 1319.257s35.772-9.962 43.016-49.808-7.245-72.449-7.245-72.449-39.847 25.357-47.092 61.582 11.321 60.675 11.321 60.675z" class="cls-4" data-name="Path 347" transform="translate(-320.374 -1197)"/>
            <path id="Path_348" d="M496.674 1262.961s32.149-33.961 72-33.961h36.224s-7.245 61.582-57.959 57.959-57.959-7.245-57.959-7.245z" class="cls-4" data-name="Path 348" transform="translate(-311.477 -1113.082)"/>
            <path id="Path_349" d="M553.6 1299.694S524.623 1263.469 521 1220" class="cls-5" data-name="Path 349" transform="translate(-376.103 -1136.684)"/>
            <path id="Path_350" d="M585.935 1339.407s9.962-34.714-4.528-67.316-28.98-47.091-28.98-47.091-39.847 32.6-18.112 72.449 48.11 49.356 48.11 49.356z" class="cls-6" data-name="Path 350" transform="translate(-436.51 -1123.572)"/>
            <path id="Path_351" d="M559.729 1330.942s-27.07-48.726-29.729-99.375" class="cls-7" data-name="Path 351" transform="translate(-414.832 -1106.35)"/>
            <path id="Path_352" d="M596.935 1353.408s9.962-34.714-4.528-67.316S563.428 1239 563.428 1239s-39.847 32.6-18.112 72.449 48.11 49.356 48.11 49.356z" class="cls-6" data-name="Path 352" transform="translate(-487.356 -1086.858)"/>
            <path id="Path_353" d="M570.729 1344.941s-27.07-48.725-29.729-99.374" class="cls-8" data-name="Path 353" transform="translate(-465.678 -1069.636)"/>
            <path id="Path_354" d="M496.921 1259.2s52.062-4.082 86.207-24.281" class="cls-5" data-name="Path 354" transform="translate(-318.404 -1097.552)"/>
            <path id="Path_355" d="M505.674 1279.96s32.149-33.96 72-33.96h36.224s-7.245 61.582-57.959 57.959-57.959-7.245-57.959-7.245z" class="cls-4" data-name="Path 355" transform="translate(-353.079 -1068.5)"/>
            <path id="Path_356" d="M505.537 1276.812s53.5-4.195 87.6-25.122" class="cls-5" data-name="Path 356" transform="translate(-359.622 -1053.579)"/>
            <path id="Path_357" d="M517.279 1286.133s37.452-28 76.72-21.234l35.7 6.155s-17.6 59.455-66.964 47.269-55.883-16.99-55.883-16.99z" class="cls-4" data-name="Path 357" transform="translate(-401.01 -1021.71)"/>
            <path id="Path_395" d="M87.6 0S34.1 4.195 0 25.122" class="cls-5" data-name="Path 395" transform="rotate(-166 114.03 131.93)"/>
            <path id="Path_359" d="M508.467 1502.8s138.891 6.944 222.9-295.323" class="cls-5" data-name="Path 359" transform="translate(-508.467 -1169.532)"/>
        </g>
        <g id="Phone" transform="translate(655.213 630.885)">
            <g id="Phone-2" data-name="Phone">
                <path id="Path_397" d="M1020.552 1361.3c0 10.194-6.507 18.458-14.526 18.458H610.183c-8.019 0-14.523-8.264-14.523-18.458V646.349c0-10.2 6.5-18.464 14.523-18.464h395.844c8.019 0 14.526 8.267 14.526 18.464z" class="cls-9" data-name="Path 397" transform="translate(-595.66 -627.885)"/>
                <path id="Path_398" d="M980.75 1202.832c0 9.274-6.736 16.793-15.05 16.793H619.695c-8.306 0-15.042-7.52-15.042-16.793V671.875c0-9.274 6.736-16.79 15.042-16.79H965.7c8.314 0 15.05 7.517 15.05 16.79z" class="cls-10" data-name="Path 398" transform="translate(-579.57 -579.221)"/>
                <path id="Path_399" d="M733.038 900.855a36.963 36.963 0 1 1-36.961-36.967 36.961 36.961 0 0 1 36.961 36.967z" class="cls-11" data-name="Path 399" transform="translate(-482.136 -205.651)"/>
                <path id="Path_400" d="M781.14 647.516a6.09 6.09 0 0 1-5.866 6.3H649.6a6.092 6.092 0 0 1-5.866-6.3 6.088 6.088 0 0 1 5.866-6.289h125.675a6.087 6.087 0 0 1 5.866 6.289z" class="cls-11" data-name="Path 400" transform="translate(-509.649 -604.015)"/>
                <path id="Path_401" d="M710.42 647.516a6.09 6.09 0 0 1-5.866 6.3H701.6a6.092 6.092 0 0 1-5.866-6.3 6.088 6.088 0 0 1 5.866-6.289h2.953a6.087 6.087 0 0 1 5.866 6.289z" class="cls-11" data-name="Path 401" transform="translate(-416.615 -604.015)"/>
            </g>
            <g id="Group_371" data-name="Group 371" transform="translate(110.599 217.109)">
                <path id="Path_402" d="M828.585 808.327h-21.351v-73.4c0-.159-.011-.31-.014-.466-.268-19.881-17.471-27.425-26.605-28.633a11.3 11.3 0 0 0-1.473-.1H706.1c-11.525 0-20.564 3.224-26.867 9.578a27.137 27.137 0 0 0-7.966 18.495v74.528H648.8a13.485 13.485 0 0 0-13.485 13.485v120.934a13.485 13.485 0 0 0 13.485 13.486h179.785a13.482 13.482 0 0 0 13.483-13.486V821.813a13.482 13.482 0 0 0-13.483-13.486zm-43.825 0h-91.014v-74.293c.36-3.707 4.856-5.832 12.359-5.832h72.132c1.754.354 6.524 1.771 6.524 6.722v73.4z" class="cls-9" data-name="Path 402" transform="translate(-635.314 -705.727)"/>
                <path id="Path_403" d="M713.592 777.851a25.844 25.844 0 1 0-36.239 23.663v35.048a10.395 10.395 0 1 0 20.79 0v-35.048a25.845 25.845 0 0 0 15.449-23.663z" class="cls-12" data-name="Path 403" transform="translate(-587.742 -622.927)"/>
            </g>
            <g id="Group_372" data-name="Group 372" transform="translate(219.857 221.723)">
                <path id="Path_404" d="M832.5 786.385a79.006 79.006 0 1 1-79.007-79 79.007 79.007 0 0 1 79.007 79z" class="cls-4" data-name="Path 404" transform="translate(-674.487 -707.381)"/>
                <path id="Path_405" d="M730.9 805.65a10.829 10.829 0 0 1-6.705-2.315l-36.727-28.767a10.883 10.883 0 0 1 13.432-17.133l28.362 22.215 45.479-55.255a10.882 10.882 0 0 1 16.8 13.831l-52.232 63.461a10.863 10.863 0 0 1-8.409 3.963z" class="cls-13" data-name="Path 405" transform="translate(-658.714 -684.037)"/>
            </g>
        </g>
        <g id="Password" transform="translate(562.373 1436.237)">
            <path id="Rectangle_62" d="M15.1 0h580.374a15.1 15.1 0 0 1 15.1 15.1v94.957a15.1 15.1 0 0 1-15.1 15.1H15.1A15.1 15.1 0 0 1 0 110.055V15.1A15.1 15.1 0 0 1 15.1 0z" class="cls-14" data-name="Rectangle 62"/>
            <g id="Group_373" data-name="Group 373" transform="translate(89.354 40.189)">
                <path id="Path_406" d="M633.887 955.625a31.628 31.628 0 0 1-1.336 9.4 21.193 21.193 0 0 1-3.921 7.413 17.81 17.81 0 0 1-6.334 4.826 20.319 20.319 0 0 1-8.577 1.724 20.781 20.781 0 0 1-6.853-1.035 21.672 21.672 0 0 1-4.437-1.98V993.9h-8.019v-59.391q2.845-.691 7.112-1.509a53.006 53.006 0 0 1 9.871-.82 25.13 25.13 0 0 1 9.307 1.637 19.96 19.96 0 0 1 7.068 4.658 20.584 20.584 0 0 1 4.527 7.369 28.284 28.284 0 0 1 1.592 9.781zm-8.359 0q0-7.84-3.88-12.066a13.367 13.367 0 0 0-10.342-4.223 47.264 47.264 0 0 0-5.648.257 22.843 22.843 0 0 0-3.23.605v28.27a16.428 16.428 0 0 0 4.223 2.326 15.814 15.814 0 0 0 6.033 1.121 12.88 12.88 0 0 0 5.9-1.25 10.809 10.809 0 0 0 4.008-3.447 14.573 14.573 0 0 0 2.24-5.171 28.36 28.36 0 0 0 .696-6.422z" class="cls-15" data-name="Path 406" transform="translate(-594.41 -932.01)"/>
                <path id="Path_407" d="M629.138 932.119a23.22 23.22 0 0 1 8.147 1.25 13.207 13.207 0 0 1 5.344 3.534 13.387 13.387 0 0 1 2.887 5.43 26.233 26.233 0 0 1 .862 6.937v28.014c-.689.117-1.651.273-2.887.474s-2.63.388-4.181.561-3.233.332-5.043.474-3.606.218-5.386.218a29.43 29.43 0 0 1-6.984-.778 15.614 15.614 0 0 1-5.514-2.454 11.225 11.225 0 0 1-3.62-4.44 15.53 15.53 0 0 1-1.294-6.635 12.766 12.766 0 0 1 1.509-6.382 12 12 0 0 1 4.094-4.306 18.905 18.905 0 0 1 6.033-2.415 32.794 32.794 0 0 1 7.241-.775q1.2 0 2.5.128t2.457.346c.775.142 1.45.273 2.028.387s.973.2 1.2.26V949.7a18.015 18.015 0 0 0-.432-3.921 8.96 8.96 0 0 0-1.551-3.448 7.888 7.888 0 0 0-3.06-2.415 12.005 12.005 0 0 0-5.043-.9 37.8 37.8 0 0 0-6.937.561 24.344 24.344 0 0 0-4.44 1.163l-.948-6.638a24.962 24.962 0 0 1 5.171-1.336 44.814 44.814 0 0 1 7.847-.647zm.692 40.166q2.845 0 5.04-.128a22.187 22.187 0 0 0 3.665-.474V958.32a10.4 10.4 0 0 0-2.8-.731 31.222 31.222 0 0 0-4.7-.3 30.28 30.28 0 0 0-3.835.262 11.739 11.739 0 0 0-3.707 1.077 7.961 7.961 0 0 0-2.8 2.24 5.882 5.882 0 0 0-1.121 3.749q0 4.313 2.758 5.991a14.354 14.354 0 0 0 7.5 1.677z" class="cls-15" data-name="Path 407" transform="translate(-563.89 -932.119)"/>
                <path id="Path_408" d="M641.387 972.285q4.912 0 7.282-1.294a4.373 4.373 0 0 0 2.371-4.136 5.491 5.491 0 0 0-2.326-4.652 36.964 36.964 0 0 0-7.673-3.882q-2.585-1.033-4.956-2.109a17.413 17.413 0 0 1-4.095-2.544 11.12 11.12 0 0 1-2.758-3.537 11.29 11.29 0 0 1-1.035-5.084 11.424 11.424 0 0 1 4.4-9.438q4.4-3.489 11.982-3.489a33.964 33.964 0 0 1 3.793.215q1.9.214 3.534.516t2.887.647c.831.231 1.481.43 1.938.6l-1.464 6.9a20.177 20.177 0 0 0-4.05-1.422 26.179 26.179 0 0 0-6.638-.734 12.261 12.261 0 0 0-5.86 1.336 4.429 4.429 0 0 0-2.5 4.181 5.691 5.691 0 0 0 .561 2.585 5.957 5.957 0 0 0 1.724 2.025 14.231 14.231 0 0 0 2.89 1.682 55.967 55.967 0 0 0 4.136 1.637q3.188 1.209 5.69 2.371a17.783 17.783 0 0 1 4.265 2.717 10.419 10.419 0 0 1 2.717 3.748 13.629 13.629 0 0 1 .948 5.386q0 6.208-4.613 9.4t-13.142 3.188a34.347 34.347 0 0 1-9.31-.99q-3.359-.991-4.568-1.509l1.467-6.895q1.376.515 4.393 1.551a25.4 25.4 0 0 0 8.01 1.03z" class="cls-15" data-name="Path 408" transform="translate(-535.194 -932.119)"/>
                <path id="Path_409" d="M655.17 972.285q4.911 0 7.282-1.294a4.368 4.368 0 0 0 2.371-4.136 5.491 5.491 0 0 0-2.323-4.655 36.973 36.973 0 0 0-7.673-3.882q-2.585-1.033-4.956-2.109a17.411 17.411 0 0 1-4.094-2.544 11.117 11.117 0 0 1-2.758-3.537 11.288 11.288 0 0 1-1.035-5.084 11.419 11.419 0 0 1 4.4-9.438q4.393-3.489 11.979-3.489a33.932 33.932 0 0 1 3.793.215q1.9.214 3.534.516t2.887.647c.834.231 1.481.43 1.941.6l-1.467 6.9a20.187 20.187 0 0 0-4.05-1.422 26.177 26.177 0 0 0-6.638-.734 12.261 12.261 0 0 0-5.86 1.336 4.427 4.427 0 0 0-2.5 4.181 5.654 5.654 0 0 0 .561 2.585 5.946 5.946 0 0 0 1.721 2.025 14.3 14.3 0 0 0 2.889 1.682 55.967 55.967 0 0 0 4.136 1.637q3.188 1.209 5.69 2.371a17.858 17.858 0 0 1 4.267 2.717 10.415 10.415 0 0 1 2.714 3.748 13.582 13.582 0 0 1 .948 5.386q0 6.208-4.61 9.4t-13.145 3.188a34.359 34.359 0 0 1-9.31-.99q-3.36-.991-4.569-1.509l1.467-6.895q1.376.515 4.4 1.551a25.372 25.372 0 0 0 8.008 1.033z" class="cls-15" data-name="Path 409" transform="translate(-510.535 -932.119)"/>
                <path id="Path_410" d="M674.26 938.294a5.864 5.864 0 0 1-1.554 4.053 6.041 6.041 0 0 1-8.445 0 6.062 6.062 0 0 1 0-8.105 6.041 6.041 0 0 1 8.445 0 5.864 5.864 0 0 1 1.554 4.052zm0 34.393a5.858 5.858 0 0 1-1.554 4.05 6.034 6.034 0 0 1-8.445 0 6.055 6.055 0 0 1 0-8.1 6.028 6.028 0 0 1 8.445 0 5.859 5.859 0 0 1 1.554 4.05z" class="cls-15" data-name="Path 410" transform="translate(-472.219 -931.4)"/>
                <path id="Path_411" d="M698.237 935.863a36.109 36.109 0 0 1-.647 6.939q-.645 3.318-1.336 6.853 3.1-1.724 6.119-3.364a42.988 42.988 0 0 1 6.552-2.842l.519-.173 2.413 7.24-.692.257a28.515 28.515 0 0 1-6.895 1.682q-3.447.389-7.068.65 2.845 2.41 5.344 4.694a33.676 33.676 0 0 1 4.655 5.3l.43.6-6.292 4.4-.343-.516a54.988 54.988 0 0 1-3.578-6.161q-1.51-3.063-3.06-6.337-1.552 3.276-3.06 6.337a55 55 0 0 1-3.578 6.161l-.343.516-6.292-4.4.429-.6a33.673 33.673 0 0 1 4.655-5.3q2.5-2.28 5.344-4.694-3.619-.259-7.068-.65a28.487 28.487 0 0 1-6.895-1.682l-.689-.257 2.413-7.24.516.173a42.993 42.993 0 0 1 6.552 2.842q3.016 1.64 6.119 3.364l-1.336-6.853a36.337 36.337 0 0 1-.644-6.939v-.689h7.756z" class="cls-15" data-name="Path 411" transform="translate(-446.896 -926.653)"/>
                <path id="Path_412" d="M713.073 935.863a36.334 36.334 0 0 1-.647 6.939q-.649 3.318-1.336 6.853 3.1-1.724 6.119-3.364a42.994 42.994 0 0 1 6.552-2.842l.516-.173 2.415 7.24-.692.257a28.518 28.518 0 0 1-6.895 1.682q-3.447.389-7.068.65 2.845 2.41 5.344 4.694a33.817 33.817 0 0 1 4.655 5.3l.429.6-6.292 4.4-.346-.516a54.972 54.972 0 0 1-3.576-6.161q-1.511-3.063-3.06-6.337-1.552 3.276-3.06 6.337a54.986 54.986 0 0 1-3.578 6.161l-.343.516-6.292-4.4.43-.6A33.536 33.536 0 0 1 701 957.8q2.5-2.28 5.344-4.694-3.619-.259-7.068-.65a28.486 28.486 0 0 1-6.895-1.682l-.692-.257 2.415-7.24.516.173a43.1 43.1 0 0 1 6.552 2.842q3.017 1.64 6.119 3.364l-1.336-6.853a36.334 36.334 0 0 1-.647-6.939v-.689h7.759z" class="cls-15" data-name="Path 412" transform="translate(-420.359 -926.653)"/>
                <path id="Path_413" d="M727.9 935.863a36.327 36.327 0 0 1-.644 6.939l-1.339 6.853q3.1-1.724 6.122-3.364a42.858 42.858 0 0 1 6.552-2.842l.516-.173 2.413 7.24-.689.257a28.548 28.548 0 0 1-6.895 1.682q-3.452.389-7.07.65 2.845 2.41 5.347 4.694a33.657 33.657 0 0 1 4.652 5.3l.432.6-6.292 4.4-.346-.516a54.966 54.966 0 0 1-3.576-6.161q-1.51-3.063-3.06-6.337-1.552 3.276-3.063 6.337a54.953 54.953 0 0 1-3.576 6.161l-.346.516-6.292-4.4.432-.6a33.524 33.524 0 0 1 4.655-5.3q2.5-2.28 5.344-4.694-3.623-.259-7.068-.65a28.538 28.538 0 0 1-6.9-1.682l-.689-.257 2.413-7.24.519.173a42.95 42.95 0 0 1 6.549 2.842q3.02 1.64 6.122 3.364-.691-3.536-1.336-6.853a36.1 36.1 0 0 1-.647-6.939v-.689h7.76z" class="cls-15" data-name="Path 413" transform="translate(-393.819 -926.653)"/>
                <path id="Path_414" d="M742.738 935.863a36.327 36.327 0 0 1-.644 6.939l-1.339 6.853q3.1-1.724 6.122-3.364a42.865 42.865 0 0 1 6.552-2.842l.516-.173 2.412 7.24-.689.257a28.548 28.548 0 0 1-6.895 1.682q-3.452.389-7.07.65 2.845 2.41 5.344 4.694a33.525 33.525 0 0 1 4.655 5.3l.432.6-6.292 4.4-.346-.516a54.975 54.975 0 0 1-3.576-6.161q-1.51-3.063-3.06-6.337-1.552 3.276-3.062 6.337a54.993 54.993 0 0 1-3.576 6.161l-.346.516-6.292-4.4.432-.6a33.521 33.521 0 0 1 4.655-5.3q2.5-2.28 5.344-4.694-3.623-.259-7.068-.65a28.507 28.507 0 0 1-6.9-1.682l-.689-.257 2.413-7.24.519.173a43.238 43.238 0 0 1 6.552 2.842q3.016 1.64 6.119 3.364l-1.336-6.853a36.109 36.109 0 0 1-.647-6.939v-.689h7.757z" class="cls-15" data-name="Path 414" transform="translate(-367.279 -926.653)"/>
                <path id="Path_415" d="M757.572 935.863a36.08 36.08 0 0 1-.647 6.939q-.644 3.318-1.336 6.853 3.1-1.724 6.119-3.364a43.147 43.147 0 0 1 6.554-2.842l.516-.173 2.412 7.24-.689.257a28.516 28.516 0 0 1-6.895 1.682q-3.452.389-7.07.65 2.845 2.41 5.344 4.694a33.829 33.829 0 0 1 4.658 5.3l.427.6-6.289 4.4-.346-.516a54.119 54.119 0 0 1-3.576-6.161q-1.51-3.063-3.062-6.337-1.552 3.276-3.06 6.337a54.989 54.989 0 0 1-3.578 6.161l-.343.516-6.292-4.4.43-.6a33.673 33.673 0 0 1 4.658-5.3q2.5-2.28 5.341-4.694-3.619-.259-7.065-.65a28.478 28.478 0 0 1-6.9-1.682l-.689-.257 2.412-7.24.519.173a43.067 43.067 0 0 1 6.549 2.842q3.016 1.64 6.119 3.364-.686-3.536-1.336-6.853a36.336 36.336 0 0 1-.644-6.939v-.689h7.757z" class="cls-15" data-name="Path 415" transform="translate(-340.74 -926.653)"/>
            </g>
        </g>
        <path id="Path_416" d="M798.751 938.146a156.711 156.711 0 0 1-2.78 29.938q-2.8 14.313-5.775 29.567 13.393-7.438 26.413-14.513a184.91 184.91 0 0 1 28.266-12.262l2.226-.746 10.409 31.238-2.973 1.108a123.157 123.157 0 0 1-29.746 7.255q-14.892 1.679-30.5 2.8 12.274 10.4 23.067 20.252a145.2 145.2 0 0 1 20.072 22.875l1.865 2.6-27.147 18.964-1.495-2.222a237.175 237.175 0 0 1-15.427-26.58q-6.516-13.214-13.2-27.341-6.7 14.134-13.213 27.341a237.125 237.125 0 0 1-15.428 26.58l-1.492 2.227-27.147-18.964 1.866-2.6a144.637 144.637 0 0 1 20.083-22.875q10.776-9.838 23.055-20.252-15.631-1.119-30.492-2.8a123.115 123.115 0 0 1-29.758-7.255l-2.973-1.108 10.409-31.238 2.238.746a185.3 185.3 0 0 1 28.254 12.262q13.031 7.075 26.413 14.513-2.979-15.254-5.764-29.567a155.743 155.743 0 0 1-2.791-29.938v-2.972h33.464z" class="cls-16" data-name="Path 416" transform="translate(409.914 -218.791)"/>
        <circle id="Ellipse_25" cx="7" cy="7" r="7" class="cls-4" data-name="Ellipse 25" transform="translate(1163.7 933.911)"/>
        <circle id="Ellipse_27" cx="7" cy="7" r="7" class="cls-4" data-name="Ellipse 27" transform="translate(1177.7 884.911)"/>
        <circle id="Ellipse_26" cx="7" cy="7" r="7" class="cls-4" data-name="Ellipse 26" transform="translate(1124.7 884.911)"/>
        <g id="Component_32_6" data-name="Component 32 – 6" transform="translate(1277.373 1238.911)">
            <circle id="Ellipse_11" cx="32.5" cy="32.5" r="32.5" class="cls-4" data-name="Ellipse 11"/>
            <path id="Path_391" d="M7.325 0l7.31 30.321L0 33.6" class="cls-17" data-name="Path 391" transform="rotate(60 7.288 46.617)"/>
        </g>
        <circle id="Ellipse_15" cx="14" cy="14" r="14" class="cls-1" data-name="Ellipse 15" transform="translate(584.373 1126.911)"/>
        <circle id="Ellipse_28" cx="9" cy="9" r="9" class="cls-1" data-name="Ellipse 28" transform="translate(594.373 840.911)"/>
        <circle id="Ellipse_29" cx="9" cy="9" r="9" class="cls-1" data-name="Ellipse 29" transform="translate(620.373 1062.911)"/>
    </g>
</svg>
