<svg xmlns="http://www.w3.org/2000/svg" id="Component_28_1" width="44.395" height="53.331" data-name="Component 28 – 1" viewBox="0 0 44.395 53.331">
    <defs>
        <style>
            .cls-1{fill:#72d3d3}
        </style>
    </defs>
    <g id="Group_303" data-name="Group 303" transform="translate(0 -3)">
        <path id="Path_74" d="M107.161 22.685h-3.7v-2.42a17.265 17.265 0 1 0-34.529 0v2.42h-3.7A1.233 1.233 0 0 0 64 23.918V51.4a4.938 4.938 0 0 0 4.933 4.933h34.529a4.938 4.938 0 0 0 4.933-4.933V23.918a1.233 1.233 0 0 0-1.234-1.233zM89.89 45.933a1.233 1.233 0 0 1-1.226 1.367h-4.933a1.233 1.233 0 0 1-1.226-1.369l.778-7a4.879 4.879 0 0 1-2.018-3.967 4.933 4.933 0 0 1 9.866 0 4.879 4.879 0 0 1-2.018 3.967zm6.173-23.248H76.332v-2.42a9.865 9.865 0 0 1 19.731 0z" class="cls-1" data-name="Path 74" transform="translate(-64)"/>
    </g>
</svg>
