<svg xmlns="http://www.w3.org/2000/svg" id="Component_123_1" width="39.454" height="39.466" data-name="Component 123 – 1" viewBox="0 0 39.454 39.466">
    <defs>
        <style>
            .cls-1{fill:#29bd53}.cls-2{fill:#72d3d3}
        </style>
    </defs>
    <path id="Path_1724" d="M999.574 2043.79a15.922 15.922 0 0 0-.9-4.684.7.7 0 0 1-.53.1 10.425 10.425 0 0 1-1.5-.5 19.9 19.9 0 0 1-12.146-13.4c-.1-.38 1.511-1.488 1.773-1.779a5.12 5.12 0 0 0 1.324-2.653 9.864 9.864 0 0 0-.628-3.905 24.973 24.973 0 0 0-1.093-3.653 5.4 5.4 0 0 0-4.189-3.215 4.514 4.514 0 0 0-3.22.781 15.382 15.382 0 0 0-1.932 1.756 8.159 8.159 0 0 0-1.894 2.329 6.706 6.706 0 0 0-.325 3.271 35.973 35.973 0 0 0 2.007 9.509 33.123 33.123 0 0 0 21.141 20.2 37.836 37.836 0 0 0 4.735 1.12 7.185 7.185 0 0 1-2.623-5.277z" class="cls-1" data-name="Path 1724" transform="translate(-974.264 -2010.059)"/>
    <path id="Path_1725" d="M1042.965 2085.592a8.35 8.35 0 0 0 3.367-2.677 6.655 6.655 0 0 0 1.525-3.215 4.434 4.434 0 0 0-.116-1.668 5.363 5.363 0 0 0-2.225-3.075 14.567 14.567 0 0 0-4.24-1.529 11.47 11.47 0 0 0-3.844-.689 5.994 5.994 0 0 0-3.813 2.15 4.747 4.747 0 0 1-.768.768 15.918 15.918 0 0 1 .9 4.684 7.186 7.186 0 0 0 2.628 5.277c.624.111 1.247.213 1.864.3a9.214 9.214 0 0 0 4.722-.326z" class="cls-2" data-name="Path 1725" transform="translate(-1008.435 -2046.611)"/>
</svg>
