<svg xmlns="http://www.w3.org/2000/svg" id="Component_117_7" width="39.455" height="47.396" data-name="Component 117 – 7" viewBox="0 0 39.455 47.396">
    <defs>
        <style>
            .cls-1{fill:#29bd53}.cls-2{fill:#72d3d3}
        </style>
    </defs>
    <g id="Group_303" data-name="Group 303" transform="translate(0 -3)">
        <path id="Path_74" d="M102.359 20.495H65.1a1.1 1.1 0 0 0-1.1 1.1v24.418a4.388 4.388 0 0 0 4.384 4.387h30.687a4.388 4.388 0 0 0 4.384-4.384V21.591a1.1 1.1 0 0 0-1.096-1.096zm-15.35 20.661a1.1 1.1 0 0 1-1.09 1.217h-4.384a1.1 1.1 0 0 1-1.09-1.217l.691-6.217a4.336 4.336 0 0 1-1.794-3.526 4.384 4.384 0 0 1 8.768 0 4.336 4.336 0 0 1-1.794 3.526z" class="cls-1" data-name="Path 74" transform="translate(-64)"/>
    </g>
    <g id="Group_538" data-name="Group 538" transform="translate(.616 -3)">
        <path id="Path_74-2" d="M99.071 20.495v-2.152a15.343 15.343 0 0 0-30.687 0v2.151zm-6.576 0H74.96v-2.152a8.768 8.768 0 1 1 17.535 0z" class="cls-2" data-name="Path 74" transform="translate(-64)"/>
    </g>
</svg>
