<svg xmlns="http://www.w3.org/2000/svg" width="75.17" height="79" viewBox="0 0 75.17 79">
    <defs>
        <style>
            .cls-1{fill:none;stroke:#b1c1bd;stroke-linecap:square;stroke-width:3px}
        </style>
    </defs>
    <g id="Component_49_10" data-name="Component 49 – 10" transform="translate(1.5 1.5)">
        <path id="Path_1577" d="M313.9 2012.9h-55.33s-.121 28.3 0 33.484c.92 8.907 7.273 16.443 16.1 20.011a28.851 28.851 0 0 0 5.789 1.688 31.346 31.346 0 0 0 11.422 0 26.681 26.681 0 0 0 5.789-1.688c8.829-3.568 15.181-11.1 16.1-20.011.093-31.348.13-33.484.13-33.484zm-55.446 2.554v25.691c-4.809-1.13-8.362-5.006-8.362-9.6v-16.572a4.214 4.214 0 0 1 8.362 0zm63.808 16.092c0 4.594-3.553 8.469-8.362 9.6v-26.172a4.214 4.214 0 0 1 8.362 0z" class="cls-1" data-name="Path 1577" transform="translate(-250.088 -2011.285)"/>
        <path id="Path_1578" d="M283.326 2040.542l4.9 3.627-1.871 5.868a1.555 1.555 0 0 0 .579 1.767 1.485 1.485 0 0 0 1.786-.016l4.9-3.627 4.9 3.627a1.5 1.5 0 0 0 1.957-.126 1.551 1.551 0 0 0 .408-1.625l-1.871-5.868 4.9-3.627a1.564 1.564 0 0 0 .5-1.9 1.5 1.5 0 0 0-1.406-.932h-6.054l-1.87-5.868a1.528 1.528 0 0 0-2.924 0l-1.871 5.868h-6.054a1.525 1.525 0 0 0-1.507 1.254 1.546 1.546 0 0 0 .598 1.578z" class="cls-1" data-name="Path 1578" transform="translate(-257.531 -2016.116)"/>
        <path id="Line_20" d="M0 0v20.145" class="cls-1" data-name="Line 20" transform="translate(46.155 55.855)"/>
        <path id="Path_1581" d="M0 0v11.2" class="cls-1" data-name="Path 1581" transform="translate(27.155 55.855)"/>
    </g>
</svg>
