<svg xmlns="http://www.w3.org/2000/svg" id="Component_31_1" width="57" height="41.522" data-name="Component 31 – 1" viewBox="0 0 57 41.522">
    <defs>
        <style>
            .cls-1{fill:#72d3d3}
        </style>
    </defs>
    <path id="Path_330" d="M705.794 1644.943l24.5-21.357a4.55 4.55 0 0 0-2.889-1.054h-47.81a4.547 4.547 0 0 0-2.891 1.056l24.5 21.355a3.648 3.648 0 0 0 4.59 0z" class="cls-1" data-name="Path 330" transform="translate(-675 -1622.532)"/>
    <path id="Path_331" d="M707.076 1647.4a5.591 5.591 0 0 1-7.142.01l-24.448-21.3a4.539 4.539 0 0 0-.486 2.014v31.331a4.6 4.6 0 0 0 4.595 4.595h47.81a4.6 4.6 0 0 0 4.595-4.595v-31.331a4.532 4.532 0 0 0-.489-2.019z" class="cls-1" data-name="Path 331" transform="translate(-675 -1622.532)"/>
</svg>
