<svg xmlns="http://www.w3.org/2000/svg" width="98.919" height="78.552" viewBox="0 0 98.919 78.552">
    <defs>
        <style>
            .cls-1{fill:#c5fffd}.cls-2{fill:#29bd53}.cls-3{fill:#72d3d3}.cls-4{fill:#2a8c72}.cls-5{fill:#5cb7b5}
        </style>
    </defs>
    <g id="Group_393" data-name="Group 393" transform="translate(-826.956 -1171.974)">
        <g id="Group_391" data-name="Group 391" transform="translate(838.106 1186.97)">
            <path id="Path_1561" d="M935.9 1270.556h-78.032a4.867 4.867 0 0 1-4.868-4.868v-53.821a4.868 4.868 0 0 1 4.868-4.868H935.9a4.868 4.868 0 0 1 4.868 4.868v53.821a4.867 4.867 0 0 1-4.868 4.868" class="cls-1" data-name="Path 1561" transform="translate(-853 -1207)"/>
            <path id="Rectangle_96" d="M0 0h13.619v9.08H0z" class="cls-2" data-name="Rectangle 96" transform="translate(7.566 43.884)"/>
            <path id="Rectangle_97" d="M0 0h13.619v9.08H0z" class="cls-2" data-name="Rectangle 97" transform="translate(27.239 43.884)"/>
            <path id="Rectangle_98" d="M0 0h13.619v9.08H0z" class="cls-3" data-name="Rectangle 98" transform="translate(46.911 43.884)"/>
            <path id="Rectangle_99" d="M0 0h13.619v9.08H0z" class="cls-3" data-name="Rectangle 99" transform="translate(66.583 43.884)"/>
        </g>
        <g id="Group_392" data-name="Group 392" transform="translate(826.956 1171.974)">
            <path id="Path_1562" d="M920.32 1234.259l-76.34 16.161a4.867 4.867 0 0 1-5.771-3.754l-11.147-52.654a4.867 4.867 0 0 1 3.754-5.77l76.341-16.161a4.867 4.867 0 0 1 5.77 3.754l11.147 52.653a4.868 4.868 0 0 1-3.754 5.771" class="cls-4" data-name="Path 1562" transform="translate(-826.956 -1171.974)"/>
            <path id="Path_1563" d="M968.7 1210.528a9.079 9.079 0 1 1-10.763-7 9.078 9.078 0 0 1 10.763 7" class="cls-3" data-name="Path 1563" transform="translate(-897.741 -1189.903)"/>
            <path id="Path_1564" d="M992.906 1205.4a9.079 9.079 0 1 1-10.763-7 9.078 9.078 0 0 1 10.763 7" class="cls-5" data-name="Path 1564" transform="translate(-911.583 -1186.973)"/>
            <path id="Path_1565" d="M858.984 1226.237l-13.324 2.821a1.513 1.513 0 0 0 .627 2.961l13.324-2.821a1.513 1.513 0 0 0-.627-2.961" class="cls-3" data-name="Path 1565" transform="translate(-836.966 -1202.986)"/>
            <path id="Path_1566" d="M905.73 1217.888a1.513 1.513 0 0 0-1.794-1.167l-13.324 2.821a1.513 1.513 0 1 0 .627 2.961l13.324-2.821a1.513 1.513 0 0 0 1.167-1.794" class="cls-3" data-name="Path 1566" transform="translate(-862.672 -1197.544)"/>
            <path id="Path_1567" d="M850.8 1249.383l-1.48.313a1.513 1.513 0 1 0 .627 2.961l1.48-.313a1.513 1.513 0 1 0-.627-2.961" class="cls-3" data-name="Path 1567" transform="translate(-839.059 -1216.222)"/>
            <path id="Path_1568" d="M869.57 1244.991l-2.961.627a1.513 1.513 0 1 0 .627 2.961l2.96-.627a1.513 1.513 0 1 0-.627-2.961" class="cls-3" data-name="Path 1568" transform="translate(-848.946 -1213.71)"/>
            <path id="Path_1569" d="M888.837 1241.331l-1.48.313a1.513 1.513 0 1 0 .627 2.96l1.481-.313a1.513 1.513 0 1 0-.627-2.961" class="cls-3" data-name="Path 1569" transform="translate(-860.81 -1211.617)"/>
            <path id="Path_1570" d="M907.607 1236.938l-2.961.627a1.513 1.513 0 0 0 .627 2.961l2.961-.627a1.513 1.513 0 0 0-.627-2.961" class="cls-3" data-name="Path 1570" transform="translate(-870.697 -1209.105)"/>
            <path id="Path_1571" d="M924.449 1234.685a1.507 1.507 0 0 0-.222 1.145 1.556 1.556 0 0 0 .652.96 1.513 1.513 0 0 0 2.309-1.587 1.526 1.526 0 0 0-.649-.945 1.55 1.55 0 0 0-2.091.427" class="cls-3" data-name="Path 1571" transform="translate(-882.563 -1207.457)"/>
            <path id="Rectangle_100" d="M0 0h13.619v9.08H0z" class="cls-2" data-name="Rectangle 100" transform="rotate(-11.953 287.865 -45.133)"/>
            <path id="Rectangle_101" d="M0 0h13.619v9.08H0z" class="cls-2" data-name="Rectangle 101" transform="rotate(-11.953 278.03 -139.09)"/>
            <path id="Rectangle_102" d="M0 0h13.619v9.08H0z" class="cls-2" data-name="Rectangle 102" transform="rotate(-11.953 268.196 -233.046)"/>
            <path id="Rectangle_103" d="M0 0h13.619v9.08H0z" class="cls-2" data-name="Rectangle 103" transform="rotate(-11.953 258.361 -326.997)"/>
        </g>
    </g>
</svg>
