<svg xmlns="http://www.w3.org/2000/svg" id="Component_43_1" width="69" height="69" data-name="Component 43 – 1" viewBox="0 0 69 69">
    <defs>
        <style>
            .cls-1{fill:#fff;stroke-width:3px;stroke:#b1c1bd}.cls-2,.cls-3{stroke:#b1c1bd;fill:#b1c1bd}.cls-2{stroke-miterlimit:10}.cls-4{stroke:none}.cls-5{fill:none}
        </style>
    </defs>
    <g id="Rectangle_90" class="cls-1" data-name="Rectangle 90">
        <rect width="69" height="69" class="cls-4" rx="34.5"/>
        <rect width="66" height="66" x="1.5" y="1.5" class="cls-5" rx="33"/>
    </g>
    <g id="Group_386" data-name="Group 386" transform="translate(-421.38 -211.338)">
        <path id="Union_17" d="M18.92 36.053V27.9a11.01 11.01 0 0 1-4.541 0l.087 4.731a1.151 1.151 0 1 1-2.3 0l-.086-5.492v-.807.807a11.047 11.047 0 0 1-6.4-9.018A6.788 6.788 0 0 1 0 11.434V3.965a3.964 3.964 0 0 1 7.817-.934 3.945 3.945 0 0 1 .112.934v.217H6.777h1.151v-.217a4 4 0 0 0-.112-.934h17.668a3.964 3.964 0 0 1 7.816.934v7.468a6.787 6.787 0 0 1-5.674 6.687 10.857 10.857 0 0 0-.001 0 6.75 6.75 0 0 1-1.1.091h-.063a9.873 9.873 0 0 1-5.237 7.648 9.872 9.872 0 0 0 5.237-7.648h.063a6.75 6.75 0 0 0 1.1-.091 11.047 11.047 0 0 1-6.4 9.018v8.914a1.151 1.151 0 0 1-2.3 0zm-2.271-9.068a9.88 9.88 0 0 0 2.271-.266 9.843 9.843 0 0 1-4.541 0 9.88 9.88 0 0 0 2.27.266zm-4.572-1.124a9.88 9.88 0 0 1-5.2-7.338 9.878 9.878 0 0 0 5.2 7.338zm0-1.325a10.288 10.288 0 0 0 1.054.556 8.686 8.686 0 0 0 1.161.418l.086.02a8.739 8.739 0 0 0 4.541 0l.091-.021a8.666 8.666 0 0 0 1.143-.41 10.191 10.191 0 0 0 1.068-.562 8.729 8.729 0 0 0 4.079-6.35l.067-1.076V5.333H7.928v11.779l.064 1.061a8.734 8.734 0 0 0 4.085 6.363zm1.625.79a1.108 1.108 0 0 0-.138-.052zm5.9 0l.135-.05a1.012 1.012 0 0 0-.137.049zM6.84 18.212a9.861 9.861 0 0 1-.063-1.1 9.874 9.874 0 0 0 .062 1.1zm-.064 0a6.854 6.854 0 0 1-1.1-.091 6.75 6.75 0 0 0 1.1.091zM2.3 3.965v7.468a4.485 4.485 0 0 0 3.326 4.327V4.182v-.03.03-.217a1.662 1.662 0 0 0-3.325 0zm25.372.217V15.76A4.484 4.484 0 0 0 31 11.434V3.965a1.663 1.663 0 0 0-3.326 0v.187a1.151 1.151 0 0 0-1.151-1.121 1.152 1.152 0 0 1 1.151 1.121zm0-.03z" class="cls-2" data-name="Union 17" transform="translate(439.381 227.337)"/>
        <path id="Path_1558" d="M534.19 292.768l.744 2.289h2.407a.611.611 0 0 1 .359 1.106l-1.948 1.415.744 2.289a.6.6 0 0 1-.162.634.6.6 0 0 1-.778.049l-1.948-1.415-1.948 1.415a.611.611 0 0 1-.94-.683l.744-2.289-1.948-1.415a.6.6 0 0 1-.24-.616.6.6 0 0 1 .6-.489h2.407l.744-2.289a.611.611 0 0 1 1.163 0z" class="cls-3" data-name="Path 1558" transform="translate(-77.578 -56.108)"/>
    </g>
</svg>
