<svg xmlns="http://www.w3.org/2000/svg" width="99" height="99" viewBox="0 0 99 99">
    <defs>
        <style>
            .cls-1{fill:#d4ebe5}.cls-2{fill:#b1c1bd}.cls-3{fill:#2a2a2a}
        </style>
    </defs>
    <g id="Group_596" data-name="Group 596" transform="translate(-95 -472)">
        <circle id="Ellipse_37" cx="49.5" cy="49.5" r="49.5" class="cls-1" data-name="Ellipse 37" transform="translate(95 472)"/>
        <g id="Group_566" data-name="Group 566" transform="translate(-.48 250.627)">
            <path id="Path_307" d="M342.44 153.369h-1.234v7.407h1.234a3.7 3.7 0 0 0 0-7.407z" class="cls-2" data-name="Path 307" transform="translate(-184.223 109.224)"/>
            <path id="Path_308" d="M136.715 157.073a3.7 3.7 0 0 0 3.7 3.7h1.234v-7.403h-1.234a3.7 3.7 0 0 0-3.7 3.703z" class="cls-2" data-name="Path 308" transform="translate(-9.359 109.223)"/>
            <path id="Path_309" d="M174.343 29.508l1.457-7.493A5.222 5.222 0 0 0 171.514 16a5.322 5.322 0 0 0-.874-.072 5.421 5.421 0 0 0-5.135-3.7h-14.616l-2.469-3.7-1.234 1.234a8.728 8.728 0 0 0 0 12.342h22.22z" data-name="Path 309" transform="translate(-16.126 233.085)"/>
            <path id="Path_310" d="M120.352 342.649l-8.95-1.234-8.402 4.851-8.407-4.8-8.95 1.234a9.876 9.876 0 0 0-8.567 9.74v1.246h51.844v-1.246a9.877 9.877 0 0 0-8.568-9.791z" class="cls-1" data-name="Path 310" transform="translate(41.643 -51.577)"/>
            <path id="Path_311" d="M214.79 289.953l-1-.136v-8.641h-14.813v8.641l-1 .136 8.407 4.8z" class="cls-1" data-name="Path 311" transform="translate(-61.745 -.066)"/>
            <path id="Path_312" d="M219.692 288.015v-6.839h-14.813v6.839c5.555 2.407 9.258 2.407 14.813 0z" class="cls-2" data-name="Path 312" transform="translate(-67.647 -.066)"/>
            <path id="Path_313" d="M77.072 367.083v1.246h4.938v-9.788a9.873 9.873 0 0 0-4.938 8.542z" class="cls-2" data-name="Path 313" transform="translate(41.643 -66.222)"/>
            <path id="Path_314" d="M189.434 109.653v7.036a20.5 20.5 0 0 1-2.58 9.95 12.58 12.58 0 0 1-11 6.469 12.58 12.58 0 0 1-11-6.469 20.5 20.5 0 0 1-2.58-9.95v-14.443H184.5z" class="cls-1" data-name="Path 314" transform="translate(-31.216 152.94)"/>
            <path id="Path_315" d="M167.214 102.247h-4.938v14.443a20.5 20.5 0 0 0 2.58 9.95 12.487 12.487 0 0 0 5.382 5.111c-4.258-12.221-3.024-29.504-3.024-29.504z" class="cls-2" data-name="Path 315" transform="translate(-31.216 152.939)"/>
            <path id="Path_316" d="M144.923 45.331a8.7 8.7 0 0 0 2.3 8.246h19.747c-14.023 0-19.751-4.938-22.047-8.246z" class="cls-3" data-name="Path 316" transform="translate(-16.159 201.609)"/>
            <path id="Path_317" d="M342.44 154.724h-1.234v-2.469h1.234a2.469 2.469 0 0 0 0-4.938h-1.234v-2.469h1.234a4.938 4.938 0 0 1 0 9.876z" data-name="Path 317" transform="translate(-184.223 116.511)"/>
            <path id="Path_318" d="M134.367 154.724h-1.234a4.938 4.938 0 0 1 0-9.876h1.234v2.469h-1.234a2.469 2.469 0 0 0 0 4.938h1.234z" data-name="Path 318" transform="translate(-2.073 116.511)"/>
            <path id="Path_319" d="M168.565 127.059h-.007a13.82 13.82 0 0 1-12.074-7.1 21.779 21.779 0 0 1-2.736-10.547v-14.45a1.235 1.235 0 0 1 1.234-1.234H177.2a1.236 1.236 0 0 1 1.027.549l4.938 7.407a1.238 1.238 0 0 1 .207.685v7.036a21.8 21.8 0 0 1-2.736 10.549 13.82 13.82 0 0 1-12.071 7.105zm0-2.469a11.352 11.352 0 0 0 9.918-5.834 19.32 19.32 0 0 0 2.424-9.351v-6.662l-4.365-6.543h-20.324v13.209a19.314 19.314 0 0 0 2.424 9.35 11.349 11.349 0 0 0 9.916 5.834z" data-name="Path 319" transform="translate(-23.924 160.224)"/>
            <path id="Path_321" d="M168.3 23.661l-2.436-.406 1.457-8.728a3.988 3.988 0 0 0-3.273-4.593 3.326 3.326 0 0 0-.668-.054 1.232 1.232 0 0 1-1.17-.843 4.184 4.184 0 0 0-3.966-2.861h-14.619a1.236 1.236 0 0 1-1.027-.549l-1.634-2.45-.17.169a7.494 7.494 0 0 0 0 10.6l-1.744 1.748a9.974 9.974 0 0 1 0-14.09l1.233-1.24a1.234 1.234 0 0 1 1.9.188l2.1 3.154h13.956a6.65 6.65 0 0 1 5.987 3.758c.076.01.151.021.227.033a6.455 6.455 0 0 1 5.3 7.436z" data-name="Path 321" transform="translate(-8.862 240.37)"/>
            <path id="Path_322" d="M71.021 316.745h-2.469V315.5a11.147 11.147 0 0 1 9.639-11.013l8.878-1.179v-5.091h2.469v6.172a1.234 1.234 0 0 1-1.072 1.223l-9.95 1.321a8.669 8.669 0 0 0-7.5 8.565z" data-name="Path 322" transform="translate(48.928 -14.637)"/>
            <path id="Path_323" d="M319.589 316.751h-2.469v-1.246a8.667 8.667 0 0 0-7.5-8.565l-9.949-1.321a1.234 1.234 0 0 1-1.071-1.219v-6.172h2.469v5.091l8.877 1.179a11.147 11.147 0 0 1 9.64 11.013v1.245z" data-name="Path 323" transform="translate(-147.792 -14.644)"/>
            <path id="Rectangle_47" d="M0 0h2.469v3.709H0z" data-name="Rectangle 47" transform="translate(127.361 298.398)"/>
            <path id="Rectangle_48" d="M0 0h2.469v3.709H0z" data-name="Rectangle 48" transform="translate(159.457 298.398)"/>
            <path id="Path_324" d="M201.386 340.666a1.233 1.233 0 0 1-.612-.163l-8.641-4.938 1.225-2.143 8.029 4.588 8.029-4.588 1.225 2.143L202 340.5a1.231 1.231 0 0 1-.614.166z" data-name="Path 324" transform="translate(-56.747 -44.742)"/>
        </g>
    </g>
</svg>
