<svg xmlns="http://www.w3.org/2000/svg" id="Component_74_1" width="62.299" height="69.599" data-name="Component 74 – 1" viewBox="0 0 62.299 69.599">
    <defs>
        <style>
            .cls-1{fill:none}.cls-2{fill:#72d3d3}.cls-3,.cls-5{fill:#29bd53}.cls-3,.cls-4{stroke:rgba(0,0,0,0);stroke-miterlimit:10}.cls-4,.cls-6{fill:#2a8c72}
        </style>
    </defs>
    <path id="Path_278" d="M647.74 261.234v-13.972a3.11 3.11 0 1 0-6.22 0v22.065a8.389 8.389 0 0 0 6.22-8.093z" class="cls-1" data-name="Path 278" transform="translate(-589.748 -239.846)"/>
    <path id="Path_279" d="M459.3 244.152a3.114 3.114 0 0 0-3.11 3.11v13.972a8.389 8.389 0 0 0 6.22 8.093v-22.065a3.114 3.114 0 0 0-3.11-3.11z" class="cls-1" data-name="Path 279" transform="translate(-451.888 -239.846)"/>
    <path id="Path_280" d="M632.732 227.338a7.428 7.428 0 0 0-7.206 5.669h1.943a2.153 2.153 0 0 1 2.153 2.153v-.406a3.11 3.11 0 0 1 6.22 0v13.972a8.389 8.389 0 0 1-6.22 8.093v2.529c0 .636-.033 1.265-.09 1.887a12.7 12.7 0 0 0 10.616-12.509v-13.972a7.425 7.425 0 0 0-7.416-7.416z" class="cls-2" data-name="Path 280" transform="translate(-577.85 -227.338)"/>
    <path id="Path_281" d="M449.907 256.819a8.389 8.389 0 0 1-6.22-8.093v-13.972a3.11 3.11 0 0 1 6.22 0v.406a2.153 2.153 0 0 1 2.153-2.153H454a7.416 7.416 0 0 0-14.623 1.747v13.972A12.7 12.7 0 0 0 450 261.236a20.663 20.663 0 0 1-.09-1.887z" class="cls-2" data-name="Path 281" transform="translate(-439.38 -227.338)"/>
    <path id="Union_22" d="M16.285 20.18v-2.851a2.152 2.152 0 0 0-4.123-.868 18.475 18.475 0 0 1-9.981-14.4h2.036V0a16.334 16.334 0 0 0 16.316 16.316A16.335 16.335 0 0 0 36.85 0v2.057H39a12.725 12.725 0 0 0 2.064-.17 20.663 20.663 0 0 1-11.979 16.87v-1.428a2.153 2.153 0 1 0-4.306 0v2.851a20.564 20.564 0 0 1-4.248.442 20.562 20.562 0 0 1-4.246-.442zm4.248-1.711a18.439 18.439 0 0 0 3.926-.424 18.483 18.483 0 0 1-3.925.423 18.525 18.525 0 0 1-4.248-.5 18.461 18.461 0 0 0 4.246.502zM0 1.887a12.708 12.708 0 0 0 2.064.171h.116a18.475 18.475 0 0 0 9.981 14.4 2.148 2.148 0 0 0-.183.868v1.428A20.662 20.662 0 0 1 0 1.887z" class="cls-3" data-name="Union 22" transform="translate(10.617 32.01)"/>
    <path id="Union_19" d="M.21 4.306V2.153h32.633v2.153zm0-2.153v-.406A7.4 7.4 0 0 0 0 0h33.052a7.4 7.4 0 0 0-.21 1.747v.406z" class="cls-3" data-name="Union 19" transform="translate(14.623 5.669)"/>
    <path id="Union_20" d="M2.164 28.4a18.678 18.678 0 0 0 .117-2.057V2.153H.127v-.405A7.413 7.413 0 0 1 .338 0h1.943a2.153 2.153 0 0 1 2.153 2.153v24.189c0 .637-.034 1.265-.09 1.887a12.705 12.705 0 0 1-2.063.17zM0 28.4l.127-2.057V2.153H2.28v24.189a18.678 18.678 0 0 1-.117 2.058z" class="cls-4" data-name="Union 20" transform="translate(47.339 5.669)"/>
    <path id="Union_24" d="M2.27 28.4h-.117a12.725 12.725 0 0 1-2.064-.171A21.046 21.046 0 0 1 0 26.342V2.153A2.152 2.152 0 0 1 2.153 0H4.1a7.4 7.4 0 0 1 .21 1.747v.406H2.153h2.153v24.189L4.43 28.4z" class="cls-4" data-name="Union 24" transform="translate(10.527 5.669)"/>
    <path id="Path_291" d="M527.6 429.432a2.153 2.153 0 1 0 4.306 0v-2.452a20.462 20.462 0 0 1-4.306-1.423z" class="cls-5" data-name="Path 291" transform="translate(-505.004 -374.789)"/>
    <path id="Path_292" d="M577.587 442.235a2.153 2.153 0 1 0 4.306 0v-16.678a20.461 20.461 0 0 1-4.306 1.423z" class="cls-2" data-name="Path 292" transform="translate(-542.189 -374.789)"/>
    <path id="Path_293" d="M527.6 406.55v4.868a20.46 20.46 0 0 0 4.306 1.423v-4.434a14.56 14.56 0 0 1-4.306-1.857z" class="cls-6" data-name="Path 293" transform="translate(-505.004 -360.65)"/>
    <path id="Path_294" d="M581.893 406.55v4.868a20.459 20.459 0 0 1-4.306 1.423v-4.434a14.559 14.559 0 0 0 4.306-1.857z" class="cls-6" data-name="Path 294" transform="translate(-542.189 -360.65)"/>
    <path id="Path_295" d="M538.48 293.136l1.392 4.283h4.5a1.143 1.143 0 0 1 .672 2.068l-3.644 2.647 1.392 4.283a1.116 1.116 0 0 1-.3 1.186 1.129 1.129 0 0 1-1.456.092l-3.644-2.647-3.644 2.647a1.143 1.143 0 0 1-1.759-1.278l1.392-4.283-3.644-2.647a1.117 1.117 0 0 1-.449-1.153 1.129 1.129 0 0 1 1.121-.915h4.5l1.391-4.283a1.144 1.144 0 0 1 2.175 0z" class="cls-6" data-name="Path 295" transform="translate(-506.243 -275.696)"/>
</svg>
