<svg xmlns="http://www.w3.org/2000/svg" id="Component_29_1" width="53.084" height="53.074" data-name="Component 29 – 1" viewBox="0 0 53.084 53.074">
    <defs>
        <style>
            .cls-1{fill:#72d3d3}
        </style>
    </defs>
    <path id="Path_73" d="M558.437 1030.919l-.266-.806a7.471 7.471 0 0 0-4.562-4.308l-6.974-1.906a6.832 6.832 0 0 0-5.973 1.567l-2.522 2.522a26.792 26.792 0 0 1-18.839-18.845l2.522-2.522a6.838 6.838 0 0 0 1.56-5.973l-1.9-6.974a7.462 7.462 0 0 0-4.313-4.562l-.8-.266a6.313 6.313 0 0 0-5.9 1.394l-3.779 3.779a7.034 7.034 0 0 0-1.1 2.592 44.556 44.556 0 0 0 44.964 45.068 6.956 6.956 0 0 0 2.713-1.094l3.778-3.779a6.318 6.318 0 0 0 1.389-5.886z" class="cls-1" data-name="Path 73" transform="translate(-505.591 -988.606)"/>
</svg>
