<svg xmlns="http://www.w3.org/2000/svg" id="Component_51_1" width="43.309" height="50.951" data-name="Component 51 – 1" viewBox="0 0 43.309 50.951">
    <defs>
        <style>
            .cls-1{fill:#b1c1bd}
        </style>
    </defs>
    <g id="notifications">
        <path id="Path_1580" d="M523.654 2060.893a5.11 5.11 0 0 0 5.095-5.095h-10.19a5.11 5.11 0 0 0 5.095 5.095zm16.559-17.545V2031.6a16.349 16.349 0 0 0-11.336-15.648 2.02 2.02 0 0 1-1.4-1.91 4.12 4.12 0 0 0-2.1-3.65 3.825 3.825 0 0 0-5.546 3.375v.275a2.02 2.02 0 0 1-1.4 1.91 16.349 16.349 0 0 0-11.336 15.648v11.752l-1.042.6a8.137 8.137 0 0 0-4.053 7.038h43.309a8.137 8.137 0 0 0-4.053-7.038z" class="cls-1" data-name="Path 1580" transform="translate(-502 -2009.942)"/>
    </g>
</svg>
