<svg xmlns="http://www.w3.org/2000/svg" width="424" height="349.044" viewBox="0 0 424 349.044">
    <defs>
        <style>
            .cls-1,.cls-2,.cls-3{fill:#fff}.cls-1{stroke:rgba(0,0,0,0)}.cls-3{font-size:100px;font-family:Helvetica-Bold,Helvetica;font-weight:700}
        </style>
    </defs>
    <g id="Group_300" data-name="Group 300" transform="translate(-390.945 -383.836)">
        <g id="Group_1" data-name="Group 1" transform="translate(493.648 384.338)">
            <path id="Union_14" d="M17674.131-4.568v-67.18c-.006.085-.006.174-.006.263v2.373a68.153 68.153 0 0 1-15.7 1.838 68.153 68.153 0 0 0 15.7-1.838v8.163a76.146 76.146 0 0 1-15.7 1.637 76.26 76.26 0 0 1-15.7-1.637v9.059a7.957 7.957 0 0 1-7.957 7.962 7.96 7.96 0 0 1-7.957-7.962v-14.318a76.384 76.384 0 0 1-44.271-62.354 46.932 46.932 0 0 1-39.24-46.238v-51.64a27.442 27.442 0 0 1 27.416-27.415 27.453 27.453 0 0 1 26.629 20.956h-7.182a7.956 7.956 0 0 0-1.988.251 7.956 7.956 0 0 1 1.988-.251h7.182a27.313 27.313 0 0 1 .686 4.256 27.542 27.542 0 0 0-.682-4.256h122.166a27.458 27.458 0 0 1 26.639-20.956 27.446 27.446 0 0 1 27.41 27.415v51.64a46.948 46.948 0 0 1-39.244 46.238c-.307.049-.619.1-.932.143.313-.045.625-.094.932-.143a76.374 76.374 0 0 1-44.266 62.354v-5.277c0-.089-.006-.174-.006-.263v67.18a7.959 7.959 0 0 1-7.957 7.962 7.957 7.957 0 0 1-7.96-7.962zm-47.068-79.479a70.714 70.714 0 0 0 6.508 3.448 59.374 59.374 0 0 0 8.613 3.14c.354.085.539.12.539.12v.027a60.182 60.182 0 0 0 15.7 2.074 60.238 60.238 0 0 0 15.707-2.074v-.027s.182-.036.539-.12a59.69 59.69 0 0 0 8.555-3.113 70.738 70.738 0 0 0 6.66-3.533 60.429 60.429 0 0 0 28.4-43.986l.455-7.449v-90.9a27.306 27.306 0 0 1 .775-6.459 27.335 27.335 0 0 0-.779 6.459v9.456h-120.615v81.446l.443 7.318a60.406 60.406 0 0 0 28.5 44.174zm10.955 5.295a8.23 8.23 0 0 0-.9-.339c.312.121.611.232.9.34zm40.836 0c.277-.1.566-.214.865-.33a8.577 8.577 0 0 0-.865.326zm47.408-49.178a68.053 68.053 0 0 1-19.916 40.989 68.079 68.079 0 0 0 19.92-40.989zm-136.1-7.605v-89.4zm-30.947-90.9v51.64a31 31 0 0 0 22.99 29.913v-81.553a11.507 11.507 0 0 0-11.49-11.495 11.509 11.509 0 0 0-11.502 11.489zm175.434 0v81.553a31.012 31.012 0 0 0 23-29.913v-51.64a11.514 11.514 0 0 0-11.5-11.495 11.519 11.519 0 0 0-11.503 11.489zm-136.529 0z" class="cls-1" data-name="Union 14" transform="translate(-17543.295 253.854)"/>
            <path id="Path_18" d="M623.326 452.265l5.144 15.835h16.646a4.226 4.226 0 0 1 2.484 7.645l-13.467 9.785 5.144 15.831a4.125 4.125 0 0 1-1.121 4.383 4.173 4.173 0 0 1-5.382.342l-13.467-9.786-13.467 9.785a4.226 4.226 0 0 1-6.5-4.725l5.144-15.831-13.467-9.785a4.13 4.13 0 0 1-1.658-4.262 4.171 4.171 0 0 1 4.141-3.382h16.646l5.143-15.831a4.227 4.227 0 0 1 8.039 0z" class="cls-2" data-name="Path 18" transform="translate(-504.175 -387.806)"/>
        </g>
        <text id="BetSport" class="cls-3" transform="translate(602.945 709.879)">
            <tspan x="-211.108" y="0">BetSport</tspan>
        </text>
    </g>
</svg>
