<svg xmlns="http://www.w3.org/2000/svg" width="448" height="369.477" viewBox="0 0 448 369.477">
    <defs>
        <style>
            .cls-1{fill:none}.cls-2{fill:#72d3d3}.cls-3,.cls-5{fill:#29bd53}.cls-4{fill:#2a8c72}.cls-5{font-size:105.759px;font-family:Helvetica-Bold,Helvetica;font-weight:700}.cls-6{fill:#000}
        </style>
    </defs>
    <g id="Group_550" data-name="Group 550" transform="translate(-330.945 -227.338)">
        <g id="Group_307" data-name="Group 307">
            <path id="Path_278" d="M665.806 310.847V256.3a12.143 12.143 0 1 0-24.286 0v86.15a32.756 32.756 0 0 0 24.286-31.603z" class="cls-1" data-name="Path 278"/>
            <path id="Path_279" d="M468.338 244.152a12.157 12.157 0 0 0-12.144 12.148v54.552a32.755 32.755 0 0 0 24.287 31.6V256.3a12.157 12.157 0 0 0-12.143-12.148z" class="cls-1" data-name="Path 279"/>
            <path id="Path_280" d="M653.663 227.338a29 29 0 0 0-28.137 22.134h7.587a8.407 8.407 0 0 1 8.407 8.407V256.3a12.143 12.143 0 1 1 24.286 0v54.552a32.756 32.756 0 0 1-24.286 31.6v9.876c0 2.485-.13 4.939-.351 7.368a49.58 49.58 0 0 0 41.451-48.842V256.3a28.99 28.99 0 0 0-28.957-28.962z" class="cls-2" data-name="Path 280"/>
            <path id="Path_281" d="M480.481 342.445a32.755 32.755 0 0 1-24.287-31.6V256.3a12.143 12.143 0 0 1 24.287 0v1.584a8.407 8.407 0 0 1 8.407-8.407h7.587a28.955 28.955 0 0 0-57.1 6.823v54.552a49.581 49.581 0 0 0 41.452 48.842 81.22 81.22 0 0 1-.351-7.368z" class="cls-2" data-name="Path 281"/>
            <path id="Path_282" d="M632.657 360.354a72.133 72.133 0 0 1-38.972 56.24 8.363 8.363 0 0 1 .716 3.388v5.575a80.675 80.675 0 0 0 46.768-65.868 49.647 49.647 0 0 1-8.056.665z" class="cls-3" data-name="Path 282"/>
            <path id="Path_283" d="M497.294 257.879h127.412V256.3a28.908 28.908 0 0 1 .82-6.823H496.475a28.908 28.908 0 0 1 .819 6.823z" class="cls-3" data-name="Path 283"/>
            <path id="Path_284" d="M561 424.433a72.243 72.243 0 0 1-16.587-1.939v8.62a80.565 80.565 0 0 0 33.174 0v-8.62A72.243 72.243 0 0 1 561 424.433z" class="cls-3" data-name="Path 284"/>
            <path id="Path_285" d="M528.315 416.6a72.135 72.135 0 0 1-38.971-56.241h-.456a49.637 49.637 0 0 1-8.056-.665 80.672 80.672 0 0 0 46.768 65.863v-5.575a8.375 8.375 0 0 1 .715-3.382z" class="cls-3" data-name="Path 285"/>
            <path id="Path_286" d="M641.52 342.445v-84.566a8.407 8.407 0 0 0-8.407-8.407h-7.587a28.908 28.908 0 0 0-.82 6.823v1.584h8.407v94.442a72.969 72.969 0 0 1-.456 8.033h.456a49.647 49.647 0 0 0 8.056-.665 81.22 81.22 0 0 0 .351-7.368z" class="cls-4" data-name="Path 286"/>
            <path id="Path_287" d="M489.344 360.354a72.723 72.723 0 0 1-.456-8.033v-94.442h8.406V256.3a28.908 28.908 0 0 0-.819-6.823h-7.587a8.407 8.407 0 0 0-8.407 8.407v94.442c0 2.485.13 4.939.351 7.368a49.637 49.637 0 0 0 8.056.665z" class="cls-4" data-name="Path 287"/>
            <path id="Path_288" d="M624.706 352.321a63.706 63.706 0 0 1-127.412 0v8.033h-7.95a72.135 72.135 0 0 0 38.971 56.246 8.4 8.4 0 0 1 16.1 3.387v2.512A72.243 72.243 0 0 0 561 424.433a72.243 72.243 0 0 0 16.587-1.939v-2.512a8.405 8.405 0 0 1 16.1-3.388 72.133 72.133 0 0 0 38.972-56.24h-7.951z" class="cls-3" data-name="Path 288"/>
            <path id="Rectangle_31" d="M0 0h127.412v8.407H0z" class="cls-3" data-name="Rectangle 31" transform="translate(497.294 257.879)"/>
            <path id="Path_289" d="M624.706 352.321l-.493 8.033h8.444a72.969 72.969 0 0 0 .456-8.033v-94.442h-8.407v94.442z" class="cls-4" data-name="Path 289"/>
            <path id="Path_290" d="M497.294 352.321v-94.442h-8.406v94.442a72.723 72.723 0 0 0 .456 8.033h8.433z" class="cls-4" data-name="Path 290"/>
            <path id="Path_291" d="M527.6 440.685a8.407 8.407 0 1 0 16.814 0v-9.571a79.879 79.879 0 0 1-16.814-5.557z" class="cls-3" data-name="Path 291"/>
            <path id="Path_292" d="M577.587 490.674a8.407 8.407 0 0 0 16.814 0v-65.117a79.879 79.879 0 0 1-16.814 5.557z" class="cls-2" data-name="Path 292"/>
            <path id="Path_293" d="M527.6 406.55v19.007a79.879 79.879 0 0 0 16.814 5.557V413.8s-6.975-1.317-16.814-7.25z" class="cls-4" data-name="Path 293"/>
            <path id="Path_294" d="M594.4 406.55v19.007a79.879 79.879 0 0 1-16.814 5.557V413.8s6.975-1.317 16.814-7.25z" class="cls-4" data-name="Path 294"/>
            <path id="Path_295" d="M565.246 295.43l5.433 16.723h17.584a4.464 4.464 0 0 1 2.624 8.076l-14.226 10.336 5.434 16.723a4.358 4.358 0 0 1-1.184 4.63 4.408 4.408 0 0 1-5.685.361L561 341.943l-14.226 10.336a4.464 4.464 0 0 1-6.869-4.991l5.434-16.723-14.226-10.336a4.362 4.362 0 0 1-1.752-4.5 4.407 4.407 0 0 1 4.376-3.574h17.584l5.433-16.723a4.465 4.465 0 0 1 8.492 0z" class="cls-4" data-name="Path 295"/>
        </g>
        <text id="BetSport" class="cls-5" transform="translate(554.945 571.815)">
            <tspan x="-223.266" y="0">B</tspan><tspan y="0" class="cls-6">et</tspan><tspan y="0">S</tspan><tspan y="0" class="cls-6">port</tspan>
        </text>
    </g>
</svg>
