<svg xmlns="http://www.w3.org/2000/svg" id="Group_511" width="1242" height="1152" data-name="Group 511" viewBox="0 0 1242 1152">
    <defs>
        <style>
            .cls-1{fill:#fff}.cls-2{fill:#72d3d3}.cls-3{fill:#29bd53}.cls-4{opacity:.05}.cls-5{fill:#2a8b72}.cls-12,.cls-6{fill:#29bc53}.cls-7{fill:#007e88}.cls-7,.cls-9{opacity:.3;mix-blend-mode:multiply;isolation:isolate}.cls-8{fill:#ff8b00}.cls-10{fill:#bababa}.cls-11,.cls-12{opacity:.12}.cls-13{fill:#72d2d2}.cls-14,.cls-19,.cls-20{fill:none;stroke-miterlimit:10}.cls-14{stroke:#000;stroke-width:9px}.cls-15,.cls-16{fill:#db5858;fill-rule:evenodd}.cls-16{fill:#c44b4b}.cls-17{fill:#c7f2ed}.cls-18{fill:#95d1bc}.cls-19,.cls-20{stroke:#2a8c72;stroke-linecap:round}.cls-19{stroke-width:2px}.cls-21{fill:#23a147}.cls-22{fill:#b5e8c2}.cls-23{fill:#c4fffc}
        </style>
    </defs>
    <path id="Rectangle_144" d="M0 0h1242v1152H0z" class="cls-1" data-name="Rectangle 144"/>
    <g id="Group_297" data-name="Group 297">
        <path id="Rectangle_5" d="M0 0h95v142.5A47.5 47.5 0 0 1 47.5 190 47.5 47.5 0 0 1 0 142.5V0z" class="cls-2" data-name="Rectangle 5" transform="translate(58)"/>
        <path id="Rectangle_7" d="M0 0h95v47.5A47.5 47.5 0 0 1 47.5 95 47.5 47.5 0 0 1 0 47.5V0z" class="cls-3" data-name="Rectangle 7" transform="translate(198)"/>
    </g>
    <g id="Group_510" data-name="Group 510" transform="translate(13.526 -991.739)">
        <g id="Group_500" class="cls-4" data-name="Group 500">
            <g id="Group_482" data-name="Group 482">
                <path id="Path_1650" d="M296.138 1508.359a45.334 45.334 0 0 0 5.508 5.345c12.478 10.6 47.579 33.288 119.535 33.288 59.527 0 95.406-9.818 112.609-16.3a83.192 83.192 0 0 0 12.429-5.587s17.833-45.9-50.526-39.495-106.5 31-134.738 19.443-74.155-15.017-64.817 3.306z" class="cls-5" data-name="Path 1650"/>
                <path id="Path_1651" d="M301.646 1513.7c12.478 10.6 47.579 33.288 119.535 33.288 59.527 0 95.406-9.818 112.609-16.3l.045-.049s30.217-42.517-38.142-36.117-105.182 25.243-134.573 17.128c-27.02-7.45-61.956-13.607-59.474 2.05z" class="cls-6" data-name="Path 1651"/>
                <g id="Group_475" data-name="Group 475">
                    <path id="Path_1652" d="M254.736 1609.536a6.045 6.045 0 0 1 8.54.143c14.518 14.975 38.747 12.27 68.513-4.483.039-.024.084-.044.123-.069a46.24 46.24 0 0 1 32.387-4.956v17.9a58.645 58.645 0 0 0-21.553 9.7c-.342.242-.684.51-1.035.8-10.4 8.674-24.764 38.7-42.978 49.724-13.161 7.966-26.12 6.777-33.575 4.147a6.048 6.048 0 0 1 3.547-11.552c20.22 5.221 39.519-9.764 56.208-39.654a45.5 45.5 0 0 1 10.15-12.478 46.843 46.843 0 0 1 10.328-6.7 81.044 81.044 0 0 0-11.368 4.017c-14.376 5.989-33.437 15.634-48.977 15.574-15.385-.059-25.822-7.831-30.816-13.959a5.969 5.969 0 0 1-1.347-3.789 6.061 6.061 0 0 1 1.853-4.365z" data-name="Path 1652"/>
                    <path id="Path_1653" d="M331.789 1605.2c.039-.024.084-.044.123-.069a46.228 46.228 0 0 1 32.387-4.954v17.9a58.6 58.6 0 0 0-21.553 9.7c-.342.242-.684.51-1.035.8a30.973 30.973 0 0 1-6.648-9.813 46.843 46.843 0 0 1 10.328-6.7 81.044 81.044 0 0 0-11.368 4.017 44.536 44.536 0 0 1-2.234-10.881z" class="cls-7" data-name="Path 1653"/>
                </g>
                <path id="Path_1654" d="M296.138 1508.359s11.16 66.987 74.8 103.832c0 0 41.352 14.479 72.52 4.988a47.293 47.293 0 0 0 20.146-11.69s69.222-52.469 82.616-80.382c0 0-8.649-21.365-60.285-22.886-9.551-.282-19.413 1.154-29.786 3.354-41.21 8.733-90.443 29.543-160.011 2.784z" class="cls-5" data-name="Path 1654"/>
                <path id="Path_1655" d="M304.475 1516s15.284 52.717 44.873 69.8a45.787 45.787 0 0 0 14.951-4.625s-32.51-13.075-59.824-65.175z" data-name="Path 1655"/>
                <path id="Path_1656" d="M409.5 2112.2c249.106 0 252.93-188.582 175.2-305.755s-122.492-205.152-122.492-205.152l-6.4 1.08a258.641 258.641 0 0 1-28.468 3.19h-.005a260.361 260.361 0 0 1-63.941-4.27s-12.839 22-35.4 58.641-54.836 87.93-93.7 146.511c-25 37.677-41.556 82.735-44.235 126.535-5.669 92.414 50.435 179.22 219.441 179.22z" class="cls-5" data-name="Path 1656"/>
                <path id="Path_1657" d="M362.9 1631.6s-75.143 109.359-119.319 184.477c-37.369 63.542-51.306 128.031-16.279 173.055 0 0-25.347-67.393 28.487-168.6 24.873-46.756 90.858-134.242 107.111-188.932z" data-name="Path 1657"/>
                <g id="Group_476" data-name="Group 476">
                    <path id="Path_1658" d="M239.776 2062.283c34.813 30.39 89.575 49.912 169.724 49.912 249.106 0 252.93-188.582 175.2-305.755s-122.492-205.152-122.492-205.152l-6.4 1.08q-5.067.855-10.164 1.506-9.132 1.165-18.3 1.684h-.005s14.95 107.934 78.861 197.029 36.979 214.98-96.694 238.237-224.952-23.45-219.438-107.849c-2.989 48.589 11.104 95.625 49.708 129.308z" class="cls-6" data-name="Path 1658"/>
                </g>
                <path id="Path_1659" d="M456.148 1505.624v-.049c-.005-.035-.005-.065-.01-.084a1.19 1.19 0 0 0 .01.133z" class="cls-8" data-name="Path 1659"/>
                <g id="Group_479" data-name="Group 479">
                    <g id="Group_478" data-name="Group 478">
                        <g id="Group_477" data-name="Group 477">
                            <path id="Path_1660" d="M426.918 1602.307c-1.477-23.461 33.086-31.273 50.149-59.714 17.833-29.721-20.919-37.018-20.919-37.018 10.373-2.2 20.235-3.636 29.786-3.354 16.907.5 29.2 3.121 38.1 6.43 18.274 6.792 22.187 16.456 22.187 16.456-11.42 23.8-63.409 65.437-78.494 77.2z" class="cls-6" data-name="Path 1660"/>
                        </g>
                    </g>
                </g>
                <g id="Group_480" data-name="Group 480">
                    <path id="Path_1661" d="M350.226 1608.753a11.033 11.033 0 0 0 3.74 8.426s58.957-18.179 118.361 3.221a18.169 18.169 0 0 0 3.269-11.383 18.923 18.923 0 0 0-3.027-9.075s-57.407-16.263-119.326.277a15.944 15.944 0 0 0-3.017 8.534z" data-name="Path 1661"/>
                    <path id="Path_1662" d="M350.226 1608.753a11.033 11.033 0 0 0 3.74 8.426s58.957-18.179 118.361 3.221a18.169 18.169 0 0 0 3.269-11.383c-13.905-4.693-70.088-16.764-125.37-.264z" class="cls-9" data-name="Path 1662"/>
                </g>
                <g id="Group_481" data-name="Group 481">
                    <path id="Path_1663" d="M345.941 1599.564c1.2 1.5 3.373 2.784 7.3 2.789 0 0 54.1-20.879 119.326-.277 0 0 4.255-.228 6.608-3.294a7.76 7.76 0 0 0 1.516-4.7s-71.054-24.941-136.208.843a7.031 7.031 0 0 0 1.458 4.639z" data-name="Path 1663"/>
                    <path id="Path_1664" d="M345.941 1599.564c1.2 1.5 3.373 2.784 7.3 2.789 0 0 54.1-20.879 119.326-.277 0 0 4.255-.228 6.608-3.294-10.529-3.369-74.075-21.92-133.234.782z" data-name="Path 1664"/>
                </g>
            </g>
            <g id="Group_490" data-name="Group 490">
                <path id="Path_1665" d="M945.862 1508.359a45.331 45.331 0 0 1-5.508 5.345c-12.478 10.6-47.579 33.288-119.535 33.288-59.527 0-95.406-9.818-112.609-16.3a83.192 83.192 0 0 1-12.429-5.587s-17.833-45.9 50.526-39.495 106.5 31 134.738 19.443 74.155-15.017 64.817 3.306z" class="cls-5" data-name="Path 1665"/>
                <path id="Path_1666" d="M940.354 1513.7c-12.478 10.6-47.579 33.288-119.535 33.288-59.527 0-95.406-9.818-112.609-16.3l-.045-.049s-30.217-42.517 38.142-36.117 105.182 25.243 134.573 17.128c27.02-7.45 61.956-13.607 59.474 2.05z" class="cls-6" data-name="Path 1666"/>
                <g id="Group_483" data-name="Group 483">
                    <path id="Path_1667" d="M987.264 1609.536a6.045 6.045 0 0 0-8.54.143c-14.518 14.975-38.747 12.27-68.513-4.483-.039-.024-.084-.044-.123-.069a46.24 46.24 0 0 0-32.387-4.956v17.9a58.645 58.645 0 0 1 21.553 9.7c.342.242.684.51 1.035.8 10.4 8.674 24.764 38.7 42.978 49.724 13.161 7.966 26.12 6.777 33.575 4.147a6.048 6.048 0 0 0-3.547-11.552c-20.22 5.221-39.519-9.764-56.208-39.654a45.505 45.505 0 0 0-10.15-12.478 46.843 46.843 0 0 0-10.328-6.7 81.043 81.043 0 0 1 11.368 4.017c14.376 5.989 33.437 15.634 48.977 15.574 15.385-.059 25.822-7.831 30.816-13.959a5.968 5.968 0 0 0 1.347-3.789 6.061 6.061 0 0 0-1.853-4.365z" data-name="Path 1667"/>
                    <path id="Path_1668" d="M910.211 1605.2c-.039-.024-.084-.044-.123-.069a46.228 46.228 0 0 0-32.387-4.954v17.9a58.6 58.6 0 0 1 21.553 9.7c.342.242.684.51 1.035.8a30.974 30.974 0 0 0 6.648-9.813 46.843 46.843 0 0 0-10.328-6.7 81.043 81.043 0 0 1 11.368 4.017 44.538 44.538 0 0 0 2.234-10.881z" class="cls-7" data-name="Path 1668"/>
                </g>
                <path id="Path_1669" d="M945.862 1508.359s-11.16 66.987-74.8 103.832c0 0-41.352 14.479-72.52 4.988a47.293 47.293 0 0 1-20.146-11.69s-69.222-52.469-82.616-80.382c0 0 8.649-21.365 60.285-22.886 9.551-.282 19.413 1.154 29.786 3.354 41.21 8.733 90.443 29.543 160.011 2.784z" class="cls-5" data-name="Path 1669"/>
                <path id="Path_1670" d="M937.525 1516s-15.284 52.717-44.873 69.8a45.787 45.787 0 0 1-14.951-4.625s32.51-13.075 59.824-65.175z" data-name="Path 1670"/>
                <path id="Path_1671" d="M832.5 2112.2c-249.106 0-252.93-188.582-175.2-305.755s122.492-205.152 122.492-205.152l6.4 1.08a258.643 258.643 0 0 0 28.468 3.19h.005a260.361 260.361 0 0 0 63.941-4.27s12.839 22 35.4 58.641 54.836 87.93 93.7 146.511c25 37.677 41.556 82.735 44.235 126.535h.005c5.664 92.414-50.44 179.22-219.446 179.22z" class="cls-5" data-name="Path 1671"/>
                <path id="Path_1672" d="M879.1 1631.6s75.143 109.359 119.319 184.477c37.369 63.542 51.306 128.031 16.279 173.055 0 0 25.347-67.393-28.487-168.6-24.873-46.756-90.858-134.242-107.111-188.932z" data-name="Path 1672"/>
                <g id="Group_484" data-name="Group 484">
                    <path id="Path_1673" d="M1002.224 2062.283c-34.813 30.39-89.575 49.912-169.724 49.912-249.106 0-252.93-188.582-175.2-305.755s122.492-205.152 122.492-205.152l6.4 1.08q5.067.855 10.164 1.506 9.132 1.165 18.3 1.684h.005s-14.95 107.934-78.861 197.029-36.979 214.98 96.694 238.237 224.952-23.45 219.438-107.849h.005c2.984 48.589-11.109 95.625-49.713 129.308z" class="cls-6" data-name="Path 1673"/>
                </g>
                <path id="Path_1674" d="M785.852 1505.624v-.049c.005-.035.005-.065.01-.084a1.19 1.19 0 0 1-.01.133z" class="cls-8" data-name="Path 1674"/>
                <g id="Group_487" data-name="Group 487">
                    <g id="Group_486" data-name="Group 486">
                        <g id="Group_485" data-name="Group 485">
                            <path id="Path_1675" d="M815.082 1602.307c1.477-23.461-33.086-31.273-50.149-59.714-17.833-29.721 20.919-37.018 20.919-37.018-10.373-2.2-20.235-3.636-29.786-3.354-16.907.5-29.2 3.121-38.1 6.43-18.274 6.792-22.187 16.456-22.187 16.456 11.42 23.8 63.409 65.437 78.494 77.2z" class="cls-6" data-name="Path 1675"/>
                        </g>
                    </g>
                </g>
                <g id="Group_488" data-name="Group 488">
                    <path id="Path_1676" d="M891.774 1608.753a11.033 11.033 0 0 1-3.74 8.426S829.077 1599 769.673 1620.4a18.169 18.169 0 0 1-3.269-11.383 18.922 18.922 0 0 1 3.027-9.075s57.407-16.263 119.326.277a15.944 15.944 0 0 1 3.017 8.534z" data-name="Path 1676"/>
                    <path id="Path_1677" d="M891.774 1608.753a11.033 11.033 0 0 1-3.74 8.426S829.077 1599 769.673 1620.4a18.169 18.169 0 0 1-3.269-11.383c13.905-4.693 70.088-16.764 125.37-.264z" class="cls-9" data-name="Path 1677"/>
                </g>
                <g id="Group_489" data-name="Group 489">
                    <path id="Path_1678" d="M896.059 1599.564c-1.2 1.5-3.373 2.784-7.3 2.789 0 0-54.1-20.879-119.326-.277 0 0-4.255-.228-6.608-3.294a7.76 7.76 0 0 1-1.516-4.7s71.054-24.941 136.208.843a7.031 7.031 0 0 1-1.458 4.639z" data-name="Path 1678"/>
                    <path id="Path_1679" d="M896.059 1599.564c-1.2 1.5-3.373 2.784-7.3 2.789 0 0-54.1-20.879-119.326-.277 0 0-4.255-.228-6.608-3.294 10.529-3.369 74.075-21.92 133.234.782z" data-name="Path 1679"/>
                </g>
            </g>
            <ellipse id="Ellipse_56" cx="359.126" cy="40.624" class="cls-10" data-name="Ellipse 56" rx="359.126" ry="40.624" transform="translate(263.915 2051.738)"/>
            <g id="Group_499" data-name="Group 499">
                <path id="Path_1680" d="M780.5 1239.75a65.47 65.47 0 0 1-7.958 7.722c-18.029 15.324-68.744 48.1-172.709 48.1-86.007 0-137.846-14.185-162.7-23.547-12.261-4.623-17.958-8.073-17.958-8.073s-25.765-66.311 73-57.064 153.878 44.79 194.673 28.092 107.146-21.704 93.652 4.77z" class="cls-5" data-name="Path 1680"/>
                <path id="Path_1681" d="M772.544 1247.472c-18.029 15.324-68.744 48.1-172.709 48.1-86.007 0-137.846-14.185-162.7-23.547-.043-.05-.065-.071-.065-.071s-43.658-61.43 55.11-52.183 151.97 36.472 194.435 24.747c39.032-10.782 89.515-19.673 85.929 2.954z" class="cls-6" data-name="Path 1681"/>
                <g id="Group_491" data-name="Group 491">
                    <path id="Path_1682" d="M840.322 1385.934a8.734 8.734 0 0 0-12.339.207c-20.978 21.637-55.983 17.729-98.99-6.477-.058-.036-.122-.064-.179-.1-16.883-9.516-33.5-9.8-46.794-7.161v25.859a84.741 84.741 0 0 1 31.141 14.01c.494.351.988.737 1.5 1.16 15.03 12.532 35.779 55.918 62.1 71.843 19.016 11.508 37.74 9.791 48.511 5.99a8.739 8.739 0 0 0-5.125-16.69c-29.215 7.544-57.1-14.107-81.211-57.293a65.762 65.762 0 0 0-14.665-18.029 67.675 67.675 0 0 0-14.923-9.676 117.1 117.1 0 0 1 16.426 5.8c20.77 8.653 48.31 22.588 70.762 22.5 22.23-.086 37.31-11.315 44.525-20.168a8.628 8.628 0 0 0 1.946-5.476 8.762 8.762 0 0 0-2.685-6.299z" data-name="Path 1682"/>
                    <path id="Path_1683" d="M728.993 1379.664c-.058-.036-.122-.064-.179-.1-16.884-9.517-33.5-9.8-46.794-7.158v25.858a84.7 84.7 0 0 1 31.141 14.008c.494.351.988.737 1.5 1.16a44.77 44.77 0 0 0 9.605-14.179 67.675 67.675 0 0 0-14.923-9.676 117.1 117.1 0 0 1 16.426 5.8 64.465 64.465 0 0 0 3.224-15.713z" class="cls-7" data-name="Path 1683"/>
                </g>
                <path id="Path_1684" d="M780.5 1239.75s-16.125 96.785-108.072 150.02c0 0-59.748 20.92-104.78 7.208-10.922-3.329-20.978-8.7-29.108-16.892 0 0-100.014-75.808-119.367-116.138 0 0 12.5-30.869 87.1-33.066 13.8-.408 28.048 1.668 43.035 4.845 59.545 12.619 130.68 42.686 231.192 4.023z" class="cls-5" data-name="Path 1684"/>
                <path id="Path_1685" d="M768.456 1250.784s-22.082 76.168-64.834 100.85a66.15 66.15 0 0 1-21.6-6.682s46.971-18.881 86.434-94.168z" data-name="Path 1685"/>
                <path id="Path_1686" d="M616.712 2112.2c-359.917 0-365.443-272.471-253.14-441.766s176.981-296.412 176.981-296.412l9.254 1.561a373.8 373.8 0 0 0 41.132 4.609h.007a376.211 376.211 0 0 0 92.384-6.17s18.552 31.785 51.145 84.726 79.229 127.046 135.377 211.686c36.115 54.437 60.041 119.538 63.913 182.822h.007c8.188 133.525-72.872 258.944-317.06 258.944z" class="cls-5" data-name="Path 1686"/>
                <path id="Path_1687" d="M684.038 1417.814s108.569 158.006 172.4 266.54c53.992 91.808 74.128 184.985 23.52 250.036 0 0 36.623-97.371-41.158-243.6-35.938-67.556-131.276-193.959-154.762-272.976z" data-name="Path 1687"/>
                <g id="Group_492" data-name="Group 492">
                    <path id="Path_1688" d="M663.179 1830.381l.032 36.223-46.013.042-.031-34.591c-32.636-1.929-64.3-10.712-83.889-22.768l24.751-56.152c21.549 12.707 50.274 20.84 75.4 20.817 21.864-.019 29.692-4.595 29.685-12.428-.026-28.717-126.3-5.434-126.374-90.608-.033-36.876 26.7-67.9 80.211-75.456l-.032-35.57 46.014-.042.031 34.918c24.152 2.263 47.653 8.442 66.264 18.869l-23.12 55.824c-22.528-11.4-43.745-16.93-63.651-16.912-22.517.02-29.691 6.553-29.684 14.384.025 27.414 126.3 4.456 126.373 88.651.034 35.244-25.392 65.943-75.967 74.799z" data-name="Path 1688"/>
                </g>
                <g id="Group_493" data-name="Group 493">
                    <path id="Path_1689" d="M861.936 2040.08c-50.3 43.909-129.422 72.115-245.224 72.115-359.917 0-365.443-272.471-253.14-441.766s176.981-296.412 176.981-296.412l9.254 1.561q7.321 1.234 14.687 2.175 13.192 1.686 26.445 2.434h.007s-21.6 155.946-113.941 284.674-53.428 310.612 139.707 344.215 325.019-33.882 317.053-155.825h.007c4.302 70.204-16.061 138.168-71.836 186.829z" class="cls-6" data-name="Path 1689"/>
                </g>
                <path id="Path_1690" d="M549.313 1235.8v-.072c.007-.05.007-.093.014-.121a1.784 1.784 0 0 1-.014.193z" class="cls-8" data-name="Path 1690"/>
                <g id="Group_496" data-name="Group 496">
                    <g id="Group_495" data-name="Group 495">
                        <g id="Group_494" data-name="Group 494">
                            <path id="Path_1691" d="M591.547 1375.489c2.133-33.9-47.8-45.183-72.458-86.276-25.766-42.943 30.224-53.486 30.224-53.486-14.987-3.177-29.237-5.253-43.035-4.845-24.428.723-42.192 4.509-55.046 9.29-26.4 9.813-32.057 23.776-32.057 23.776 16.5 34.384 91.617 94.546 113.411 111.541z" class="cls-6" data-name="Path 1691"/>
                        </g>
                    </g>
                </g>
                <g id="Group_497" data-name="Group 497">
                    <path id="Path_1692" d="M702.354 1384.8a15.949 15.949 0 0 1-5.4 12.175s-85.184-26.26-171.012 4.659a26.249 26.249 0 0 1-4.724-16.447 27.348 27.348 0 0 1 4.373-13.112s82.944-23.5 172.408.4a23.043 23.043 0 0 1 4.355 12.325z" data-name="Path 1692"/>
                    <path id="Path_1693" d="M702.354 1384.8a15.949 15.949 0 0 1-5.4 12.175s-85.184-26.26-171.012 4.659a26.249 26.249 0 0 1-4.724-16.447c20.082-6.782 101.263-24.224 181.136-.387z" class="cls-9" data-name="Path 1693"/>
                </g>
                <g id="Group_498" data-name="Group 498">
                    <path id="Path_1694" d="M708.545 1371.527c-1.732 2.161-4.874 4.022-10.55 4.029 0 0-78.17-30.167-172.408-.4 0 0-6.148-.329-9.547-4.759a11.2 11.2 0 0 1-2.19-6.785s102.661-36.036 196.8 1.217a10.166 10.166 0 0 1-2.105 6.698z" data-name="Path 1694"/>
                    <path id="Path_1695" d="M708.545 1371.527c-1.732 2.161-4.874 4.022-10.55 4.029 0 0-78.17-30.167-172.408-.4 0 0-6.148-.329-9.547-4.759 15.216-4.868 107.027-31.671 192.505 1.13z" data-name="Path 1695"/>
                </g>
            </g>
        </g>
        <g id="Group_502" data-name="Group 502">
            <g id="Group_501" class="cls-11" data-name="Group 501">
                <path id="Path_1696" d="M704.351 2005l176.891-527.27 163.283 3.4L734.967 2005z" class="cls-6" data-name="Path 1696"/>
                <path id="Path_1697" d="M503.649 2005l-176.89-527.27-163.284 3.4L473.033 2005z" class="cls-6" data-name="Path 1697"/>
            </g>
            <path id="Path_1698" d="M585.29 2005l-64.633-605.51h166.686L612.5 2005z" class="cls-12" data-name="Path 1698"/>
            <path id="Path_1699" d="M955.535 1262.988l21.008 64.655h67.983l-55 39.959 21.008 64.656-55-39.959-55 39.959 21.008-64.656-55-39.959h67.983z" class="cls-5" data-name="Path 1699"/>
            <path id="Path_1700" d="M604 1177.739l21.008 64.656h67.983l-55 39.959L659 1347.009l-55-39.959-55 39.959 21.008-64.655-55-39.959h67.983z" class="cls-6" data-name="Path 1700"/>
            <path id="Path_1701" d="M252.465 1262.988l21.008 64.655h67.983l-55 39.959 21.008 64.656-55-39.959-55 39.959 21.008-64.656-55-39.959h67.983z" class="cls-13" data-name="Path 1701"/>
        </g>
        <path id="Line_25" d="M0 407V0" class="cls-14" data-name="Line 25" transform="translate(600 1462)"/>
        <path id="Path_1702" d="M595 1473.252l136.942 66.179L595 1605.614z" class="cls-15" data-name="Path 1702"/>
        <path id="Path_1703" d="M630.981 1588.225l100.965-48.793-63.608-30.74z" class="cls-16" data-name="Path 1703"/>
        <path id="Rectangle_145" d="M0 0h173.085v135.661H0z" class="cls-5" data-name="Rectangle 145" transform="translate(328 1976.443)"/>
        <path id="Rectangle_146" d="M0 0h173.085v173.085H0z" class="cls-13" data-name="Rectangle 146" transform="translate(706.915 1939.019)"/>
        <g id="Group_503" data-name="Group 503">
            <path id="Path_1704" d="M813.709 2037.4h-39.361v-7.808l18.575-19.8a45.859 45.859 0 0 0 5.662-7.3 11.736 11.736 0 0 0 1.833-5.916 8.774 8.774 0 0 0-1.934-6.015 6.976 6.976 0 0 0-5.521-2.188 7.517 7.517 0 0 0-6.091 2.662 10.54 10.54 0 0 0-2.23 7h-11.436a18.83 18.83 0 0 1 2.5-9.583 17.661 17.661 0 0 1 7.078-6.8 21.537 21.537 0 0 1 10.373-2.464q8.871 0 13.784 4.259t4.909 12.028a19.326 19.326 0 0 1-2.208 8.677 48.291 48.291 0 0 1-7.571 10.293l-13.056 13.764h24.69z" class="cls-17" data-name="Path 1704"/>
        </g>
        <g id="Group_504" data-name="Group 504">
            <path id="Path_1705" d="M407.58 2039.225h6.076q4.335 0 6.426-2.17a7.94 7.94 0 0 0 2.093-5.758 7.031 7.031 0 0 0-2.071-5.4 8.027 8.027 0 0 0-5.7-1.933 8.414 8.414 0 0 0-5.482 1.794 5.737 5.737 0 0 0-2.211 4.673h-11.4a14.039 14.039 0 0 1 2.424-8.064 16.161 16.161 0 0 1 6.786-5.58 22.633 22.633 0 0 1 9.6-2.011q9.109 0 14.278 4.358t5.165 12.009a12.1 12.1 0 0 1-2.406 7.256 15.632 15.632 0 0 1-6.31 5.087 14.271 14.271 0 0 1 7.236 5.2 14.108 14.108 0 0 1 2.388 8.2 15.112 15.112 0 0 1-5.583 12.266q-5.578 4.614-14.768 4.614-8.6 0-14.061-4.535a14.816 14.816 0 0 1-5.461-11.99H406a6.608 6.608 0 0 0 2.427 5.286 10.116 10.116 0 0 0 12.344-.1 7.418 7.418 0 0 0 2.305-5.7q0-8.6-9.462-8.6h-6.034z" class="cls-18" data-name="Path 1705"/>
        </g>
        <g id="Group_505" data-name="Group 505">
            <path id="Path_346" d="M557.086 1794.188s-5.757 8.472-21.832 12.55-24-12.982-24-12.982 6.442-3.814 19.3-5.985 24.235 4.5 24.235 4.5z" class="cls-3" data-name="Path 346"/>
            <path id="Path_347" d="M521.281 1781.3c-12.164-5.85-17.524-22.252-17.524-22.252a49.538 49.538 0 0 1 26.3 4.006 23.5 23.5 0 0 1 13.727 19.743 29.178 29.178 0 0 1-22.503-1.497z" class="cls-3" data-name="Path 347"/>
            <path id="Path_348" d="M557.8 1793.389s1.939-2.236 7.821-19.856-15.256-25.769-15.256-25.769l-3.285 12.819c-3.615 14.1 5.489 28.562 5.489 28.562z" class="cls-3" data-name="Path 348"/>
            <path id="Path_349" d="M525.359 1797.37c15.713 2.661 31.162-4.309 31.162-4.309" class="cls-19" data-name="Path 349"/>
            <path id="Path_350" d="M574.97 1809.7s-5.757 8.472-21.831 12.55-24-12.981-24-12.981 6.443-3.814 19.3-5.986 24.235 4.5 24.235 4.5z" class="cls-3" data-name="Path 350"/>
            <path id="Path_351" d="M537.492 1811.693c18.166 3.653 37.867-1.508 37.867-1.508" class="cls-19" data-name="Path 351"/>
            <path id="Path_352" d="M591.3 1829.4s-5.757 8.473-21.832 12.551-24-12.982-24-12.982 6.442-3.814 19.3-5.985 24.235 4.5 24.235 4.5z" class="cls-3" data-name="Path 352"/>
            <path id="Path_353" d="M551.826 1830.4c18.167 3.653 37.867-1.508 37.867-1.508" class="cls-19" data-name="Path 353"/>
            <path id="Path_354" d="M555.357 1759.864c4.052 13.917.774 32.713.774 32.713" class="cls-19" data-name="Path 354"/>
            <path id="Path_355" d="M576.641 1810.513s1.939-2.236 7.821-19.856-15.256-25.77-15.256-25.77l-3.285 12.82c-3.615 14.1 5.488 28.562 5.488 28.562z" class="cls-3" data-name="Path 355"/>
            <path id="Path_356" d="M574.025 1776.419c4.313 13.967.945 33.282.945 33.282" class="cls-19" data-name="Path 356"/>
            <path id="Path_357" d="M590.9 1830.545s2.291-1.872 11.082-18.237-10.656-27.988-10.656-27.988l-5.416 12.077c-5.957 13.284.556 29.079.556 29.079z" class="cls-3" data-name="Path 357"/>
            <path id="Path_395" d="M593.733 1795.555c2.138 14.461-4.129 33.038-4.129 33.038" class="cls-19" data-name="Path 395"/>
            <path id="Path_359" d="M516.376 1765.649c99.358 57.148 81.936 105.115 81.936 105.115" class="cls-19" data-name="Path 359"/>
        </g>
        <g id="Group_506" data-name="Group 506">
            <path id="Path_346-2" d="M699.894 2016.059s-9.935 2.492-24.647-5.161-9.273-25.66-9.273-25.66 7.347 1.44 18.385 8.373 15.093 19.489 15.093 19.489z" class="cls-3" data-name="Path 346"/>
            <path id="Path_347-2" d="M681.748 1982.609c-5.186-12.461 1.729-28.271 1.729-28.271a49.542 49.542 0 0 1 16.963 20.492 23.5 23.5 0 0 1-2.893 23.87 29.177 29.177 0 0 1-15.799-16.091z" class="cls-3" data-name="Path 347"/>
            <path id="Path_348-2" d="M700.961 2015.94s2.935-.378 19.052-9.616 5.762-29.387 5.762-29.387l-10.983 7.382c-12.084 8.122-14.911 24.972-14.911 24.972z" class="cls-3" data-name="Path 348"/>
            <path id="Path_349-2" d="M674.1 1997.32c9.957 12.443 26.127 17.522 26.127 17.522" class="cls-19" data-name="Path 349"/>
            <path id="Path_350-2" d="M702.92 2039.54s-9.936 2.492-24.648-5.161-9.273-25.66-9.273-25.66 7.347 1.44 18.385 8.373 15.093 19.489 15.093 19.489z" class="cls-3" data-name="Path 350"/>
            <path id="Path_351-2" d="M673.62 2016.085c11.128 14.817 29.268 24.075 29.268 24.075" class="cls-19" data-name="Path 351"/>
            <path id="Path_352-2" d="M702 2065.116s-9.935 2.493-24.647-5.161-9.274-25.66-9.274-25.66 7.347 1.441 18.385 8.373 15.093 19.49 15.093 19.49z" class="cls-3" data-name="Path 352"/>
            <path id="Path_353-2" d="M671.873 2039.584c11.129 14.817 29.268 24.074 29.268 24.074" class="cls-19" data-name="Path 353"/>
            <path id="Path_354-2" d="M721.446 1989.289c-6.237 13.084-21.192 24.932-21.192 24.932" class="cls-19" data-name="Path 354"/>
            <path id="Path_355-2" d="M703.626 2041.257s2.935-.378 19.052-9.615 5.762-29.387 5.762-29.387l-10.983 7.382c-12.084 8.122-14.912 24.971-14.912 24.971z" class="cls-3" data-name="Path 355"/>
            <path id="Path_356-2" d="M724.363 2014.069c-6.076 13.3-21.444 25.471-21.444 25.471" class="cls-19" data-name="Path 356"/>
            <path id="Path_357-2" d="M700.936 2065.7s2.956.128 20.408-6.238 10.672-27.981 10.672-27.981l-12.08 5.41c-13.286 5.948-18.936 22.071-18.936 22.071z" class="cls-3" data-name="Path 357"/>
            <path id="Path_395-2" d="M726.338 2041.468c-8.027 12.216-25.069 21.912-25.069 21.912" class="cls-19" data-name="Path 395"/>
            <path id="Path_359-2" d="M688.5 1967.665c36.13 108.778-8.795 132.986-8.795 132.986" class="cls-19" data-name="Path 359"/>
        </g>
        <g id="Group_507" data-name="Group 507">
            <path id="Path_346-3" d="M564.644 1842.581s-1.008 4.941-7.537 9.843-13.365-1.345-13.365-1.345a29.981 29.981 0 0 1 7.63-6.379 19.7 19.7 0 0 1 11.865-2.552z" class="cls-13" data-name="Path 346"/>
            <path id="Path_347-3" d="M545.933 1843.517c-6.636-.35-12.183-6.785-12.183-6.785a24.4 24.4 0 0 1 12.708-3.168 11.568 11.568 0 0 1 9.981 6.364 14.366 14.366 0 0 1-10.506 3.589z" class="cls-13" data-name="Path 347"/>
            <path id="Path_348-3" d="M564.818 1842.082s.457-1.384-.213-10.5-11.82-8.813-11.82-8.813l.94 6.447c1.033 7.093 7.912 11.934 7.912 11.934z" class="cls-13" data-name="Path 348"/>
            <path id="Path_349-3" d="M550.835 1850.045c7.643-1.772 13.339-7.869 13.339-7.869" class="cls-20" data-name="Path 349"/>
            <path id="Path_350-3" d="M575.712 1846.235s-1.008 4.941-7.537 9.844-13.365-1.345-13.365-1.345a29.993 29.993 0 0 1 7.63-6.38 19.709 19.709 0 0 1 11.86-2.554z" class="cls-13" data-name="Path 350"/>
            <path id="Path_351-3" d="M559.064 1854.25c8.946-1.786 16.916-7.869 16.916-7.869" class="cls-20" data-name="Path 351"/>
            <path id="Path_352-3" d="M586.871 1852.087s-1.009 4.941-7.538 9.843-13.365-1.344-13.365-1.344a30.01 30.01 0 0 1 7.631-6.38 19.708 19.708 0 0 1 11.864-2.552z" class="cls-13" data-name="Path 352"/>
            <path id="Path_353-3" d="M569.124 1860.027c8.946-1.787 16.916-7.869 16.916-7.869" class="cls-20" data-name="Path 353"/>
            <path id="Path_354-3" d="M557.347 1827.316c4.481 5.553 6.558 14.714 6.558 14.714" class="cls-20" data-name="Path 354"/>
            <path id="Path_355-3" d="M576.625 1846.287s.457-1.383-.214-10.5-11.819-8.813-11.819-8.813l.939 6.447c1.034 7.093 7.912 11.935 7.912 11.935z" class="cls-13" data-name="Path 355"/>
            <path id="Path_356-3" d="M568.969 1831.3c4.609 5.527 6.743 14.94 6.743 14.94" class="cls-20" data-name="Path 356"/>
            <path id="Path_357-3" d="M586.9 1852.683s.686-1.285 1.574-10.387-10.15-10.693-10.15-10.693l-.17 6.514c-.185 7.164 5.77 13.1 5.77 13.1z" class="cls-13" data-name="Path 357"/>
            <path id="Path_395-3" d="M581.552 1836.249c3.715 6.164 4.392 15.793 4.392 15.793" class="cls-20" data-name="Path 395"/>
            <path id="Path_359-3" d="M540.736 1837.339c55.979 7.113 58.346 32.014 58.346 32.014" class="cls-20" data-name="Path 359"/>
        </g>
        <g id="Group_508" data-name="Group 508">
            <path id="Path_346-4" d="M494.644 1968.581s-1.008 4.941-7.537 9.843-13.365-1.345-13.365-1.345a29.981 29.981 0 0 1 7.63-6.379 19.7 19.7 0 0 1 11.865-2.552z" class="cls-13" data-name="Path 346"/>
            <path id="Path_347-4" d="M475.933 1969.517c-6.636-.35-12.183-6.785-12.183-6.785a24.4 24.4 0 0 1 12.708-3.168 11.568 11.568 0 0 1 9.981 6.364 14.366 14.366 0 0 1-10.506 3.589z" class="cls-13" data-name="Path 347"/>
            <path id="Path_348-4" d="M494.818 1968.082s.457-1.384-.213-10.5-11.82-8.813-11.82-8.813l.94 6.447c1.033 7.093 7.912 11.934 7.912 11.934z" class="cls-13" data-name="Path 348"/>
            <path id="Path_349-4" d="M480.835 1976.045c7.643-1.772 13.339-7.869 13.339-7.869" class="cls-20" data-name="Path 349"/>
            <path id="Path_350-4" d="M505.712 1972.235s-1.008 4.941-7.537 9.844-13.365-1.345-13.365-1.345a29.993 29.993 0 0 1 7.63-6.38 19.709 19.709 0 0 1 11.86-2.554z" class="cls-13" data-name="Path 350"/>
            <path id="Path_351-4" d="M489.064 1980.25c8.946-1.786 16.916-7.869 16.916-7.869" class="cls-20" data-name="Path 351"/>
            <path id="Path_352-4" d="M516.871 1978.087s-1.009 4.941-7.538 9.843-13.365-1.344-13.365-1.344a30.011 30.011 0 0 1 7.631-6.38 19.708 19.708 0 0 1 11.864-2.552z" class="cls-13" data-name="Path 352"/>
            <path id="Path_353-4" d="M499.124 1986.027c8.946-1.787 16.916-7.869 16.916-7.869" class="cls-20" data-name="Path 353"/>
            <path id="Path_354-4" d="M487.347 1953.316c4.481 5.553 6.558 14.714 6.558 14.714" class="cls-20" data-name="Path 354"/>
            <path id="Path_355-4" d="M506.625 1972.287s.457-1.383-.214-10.5-11.819-8.813-11.819-8.813l.939 6.447c1.034 7.093 7.912 11.935 7.912 11.935z" class="cls-13" data-name="Path 355"/>
            <path id="Path_356-4" d="M498.969 1957.3c4.609 5.527 6.743 14.94 6.743 14.94" class="cls-20" data-name="Path 356"/>
            <path id="Path_357-4" d="M516.9 1978.683s.686-1.285 1.574-10.387-10.15-10.693-10.15-10.693l-.17 6.514c-.185 7.164 5.77 13.1 5.77 13.1z" class="cls-13" data-name="Path 357"/>
            <path id="Path_395-4" d="M511.552 1962.249c3.715 6.164 4.392 15.793 4.392 15.793" class="cls-20" data-name="Path 395"/>
            <path id="Path_359-4" d="M470.736 1963.339c55.979 7.113 58.346 32.014 58.346 32.014" class="cls-20" data-name="Path 359"/>
        </g>
        <path id="Rectangle_147" d="M0 0h173.085v249.492H0z" class="cls-6" data-name="Rectangle 147" transform="translate(517.458 1862.612)"/>
        <path id="Rectangle_148" d="M0 0h173.085v18.492H0z" class="cls-21" data-name="Rectangle 148" transform="translate(517.458 1862.612)"/>
        <g id="Group_509" data-name="Group 509">
            <path id="Path_1706" d="M616.5 1976.385h-11.4v-43.934l-13.6 4.22v-9.271l23.78-8.518h1.22z" class="cls-22" data-name="Path 1706"/>
        </g>
    </g>
    <circle id="Ellipse_42" cx="11" cy="11" r="11" class="cls-23" data-name="Ellipse 42" transform="translate(964.381 922)"/>
    <circle id="Ellipse_43" cx="11" cy="11" r="11" class="cls-23" data-name="Ellipse 43" transform="translate(978.381 365)"/>
    <circle id="Ellipse_44" cx="11" cy="11" r="11" class="cls-23" data-name="Ellipse 44" transform="translate(974.381 413)"/>
    <circle id="Ellipse_45" cx="5" cy="5" r="5" class="cls-13" data-name="Ellipse 45" transform="translate(995.381 907)"/>
    <circle id="Ellipse_46" cx="5" cy="5" r="5" class="cls-13" data-name="Ellipse 46" transform="translate(963.381 383)"/>
    <circle id="Ellipse_47" cx="5" cy="5" r="5" class="cls-13" data-name="Ellipse 47" transform="translate(329.381 363)"/>
    <circle id="Ellipse_48" cx="5" cy="5" r="5" class="cls-13" data-name="Ellipse 48" transform="translate(302.381 462)"/>
    <circle id="Ellipse_49" cx="5" cy="5" r="5" class="cls-13" data-name="Ellipse 49" transform="translate(508.381 616)"/>
    <circle id="Ellipse_50" cx="5" cy="5" r="5" class="cls-13" data-name="Ellipse 50" transform="translate(287.381 386)"/>
    <circle id="Ellipse_51" cx="5" cy="5" r="5" class="cls-13" data-name="Ellipse 51" transform="translate(486.381 593)"/>
    <circle id="Ellipse_52" cx="5" cy="5" r="5" class="cls-13" data-name="Ellipse 52" transform="translate(375.381 950)"/>
    <circle id="Ellipse_53" cx="5" cy="5" r="5" class="cls-13" data-name="Ellipse 53" transform="translate(379.381 907)"/>
    <circle id="Ellipse_54" cx="5" cy="5" r="5" class="cls-23" data-name="Ellipse 54" transform="translate(489.381 634)"/>
    <circle id="Ellipse_55" cx="5" cy="5" r="5" class="cls-23" data-name="Ellipse 55" transform="translate(359.381 956)"/>
</svg>
