<svg xmlns="http://www.w3.org/2000/svg" id="Group_474" width="1242" height="1152" data-name="Group 474" viewBox="0 0 1242 1152">
    <defs>
        <style>
            .cls-1,.cls-18{fill:#fff}.cls-2{fill:#72d3d3}.cls-3{fill:#29bd53}.cls-4{opacity:.05}.cls-5{fill:#f8c79c}.cls-6{fill:#d4a77f}.cls-7{fill:#269846}.cls-8{fill:#2a2a2a}.cls-9{opacity:.12}.cls-10{fill:#5cb7b5}.cls-11,.cls-13,.cls-16,.cls-19,.cls-21,.cls-23{fill:none}.cls-11{stroke:#5cb7b5;stroke-width:5px}.cls-11,.cls-16,.cls-19,.cls-21{stroke-linecap:round}.cls-11,.cls-13,.cls-15,.cls-19,.cls-21,.cls-22{stroke-miterlimit:10}.cls-12{fill:#2a8c72}.cls-13{stroke:#0051c5;stroke-width:.494px}.cls-14{fill:#2a8b72}.cls-15,.cls-24{fill:#29bc53}.cls-15,.cls-22{stroke:rgba(0,0,0,0)}.cls-16{stroke:#d7eeed;stroke-linejoin:round;stroke-width:1.538px}.cls-17,.cls-18{isolation:isolate}.cls-17{fill:#919191;opacity:.5;mix-blend-mode:multiply}.cls-18{opacity:.2;mix-blend-mode:screen}.cls-19,.cls-21{stroke:#2a8c72}.cls-19{stroke-width:2px}.cls-20,.cls-22{fill:#72d2d2}.cls-25{fill:#c4fffc}
        </style>
    </defs>
    <path id="Rectangle_144" d="M0 0h1242v1152H0z" class="cls-1" data-name="Rectangle 144"/>
    <g id="Group_298" data-name="Group 298">
        <path id="Rectangle_5" d="M0 0h95v142.5A47.5 47.5 0 0 1 47.5 190 47.5 47.5 0 0 1 0 142.5V0z" class="cls-2" data-name="Rectangle 5" transform="translate(1105)"/>
        <path id="Rectangle_7" d="M0 0h95v47.5A47.5 47.5 0 0 1 47.5 95 47.5 47.5 0 0 1 0 47.5V0z" class="cls-3" data-name="Rectangle 7" transform="translate(965)"/>
    </g>
    <g id="Group_473" data-name="Group 473" transform="translate(3.381 50)">
        <g id="Component_25_1" class="cls-4" data-name="Component 25 1">
            <g id="Component_17_1" data-name="Component 17 1">
                <path id="Path_307" d="M845.5 412.345h-20.41v122.439h20.41a61.22 61.22 0 0 0 0-122.439z" class="cls-5" data-name="Path 307"/>
                <path id="Path_308" d="M335.273 473.571a61.22 61.22 0 0 0 61.22 61.22H416.9v-122.44h-20.407a61.22 61.22 0 0 0-61.22 61.22z" class="cls-5" data-name="Path 308"/>
                <path id="Path_309" d="M845.494 412.345l24.084-123.879a86.339 86.339 0 0 0-70.857-99.429 87.953 87.953 0 0 0-14.447-1.18 89.62 89.62 0 0 0-84.9-61.22H457.726l-40.815-61.22L396.5 85.828a144.3 144.3 0 0 0-.038 204.045.037.037 0 0 0 .038.038h367.357z" data-name="Path 309"/>
                <path id="Path_310" d="M907.951 883.176l-147.969-20.4L621 942.976l-138.982-79.39L334.055 884a163.273 163.273 0 0 0-141.638 161.027v20.6h857.173v-20.6a163.294 163.294 0 0 0-141.639-161.851z" class="cls-3" data-name="Path 310"/>
                <path id="Path_311" d="M759.988 863.579l-16.529-2.246V718.476H498.573v142.857l-16.529 2.246 138.969 79.391z" class="cls-5" data-name="Path 311"/>
                <path id="Path_312" d="M743.452 831.543V718.476H498.573v113.067c91.811 39.818 153.043 39.818 244.879 0z" class="cls-6" data-name="Path 312"/>
                <path id="Path_313" d="M192.417 1045.018v20.6h81.637V903.789a163.228 163.228 0 0 0-81.637 141.229z" class="cls-7" data-name="Path 313"/>
                <path id="Path_314" d="M845.494 412.345v116.33a338.914 338.914 0 0 1-42.658 164.5 207.989 207.989 0 0 1-181.842 106.944 207.983 207.983 0 0 1-181.842-106.946 338.919 338.919 0 0 1-42.659-164.5V289.892h367.358z" class="cls-5" data-name="Path 314"/>
                <path id="Path_315" d="M478.137 289.892H396.5v238.783a338.907 338.907 0 0 0 42.658 164.5 206.447 206.447 0 0 0 88.99 84.5c-70.422-202.056-50.011-487.783-50.011-487.783z" class="cls-6" data-name="Path 315"/>
                <path id="Path_316" d="M358.543 153.561a143.849 143.849 0 0 0 37.963 136.325h326.542c-231.848.006-326.548-81.612-364.505-136.325z" class="cls-8" data-name="Path 316"/>
                <path id="Path_317" d="M845.5 555.208h-20.41v-40.822h20.41a40.818 40.818 0 1 0 0-81.637h-20.41v-40.815h20.41a81.637 81.637 0 0 1 .112 163.274z" data-name="Path 317"/>
                <path id="Path_318" d="M416.911 555.208h-20.4a81.637 81.637 0 1 1-.111-163.274h20.522v40.815h-20.416a40.818 40.818 0 0 0 0 81.637h20.411z" data-name="Path 318"/>
                <path id="Path_319" d="M621.044 820.524h-.12A228.472 228.472 0 0 1 421.3 703.07a360.071 360.071 0 0 1-45.224-174.37V289.9a20.417 20.417 0 0 1 20.411-20.41h367.357a20.434 20.434 0 0 1 16.978 9.082l81.637 122.439a20.465 20.465 0 0 1 3.427 11.329v116.367A360.453 360.453 0 0 1 820.659 703.1a228.47 228.47 0 0 1-199.615 117.424zm-.063-40.816h.038a187.674 187.674 0 0 0 163.962-96.449 319.41 319.41 0 0 0 40.083-154.628v-110.12l-72.145-108.176H416.911v218.372a319.3 319.3 0 0 0 40.083 154.577 187.622 187.622 0 0 0 163.943 96.449z" data-name="Path 319"/>
                <path id="Path_321" d="M865.621 436.126l-40.266-6.716 24.084-144.289a65.93 65.93 0 0 0-54.1-75.937h-.008a54.977 54.977 0 0 0-11.045-.9h-.038a20.373 20.373 0 0 1-19.344-13.936 69.173 69.173 0 0 0-65.575-47.335h-241.6a20.432 20.432 0 0 1-16.977-9.082l-27.016-40.509-2.815 2.8a123.9 123.9 0 0 0 0 175.19l-28.836 28.9a164.9 164.9 0 0 1 0-232.945l20.379-20.385a20.411 20.411 0 0 1 31.4 3.1l34.775 52.144h230.729a109.943 109.943 0 0 1 98.98 62.122c1.263.164 2.487.347 3.787.549A106.719 106.719 0 0 1 889.7 291.811l-.005.031z" data-name="Path 321"/>
                <path id="Path_322" d="M212.821 1065.618h-40.815v-20.6a184.29 184.29 0 0 1 159.348-182.063l146.783-19.49V759.3h40.815v102.039a20.4 20.4 0 0 1-17.716 20.2l-164.492 21.833a143.318 143.318 0 0 0-123.923 141.6z" data-name="Path 322"/>
                <path id="Path_323" d="M1069.994 1065.618h-40.815v-20.6a143.267 143.267 0 0 0-123.942-141.595l-164.473-21.837a20.4 20.4 0 0 1-17.716-20.2v-102.07h40.815v84.168l146.757 19.49a184.289 184.289 0 0 1 159.374 182.094v20.55z" data-name="Path 323"/>
                <path id="Rectangle_47" d="M0 0h40.815v61.321H0z" data-name="Rectangle 47" transform="translate(335.356 1004.297)"/>
                <path id="Rectangle_48" d="M0 0h40.815v61.321H0z" data-name="Rectangle 48" transform="translate(865.993 1004.297)"/>
                <path id="Path_324" d="M621 963.4a20.373 20.373 0 0 1-10.1-2.7l-142.861-81.633 20.246-35.425 132.74 75.858 132.69-75.875 20.246 35.426-142.838 81.635A20.355 20.355 0 0 1 621 963.4z" data-name="Path 324"/>
            </g>
        </g>
        <g id="Group_466" data-name="Group 466">
            <path id="Path_1616" d="M1007.336 1039c0 10.494-54.064 19-120.755 19s-120.755-8.507-120.755-19 54.064-19 120.755-19 120.755 8.506 120.755 19z" class="cls-9" data-name="Path 1616"/>
            <g id="Group_463" data-name="Group 463">
                <g id="Group_351" data-name="Group 351">
                    <path id="Path_360" d="M863.342 938.168C837.135 932.84 830.5 961.5 830.5 961.5l2.146 8.579c16.942-10.344 28.293-27.958 30.696-31.911z" class="cls-2" data-name="Path 360"/>
                    <path id="Path_361" d="M863.342 938.171c-2.4 3.949-13.755 21.564-30.693 31.906l.152.611c34.465 6.893 32.167-32.168 32.167-32.168-.553-.138-1.086-.24-1.626-.349z" class="cls-10" data-name="Path 361"/>
                </g>
                <g id="Group_352" data-name="Group 352">
                    <path id="Path_362" d="M797.694 938.168c26.208-5.331 32.841 23.326 32.841 23.326l-2.146 8.579c-16.939-10.338-28.289-27.952-30.695-31.905z" class="cls-2" data-name="Path 362"/>
                    <path id="Path_363" d="M797.7 938.171c2.406 3.949 13.756 21.564 30.7 31.906l-.152.611c-34.465 6.893-32.168-32.168-32.168-32.168.544-.138 1.078-.24 1.62-.349z" class="cls-10" data-name="Path 363"/>
                </g>
                <g id="Group_353" data-name="Group 353">
                    <path id="Path_364" d="M856.957 909.183c-21.11-4.294-26.452 18.786-26.452 18.786l1.728 6.912c13.644-8.332 22.786-22.52 24.724-25.698z" class="cls-2" data-name="Path 364"/>
                    <path id="Path_365" d="M856.956 909.183c-1.937 3.18-11.08 17.366-24.723 25.7l.124.49c27.758 5.551 25.908-25.909 25.908-25.909-.448-.113-.877-.194-1.309-.281z" class="cls-10" data-name="Path 365"/>
                </g>
                <g id="Group_354" data-name="Group 354">
                    <path id="Path_366" d="M804.081 909.183c21.109-4.294 26.449 18.786 26.449 18.786l-1.726 6.912c-13.642-8.332-22.785-22.52-24.723-25.698z" class="cls-2" data-name="Path 366"/>
                    <path id="Path_367" d="M804.082 909.183c1.937 3.18 11.08 17.366 24.723 25.7l-.124.49c-27.758 5.551-25.909-25.909-25.909-25.909.451-.113.878-.194 1.31-.281z" class="cls-10" data-name="Path 367"/>
                </g>
                <g id="Group_355" data-name="Group 355">
                    <path id="Path_368" d="M850.19 887.276c-15.705-3.194-19.68 13.978-19.68 13.978l1.285 5.142c10.151-6.196 16.955-16.754 18.395-19.12z" class="cls-2" data-name="Path 368"/>
                    <path id="Path_369" d="M850.19 887.277c-1.44 2.366-8.244 12.922-18.4 19.121l.091.365c20.654 4.13 19.278-19.277 19.278-19.277-.328-.086-.649-.145-.969-.209z" class="cls-10" data-name="Path 369"/>
                </g>
                <g id="Group_356" data-name="Group 356">
                    <path id="Path_370" d="M810.848 887.276c15.7-3.194 19.68 13.978 19.68 13.978l-1.285 5.142c-10.15-6.196-16.957-16.754-18.395-19.12z" class="cls-2" data-name="Path 370"/>
                    <path id="Path_371" d="M810.848 887.277c1.441 2.366 8.245 12.922 18.4 19.121l-.092.365c-20.654 4.13-19.277-19.277-19.277-19.277.328-.086.648-.145.969-.209z" class="cls-10" data-name="Path 371"/>
                </g>
                <g id="Group_357" data-name="Group 357">
                    <path id="Path_372" d="M843.627 872.161c-10.465-2.13-13.115 9.315-13.115 9.315l.857 3.425c6.765-4.13 11.298-11.163 12.258-12.74z" class="cls-2" data-name="Path 372"/>
                    <path id="Path_373" d="M843.627 872.161c-.96 1.576-5.494 8.609-12.258 12.739l.062.244C845.2 887.9 844.275 872.3 844.275 872.3a8.738 8.738 0 0 0-.648-.139z" class="cls-10" data-name="Path 373"/>
                </g>
                <g id="Group_358" data-name="Group 358">
                    <path id="Path_374" d="M817.409 872.161c10.466-2.13 13.115 9.315 13.115 9.315l-.857 3.425c-6.767-4.13-11.296-11.163-12.258-12.74z" class="cls-2" data-name="Path 374"/>
                    <path id="Path_375" d="M817.411 872.161c.96 1.576 5.493 8.609 12.258 12.739l-.062.244C815.843 887.9 816.76 872.3 816.76 872.3c.223-.057.434-.1.651-.139z" class="cls-10" data-name="Path 375"/>
                </g>
                <path id="Line_10" d="M0 103.396V0" class="cls-11" data-name="Line 10" transform="translate(830.503 881.078)"/>
                <path id="Path_376" d="M860.564 986.772h-60.126l11.68 50.549h36.763z" class="cls-12" data-name="Path 376"/>
                <path id="Rectangle_57" d="M0 0h64.335v4.595H0z" class="cls-3" data-name="Rectangle 57" transform="translate(798.335 982.177)"/>
            </g>
            <g id="Group_465" data-name="Group 465">
                <path id="Path_1617" d="M771.446 647.172l1.686 8.151z" class="cls-13" data-name="Path 1617"/>
                <rect id="Rectangle_141" width="20.976" height="444.826" data-name="Rectangle 141" rx="10.488" transform="rotate(-11.66 3325.386 -3198.745)"/>
                <g id="Group_464" data-name="Group 464">
                    <path id="Path_1618" d="M874.165 586.747c-80.261-13.622-130.52 55.328-130.52 55.328l16.746 80.967s50.259-68.95 130.52-55.329 116.644 29.709 182.981-33.122l-16.746-80.967c-66.337 62.831-102.72 46.744-182.981 33.123z" class="cls-14" data-name="Path 1618"/>
                    <path id="Union_26" d="M20855.16 103.919s.029-.043.092-.126c-.062.083-.092.126-.092.126l-13.543-65.469s50.264-68.946 130.523-55.33 116.643 29.709 182.979-33.12l13.541 65.464 15.949 77.107c-66.34 62.832-102.723 46.744-182.982 33.123s-130.518 55.33-130.518 55.33zm217.54-42.848zm-.375 0c-20.24-.029-41.986-4.413-68.715-9.3 26.732 4.887 48.472 9.272 68.714 9.299zm-70.33-9.6l-3.107-.564zm-5.48-.991l-.621-.111zm-3.957-.7l-1.3-.229zm-6.879-1.191q1.828.311 3.629.623-1.8-.312-3.629-.623a124.761 124.761 0 0 0-20.865-1.782 124.929 124.929 0 0 1 20.864 1.782zm-21.062-1.781zm202.51-29.9l.547-.512z" class="cls-15" data-name="Union 26" transform="translate(-20081.229 684.591)"/>
                </g>
                <path id="Line_23" d="M0 0l84.217 407.187" class="cls-16" data-name="Line 23" transform="translate(724.742 619.999)"/>
                <path id="Path_1621" d="M1016.425 791.889c1.5 8.359 4.346 18.821 6.681 29.841-29.228 3.892-59.611-4.1-102.724-11.45a124.314 124.314 0 0 0-17.347-1.683c-5.353-16.289-9.772-33-14.165-49.033-7.982-29.005-14.64-58.455-20.525-88.007-5.075-25.357-14.815-53.545-14.435-80.2.02-2.1.147-4.224.329-6.358a120.753 120.753 0 0 1 19.917 1.774c43.635 7.408 74.27 15.522 103.822 11.28 12.832 20.126 16.173 46.691 19.175 71.343 5.09 41.05 11.997 81.838 19.272 122.493z" class="cls-17" data-name="Path 1621"/>
                <path id="Path_1622" d="M795.505 798.575c1.644 6.885 3.8 13.722 8.126 19.213 3.293 4.3 3.25-4.9 3.28-6.392a87.9 87.9 0 0 0-1.013-14.411c-1.312-9.048-3.66-17.9-5.636-26.816-3.211-14.481-6.864-28.862-9.85-43.393-4.782-23.274-9.624-47.882-4.223-71.486a76.546 76.546 0 0 1 2.642-9.069l.265-.729a88.527 88.527 0 0 1 6.141-13.347c2.266-3.925 5.872-7.891 3.548-12.7-5.008-10.363-25.03 2.745-29.979 7.468-9.024 8.61-9.835 21.29-7.879 32.917 2.5 14.854 7.539 29.31 11.127 43.922 4.144 16.877 8.807 33.621 12.961 50.495q4.23 17.18 8.263 34.406c.749 3.219 1.428 6.576 2.227 9.922z" class="cls-18" data-name="Path 1622"/>
                <path id="Path_1623" d="M1038.367 605.505c1.944 17.308 5.777 34.465 10.328 51.278 2.069 7.647 4.3 15.241 6.616 22.8 2.017 6.578 3.173 13.665 6.536 19.568.98 1.719 2.739 4.332 4.28 2.538 2.458-2.857 1.208-10.256.916-14.345-2-28.032-8.027-56.092-15-83.4-1.293-5.062-2.8-11.52-6.021-15.375-3.458-4.144-6.575-1.78-7.512 3.151a46.977 46.977 0 0 0-.143 13.785z" class="cls-18" data-name="Path 1623"/>
            </g>
        </g>
        <g id="Group_471" data-name="Group 471">
            <path id="Path_1624" d="M228.664 1039c0 10.494 54.064 19 120.755 19s120.755-8.507 120.755-19-54.064-19-120.755-19-120.755 8.506-120.755 19z" class="cls-9" data-name="Path 1624"/>
            <g id="Group_467" data-name="Group 467">
                <path id="Path_346" d="M384.774 960.424s-5.757 8.472-21.832 12.55-24-12.981-24-12.981 6.443-3.814 19.3-5.985 24.235 4.5 24.235 4.5z" class="cls-3" data-name="Path 346"/>
                <path id="Path_347" d="M348.969 947.533c-12.164-5.849-17.524-22.252-17.524-22.252a49.544 49.544 0 0 1 26.3 4.007 23.5 23.5 0 0 1 13.725 19.742 29.178 29.178 0 0 1-22.501-1.497z" class="cls-3" data-name="Path 347"/>
                <path id="Path_348" d="M385.491 959.625s1.939-2.235 7.821-19.855S378.056 914 378.056 914l-3.285 12.819c-3.615 14.1 5.489 28.562 5.489 28.562z" class="cls-3" data-name="Path 348"/>
                <path id="Path_349" d="M353.047 963.606c15.713 2.661 31.162-4.309 31.162-4.309" class="cls-19" data-name="Path 349"/>
                <path id="Path_350" d="M402.658 975.937s-5.757 8.472-21.831 12.551-24-12.982-24-12.982 6.443-3.814 19.3-5.985 24.235 4.5 24.235 4.5z" class="cls-3" data-name="Path 350"/>
                <path id="Path_351" d="M365.18 977.929c18.167 3.653 37.867-1.508 37.867-1.508" class="cls-19" data-name="Path 351"/>
                <path id="Path_352" d="M418.993 995.64s-5.757 8.472-21.832 12.55-24-12.981-24-12.981 6.442-3.814 19.3-5.986 24.235 4.5 24.235 4.5z" class="cls-3" data-name="Path 352"/>
                <path id="Path_353" d="M379.514 996.631c18.167 3.654 37.867-1.508 37.867-1.508" class="cls-19" data-name="Path 353"/>
                <path id="Path_354" d="M383.045 926.1c4.052 13.917.774 32.713.774 32.713" class="cls-19" data-name="Path 354"/>
                <path id="Path_355" d="M404.329 976.749s1.939-2.235 7.821-19.855-15.256-25.77-15.256-25.77l-3.285 12.819c-3.615 14.1 5.488 28.562 5.488 28.562z" class="cls-3" data-name="Path 355"/>
                <path id="Path_356" d="M401.713 942.656c4.313 13.966.945 33.282.945 33.282" class="cls-19" data-name="Path 356"/>
                <path id="Path_357" d="M418.585 996.781s2.291-1.872 11.082-18.237-10.656-27.987-10.656-27.987l-5.411 12.076c-5.957 13.284.556 29.079.556 29.079z" class="cls-3" data-name="Path 357"/>
                <path id="Path_395" d="M421.421 961.792c2.139 14.46-4.129 33.038-4.129 33.038" class="cls-19" data-name="Path 395"/>
                <path id="Path_359" d="M344.064 931.885C443.422 989.034 426 1037 426 1037" class="cls-19" data-name="Path 359"/>
            </g>
            <g id="Group_468" data-name="Group 468">
                <path id="Path_346-2" d="M392.332 1008.817s-1.008 4.941-7.537 9.843-13.365-1.344-13.365-1.344a30.014 30.014 0 0 1 7.631-6.38 19.7 19.7 0 0 1 11.864-2.552z" class="cls-20" data-name="Path 346"/>
                <path id="Path_347-2" d="M373.621 1009.754c-6.636-.35-12.183-6.785-12.183-6.785a24.394 24.394 0 0 1 12.708-3.169 11.569 11.569 0 0 1 9.981 6.365 14.37 14.37 0 0 1-10.506 3.589z" class="cls-20" data-name="Path 347"/>
                <path id="Path_348-2" d="M392.507 1008.318s.456-1.383-.214-10.5-11.82-8.818-11.82-8.818l.94 6.447c1.033 7.093 7.912 11.935 7.912 11.935z" class="cls-20" data-name="Path 348"/>
                <path id="Path_349-2" d="M378.523 1016.282c7.643-1.772 13.339-7.87 13.339-7.87" class="cls-21" data-name="Path 349"/>
                <path id="Path_350-2" d="M403.4 1012.472s-1.008 4.941-7.537 9.843-13.365-1.345-13.365-1.345a29.98 29.98 0 0 1 7.63-6.379 19.7 19.7 0 0 1 11.865-2.552z" class="cls-20" data-name="Path 350"/>
                <path id="Path_351-2" d="M386.752 1020.487c8.946-1.787 16.917-7.869 16.917-7.869" class="cls-21" data-name="Path 351"/>
                <path id="Path_352-2" d="M414.559 1018.324s-1.008 4.941-7.537 9.843-13.365-1.345-13.365-1.345a29.979 29.979 0 0 1 7.63-6.379 19.7 19.7 0 0 1 11.864-2.552z" class="cls-20" data-name="Path 352"/>
                <path id="Path_353-2" d="M396.812 1026.264c8.946-1.787 16.916-7.869 16.916-7.869" class="cls-21" data-name="Path 353"/>
                <path id="Path_354-2" d="M385.035 993.552c4.481 5.554 6.558 14.714 6.558 14.714" class="cls-21" data-name="Path 354"/>
                <path id="Path_355-2" d="M404.313 1012.524s.457-1.384-.214-10.5-11.819-8.813-11.819-8.813l.939 6.447c1.034 7.093 7.912 11.934 7.912 11.934z" class="cls-20" data-name="Path 355"/>
                <path id="Path_356-2" d="M396.657 997.531c4.609 5.527 6.743 14.941 6.743 14.941" class="cls-21" data-name="Path 356"/>
                <path id="Path_357-2" d="M414.59 1018.919s.686-1.284 1.574-10.387-10.15-10.693-10.15-10.693l-.169 6.514c-.186 7.165 5.769 13.1 5.769 13.1z" class="cls-20" data-name="Path 357"/>
                <path id="Path_395-2" d="M409.241 1002.486c3.714 6.164 4.391 15.792 4.391 15.792" class="cls-21" data-name="Path 395"/>
                <path id="Path_359-2" d="M368.424 1003.575c55.979 7.113 58.346 32.015 58.346 32.015" class="cls-21" data-name="Path 359"/>
            </g>
            <g id="Group_470" data-name="Group 470">
                <path id="Path_1625" d="M464.554 647.172l-1.686 8.151z" class="cls-13" data-name="Path 1625"/>
                <rect id="Rectangle_142" width="20.976" height="444.826" data-name="Rectangle 142" rx="10.488" transform="scale(-1) rotate(11.66 4886.448 -2633.512)"/>
                <g id="Group_469" data-name="Group 469">
                    <path id="Path_1626" d="M361.835 586.747c80.261-13.622 130.52 55.328 130.52 55.328l-16.746 80.967s-50.259-68.95-130.52-55.329-116.644 29.709-182.981-33.122l16.746-80.967c66.337 62.831 102.72 46.744 182.981 33.123z" class="cls-14" data-name="Path 1626"/>
                    <path id="Union_27" d="M21024.6 125.7c-80.26 13.621-116.641 29.709-182.982-33.123l15.951-77.107 13.54-65.47c66.336 62.827 102.717 46.744 182.982 33.117s130.518 55.33 130.518 55.33l-13.541 65.469-.068-.093.068.093-15.949 77.107s-50.258-68.948-130.519-55.323zm-70.889-64.625zm.193 0c20.188-.027 41.861-4.388 68.494-9.262-26.628 4.869-48.31 9.229-68.498 9.257zm69.855-9.511c1.188-.217 2.375-.432 3.584-.651-1.208.214-2.396.43-3.583.647zm5.537-1l1.395-.25zm3.988-.71l1.9-.334zm7.266-1.258q-1.875.318-3.713.637 1.84-.319 3.713-.637a124.912 124.912 0 0 1 20.865-1.782 124.761 124.761 0 0 0-20.864 1.775zm21.061-1.781zm-201.443-28.9l-.736-.685c.244.216.492.446.736.67zm-1.064-.992l-.547-.512z" class="cls-22" data-name="Union 27" transform="translate(-20709 684.591)"/>
                </g>
                <path id="Line_24" d="M84.217 0L0 407.187" class="cls-16" data-name="Line 24" transform="translate(427.041 619.999)"/>
                <path id="Path_1629" d="M219.575 791.889c-1.5 8.359-4.346 18.821-6.681 29.841 29.228 3.892 59.611-4.1 102.724-11.45a124.313 124.313 0 0 1 17.347-1.683c5.353-16.289 9.772-33 14.165-49.033 7.982-29.005 14.64-58.455 20.525-88.007 5.075-25.357 14.815-53.545 14.435-80.2-.02-2.1-.147-4.224-.329-6.358a120.754 120.754 0 0 0-19.917 1.774c-43.635 7.408-74.27 15.522-103.822 11.28-12.832 20.126-16.173 46.691-19.175 71.343-5.09 41.05-11.997 81.838-19.272 122.493z" class="cls-17" data-name="Path 1629"/>
                <path id="Path_1630" d="M440.495 798.575c-1.644 6.885-3.8 13.722-8.126 19.213-3.293 4.3-3.25-4.9-3.28-6.392a87.9 87.9 0 0 1 1.013-14.411c1.312-9.048 3.66-17.9 5.636-26.816 3.211-14.481 6.864-28.862 9.85-43.393 4.782-23.274 9.624-47.882 4.223-71.486a76.558 76.558 0 0 0-2.642-9.069l-.265-.729a88.533 88.533 0 0 0-6.141-13.347c-2.266-3.925-5.872-7.891-3.548-12.7 5.008-10.363 25.03 2.745 29.979 7.468 9.024 8.61 9.835 21.29 7.879 32.917-2.5 14.854-7.539 29.31-11.127 43.922-4.144 16.877-8.807 33.621-12.961 50.495q-4.23 17.18-8.263 34.406c-.749 3.219-1.428 6.576-2.227 9.922z" class="cls-18" data-name="Path 1630"/>
                <path id="Path_1631" d="M197.633 605.505c-1.944 17.308-5.777 34.465-10.328 51.278-2.069 7.647-4.3 15.241-6.616 22.8-2.017 6.578-3.173 13.665-6.536 19.568-.98 1.719-2.739 4.332-4.28 2.538-2.458-2.857-1.208-10.256-.916-14.345 2-28.032 8.027-56.092 15-83.4 1.293-5.062 2.8-11.52 6.021-15.375 3.458-4.144 6.575-1.78 7.512 3.151a46.971 46.971 0 0 1 .143 13.785z" class="cls-18" data-name="Path 1631"/>
            </g>
        </g>
        <g id="Group_472" data-name="Group 472">
            <path id="Path_1632" d="M692.525 886.393v-37.228a8.287 8.287 0 1 0-16.574 0v58.793a22.354 22.354 0 0 0 16.574-21.565z" class="cls-23" data-name="Path 1632"/>
            <path id="Path_1633" d="M557.762 840.877a8.3 8.3 0 0 0-8.287 8.288v37.228a22.354 22.354 0 0 0 16.574 21.565v-58.793a8.3 8.3 0 0 0-8.287-8.288z" class="cls-23" data-name="Path 1633"/>
            <path id="Path_1634" d="M684.238 829.4a19.793 19.793 0 0 0-19.2 15.106h5.178a5.737 5.737 0 0 1 5.737 5.737v-1.08a8.287 8.287 0 1 1 16.574 0v37.228a22.354 22.354 0 0 1-16.574 21.565v6.74c0 1.7-.088 3.371-.24 5.028A33.836 33.836 0 0 0 704 886.393v-37.228a19.785 19.785 0 0 0-19.762-19.765z" class="cls-20" data-name="Path 1634"/>
            <path id="Path_1635" d="M566.049 907.958a22.354 22.354 0 0 1-16.574-21.565v-37.228a8.287 8.287 0 1 1 16.574 0v1.08a5.738 5.738 0 0 1 5.737-5.737h5.178A19.76 19.76 0 0 0 538 849.165v37.228a33.836 33.836 0 0 0 28.289 33.333 55.344 55.344 0 0 1-.24-5.028z" class="cls-20" data-name="Path 1635"/>
            <path id="Path_1636" d="M669.9 920.18a49.225 49.225 0 0 1-26.6 38.382 5.71 5.71 0 0 1 .489 2.311v3.8a55.052 55.052 0 0 0 31.916-44.952 33.885 33.885 0 0 1-5.5.454z" class="cls-24" data-name="Path 1636"/>
            <path id="Path_1637" d="M577.524 850.245h86.953v-1.08a19.693 19.693 0 0 1 .559-4.657h-88.072a19.693 19.693 0 0 1 .56 4.657z" class="cls-24" data-name="Path 1637"/>
            <path id="Path_1638" d="M621 963.911a49.335 49.335 0 0 1-11.32-1.323v5.882a54.933 54.933 0 0 0 22.64 0v-5.882a49.329 49.329 0 0 1-11.32 1.323z" class="cls-24" data-name="Path 1638"/>
            <path id="Path_1639" d="M598.694 958.562a49.23 49.23 0 0 1-26.6-38.382h-.312a33.885 33.885 0 0 1-5.5-.454 55.054 55.054 0 0 0 31.916 44.952v-3.8a5.71 5.71 0 0 1 .496-2.316z" class="cls-24" data-name="Path 1639"/>
            <path id="Path_1640" d="M675.951 907.958v-57.713a5.737 5.737 0 0 0-5.737-5.737h-5.178a19.693 19.693 0 0 0-.559 4.657v1.08h5.737V914.7a49.616 49.616 0 0 1-.312 5.482h.312a33.885 33.885 0 0 0 5.5-.454c.152-1.657.24-3.332.24-5.028z" class="cls-14" data-name="Path 1640"/>
            <path id="Path_1641" d="M572.1 920.18a49.617 49.617 0 0 1-.311-5.482v-64.453h5.737v-1.08a19.693 19.693 0 0 0-.56-4.657h-5.178a5.738 5.738 0 0 0-5.737 5.737V914.7c0 1.7.089 3.371.24 5.028a33.885 33.885 0 0 0 5.5.454z" class="cls-14" data-name="Path 1641"/>
            <path id="Path_1642" d="M664.477 914.7a43.477 43.477 0 0 1-86.953 0v5.482H572.1a49.23 49.23 0 0 0 26.6 38.382 5.736 5.736 0 0 1 10.986 2.311v1.715A49.335 49.335 0 0 0 621 963.911a49.329 49.329 0 0 0 11.32-1.323v-1.715a5.736 5.736 0 0 1 10.986-2.311 49.225 49.225 0 0 0 26.6-38.382h-5.425z" class="cls-24" data-name="Path 1642"/>
            <path id="Rectangle_143" d="M0 0h86.953v5.737H0z" class="cls-24" data-name="Rectangle 143" transform="translate(577.524 850.245)"/>
            <path id="Path_1643" d="M664.477 914.7l-.337 5.482h5.76a49.616 49.616 0 0 0 .312-5.482v-64.455h-5.737V914.7z" class="cls-14" data-name="Path 1643"/>
            <path id="Path_1644" d="M577.524 914.7v-64.455h-5.737V914.7a49.617 49.617 0 0 0 .311 5.482h5.755z" class="cls-14" data-name="Path 1644"/>
            <path id="Path_1645" d="M598.205 975a5.737 5.737 0 1 0 11.475 0v-6.53a54.522 54.522 0 0 1-11.475-3.792z" class="cls-24" data-name="Path 1645"/>
            <path id="Path_1646" d="M632.32 1009.118a5.737 5.737 0 0 0 11.475 0v-44.44a54.522 54.522 0 0 1-11.475 3.792z" class="cls-20" data-name="Path 1646"/>
            <path id="Path_1647" d="M598.205 951.706v12.972a54.522 54.522 0 0 0 11.475 3.792v-11.814s-4.759-.9-11.475-4.95z" class="cls-14" data-name="Path 1647"/>
            <path id="Path_1648" d="M643.795 951.706v12.972a54.522 54.522 0 0 1-11.475 3.792v-11.814s4.76-.9 11.475-4.95z" class="cls-14" data-name="Path 1648"/>
            <path id="Path_1649" d="M623.9 875.872l3.709 11.413h12a3.046 3.046 0 0 1 1.791 5.515l-9.709 7.054 3.708 11.413a2.975 2.975 0 0 1-.808 3.16 3.009 3.009 0 0 1-3.88.246L621 907.615l-9.708 7.054a3.046 3.046 0 0 1-4.688-3.406l3.708-11.413-9.712-7.05a2.976 2.976 0 0 1-1.2-3.072 3.007 3.007 0 0 1 2.986-2.439h12l3.709-11.413a3.046 3.046 0 0 1 5.794 0z" class="cls-14" data-name="Path 1649"/>
        </g>
        <circle id="Ellipse_42" cx="11" cy="11" r="11" class="cls-25" data-name="Ellipse 42" transform="translate(961 872)"/>
        <circle id="Ellipse_43" cx="11" cy="11" r="11" class="cls-25" data-name="Ellipse 43" transform="translate(975 315)"/>
        <circle id="Ellipse_44" cx="11" cy="11" r="11" class="cls-25" data-name="Ellipse 44" transform="translate(971 363)"/>
        <circle id="Ellipse_45" cx="5" cy="5" r="5" class="cls-20" data-name="Ellipse 45" transform="translate(992 857)"/>
        <circle id="Ellipse_46" cx="5" cy="5" r="5" class="cls-20" data-name="Ellipse 46" transform="translate(960 333)"/>
        <circle id="Ellipse_47" cx="5" cy="5" r="5" class="cls-20" data-name="Ellipse 47" transform="translate(326 313)"/>
        <circle id="Ellipse_48" cx="5" cy="5" r="5" class="cls-20" data-name="Ellipse 48" transform="translate(299 412)"/>
        <circle id="Ellipse_49" cx="5" cy="5" r="5" class="cls-20" data-name="Ellipse 49" transform="translate(505 566)"/>
        <circle id="Ellipse_50" cx="5" cy="5" r="5" class="cls-20" data-name="Ellipse 50" transform="translate(284 336)"/>
        <circle id="Ellipse_51" cx="5" cy="5" r="5" class="cls-20" data-name="Ellipse 51" transform="translate(483 543)"/>
        <circle id="Ellipse_52" cx="5" cy="5" r="5" class="cls-20" data-name="Ellipse 52" transform="translate(372 900)"/>
        <circle id="Ellipse_53" cx="5" cy="5" r="5" class="cls-20" data-name="Ellipse 53" transform="translate(376 857)"/>
        <circle id="Ellipse_54" cx="5" cy="5" r="5" class="cls-25" data-name="Ellipse 54" transform="translate(486 584)"/>
        <circle id="Ellipse_55" cx="5" cy="5" r="5" class="cls-25" data-name="Ellipse 55" transform="translate(356 906)"/>
    </g>
</svg>
